{
.appVersion = "1338";
DisplayStrings = (
"Mu/lcommaaccent/kcommaaccent a/space hipiji/space m/emacron/commaturnedabovecomb/gcommaaccent ina/space br/imacron vi/space nogar/scaron ot/space celof/amacron na/space/zcaron/ncommaaccent audz/emacron j/ccaron/umacron sku./space/space t\012\012/Iogonek lintkdama/space fechtuotojo/space \012/scaron paga/space sublyk/ccaron iojusi/space pragr/eogonek/zcaron/edotaccent/space apval/uogonek/space arb/umacron z/aogonek \012\012Kæmi/space ný/space öxi/space hér,/space ykist/space þjófum/space nú/space bæði/space víl/space og/space ádrepa./space Svo/space hölt,/space yxna/space kýr/space þegði/space jú/space um/space dóp/space í/space fé/space á/space bæ./space oa\012/space Þú/space dazt/space á/space hn/acutecomb éð/space í/space vök/space og/space yfir/space blóm/space sexý/space \012\012ADREPA/space SVO/space HÖLTÅ/space \012\012PACK/space MY/space BOX/space WITH/space FIVE/space DOZEN/space LIQUOR/space JUGS\012WHEN/space ZOMBIES/space ARRIVE\012QUICKLY/space FAX/space JUDGE/space PAT.\012\012when/space zombies/space arrive,\012quickly/space fax/space judge/space pat.\012",

glyphs = (
{
glyphname = A;
lastChange = "2020-05-21 16:44:48 +0000";
layers = (
{
anchors = (
{
name = bottom;
position = "{612, 0}";
},
{
name = ogonek;
position = "{1063, 0}";
},
{
name = top;
position = "{612, 1475}";
}
);
layerId = "A1A0948C-E637-4A65-8CCC-05505AD98C44";
paths = (
{
closed = 1;
nodes = (
"615 1449 LINE",
"613 1449 LINE",
"1042 0 LINE",
"1076 0 LINE",
"635 1482 LINE",
"594 1482 LINE",
"150 0 LINE",
"184 0 LINE"
);
},
{
closed = 1;
nodes = (
"306 451 LINE",
"923 451 LINE",
"923 479 LINE",
"306 479 LINE"
);
}
);
width = 1226;
},
{
anchors = (
{
name = bottom;
position = "{702, 0}";
},
{
name = ogonek;
position = "{1227, 0}";
},
{
name = top;
position = "{704, 1475}";
}
);
layerId = "584F9D0D-8480-40C6-ABEA-8DD6EE64252D";
paths = (
{
closed = 1;
nodes = (
"714 1234 LINE",
"694 1234 LINE",
"942 0 LINE",
"1355 0 LINE",
"1014 1475 LINE",
"393 1475 LINE",
"50 0 LINE",
"463 0 LINE"
);
},
{
closed = 1;
nodes = (
"340 310 LINE",
"1068 310 LINE",
"1068 613 LINE",
"340 613 LINE"
);
}
);
width = 1405;
},
{
anchors = (
{
name = bottom;
position = "{590, 0}";
},
{
name = ogonek;
position = "{1102, 0}";
},
{
name = top;
position = "{904, 1475}";
}
);
layerId = "3FDD6C00-F7FD-4E85-84B0-0136AF7D7529";
paths = (
{
closed = 1;
nodes = (
"873 1234 LINE",
"853 1234 LINE",
"836 0 LINE",
"1242 0 LINE",
"1215 1475 LINE",
"594 1475 LINE",
"-63 0 LINE",
"357 0 LINE"
);
},
{
closed = 1;
nodes = (
"297 310 LINE",
"1025 310 LINE",
"1086 613 LINE",
"358 613 LINE"
);
}
);
width = 1405;
},
{
anchors = (
{
name = bottom;
position = "{497, 0}";
},
{
name = ogonek;
position = "{944, 0}";
},
{
name = top;
position = "{810, 1475}";
}
);
layerId = "2503C51C-5A6C-4B2C-A968-78FEA18C2585";
paths = (
{
closed = 1;
nodes = (
"805 1449 LINE",
"803 1449 LINE",
"924 0 LINE",
"956 0 LINE",
"831 1482 LINE",
"790 1482 LINE",
"30 0 LINE",
"66 0 LINE"
);
},
{
closed = 1;
nodes = (
"284 451 LINE",
"901 451 LINE",
"907 479 LINE",
"290 479 LINE"
);
}
);
width = 1226;
}
);
leftKerningGroup = A;
note = A;
rightKerningGroup = A;
unicode = 0041;
},
{
glyphname = AE;
lastChange = "2020-05-20 19:09:23 +0000";
layers = (
{
components = (
{
name = E;
transform = "{1, 0, 0, 1, 810, 0}";
}
);
layerId = "A1A0948C-E637-4A65-8CCC-05505AD98C44";
paths = (
{
closed = 1;
nodes = (
"120 0 LINE",
"392 461 LINE",
"959 461 LINE",
"959 0 LINE",
"981 0 LINE",
"981 1475 LINE",
"956 1475 LINE",
"84 0 LINE"
);
},
{
closed = 1;
nodes = (
"959 1416 LINE",
"959 490 LINE",
"408 490 LINE"
);
}
);
width = 1910;
},
{
components = (
{
name = E;
transform = "{1, 0, 0, 1, 959, 0}";
}
);
layerId = "584F9D0D-8480-40C6-ABEA-8DD6EE64252D";
paths = (
{
closed = 1;
nodes = (
"469 0 LINE",
"595 199 LINE",
"1021 199 LINE",
"1021 0 LINE",
"1422 0 LINE",
"1422 1475 LINE",
"959 1475 LINE",
"22 0 LINE"
);
},
{
closed = 1;
nodes = (
"1023 951 LINE",
"1023 468 LINE",
"735 468 LINE"
);
}
);
width = 2088;
},
{
components = (
{
name = E;
transform = "{1, 0, 0, 1, 950, 0}";
}
);
layerId = "3FDD6C00-F7FD-4E85-84B0-0136AF7D7529";
paths = (
{
closed = 1;
nodes = (
"357 0 LINE",
"523 199 LINE",
"933 199 LINE",
"886 0 LINE",
"1290 0 LINE",
"1602 1475 LINE",
"1113 1475 LINE",
"-98 0 LINE"
);
},
{
closed = 1;
nodes = (
"1109 951 LINE",
"989 468 LINE",
"717 468 LINE"
);
}
);
width = 2091;
},
{
components = (
{
name = E;
transform = "{1, 0, 0, 1, 788, 0}";
}
);
layerId = "2503C51C-5A6C-4B2C-A968-78FEA18C2585";
paths = (
{
closed = 1;
nodes = (
"4 0 LINE",
"370 461 LINE",
"917 461 LINE",
"816 0 LINE",
"848 0 LINE",
"1161 1475 LINE",
"1115 1475 LINE",
"-32 0 LINE"
);
},
{
closed = 1;
nodes = (
"1130 1447 LINE",
"921 490 LINE",
"391 490 LINE"
);
}
);
width = 1892;
}
);
leftKerningGroup = A;
rightKerningGroup = E;
rightMetricsKey = E;
unicode = 00C6;
},
{
glyphname = B;
lastChange = "2020-05-20 18:52:22 +0000";
layers = (
{
anchors = (
{
name = bottom;
position = "{540, 0}";
},
{
name = top;
position = "{540, 1475}";
}
);
layerId = "A1A0948C-E637-4A65-8CCC-05505AD98C44";
paths = (
{
closed = 1;
nodes = (
"160 1475 LINE",
"160 0 LINE",
"543 0 LINE SMOOTH",
"818 0 OFFCURVE",
"992 122 OFFCURVE",
"992 398 CURVE SMOOTH",
"992 670 OFFCURVE",
"817 775 OFFCURVE",
"619 779 CURVE",
"795 784 OFFCURVE",
"964 893 OFFCURVE",
"964 1130 CURVE SMOOTH",
"964 1390 OFFCURVE",
"794 1475 OFFCURVE",
"557 1475 CURVE SMOOTH"
);
},
{
closed = 1;
nodes = (
"193 1447 LINE",
"554 1447 LINE SMOOTH",
"770 1447 OFFCURVE",
"932 1379 OFFCURVE",
"932 1130 CURVE SMOOTH",
"932 892 OFFCURVE",
"761 791 OFFCURVE",
"491 791 CURVE SMOOTH",
"193 791 LINE"
);
},
{
closed = 1;
nodes = (
"193 28 LINE",
"193 763 LINE",
"490 763 LINE SMOOTH",
"723 763 OFFCURVE",
"960 710 OFFCURVE",
"960 398 CURVE SMOOTH",
"960 131 OFFCURVE",
"791 28 OFFCURVE",
"538 28 CURVE SMOOTH"
);
}
);
width = 1173;
},
{
anchors = (
{
name = bottom;
position = "{656, 0}";
},
{
name = top;
position = "{656, 1475}";
}
);
layerId = "584F9D0D-8480-40C6-ABEA-8DD6EE64252D";
paths = (
{
closed = 1;
nodes = (
"77 1475 LINE",
"77 0 LINE",
"722 0 LINE SMOOTH",
"1106 0 OFFCURVE",
"1225 195 OFFCURVE",
"1225 424 CURVE SMOOTH",
"1225 674 OFFCURVE",
"1043 761 OFFCURVE",
"919 765 CURVE",
"1043 776 OFFCURVE",
"1186 904 OFFCURVE",
"1186 1115 CURVE SMOOTH",
"1186 1321 OFFCURVE",
"1053 1475 OFFCURVE",
"722 1475 CURVE SMOOTH"
);
},
{
closed = 1;
nodes = (
"481 1175 LINE",
"617 1175 LINE SMOOTH",
"737 1175 OFFCURVE",
"784 1127 OFFCURVE",
"784 1045 CURVE SMOOTH",
"784 966 OFFCURVE",
"737 903 OFFCURVE",
"617 903 CURVE SMOOTH",
"481 903 LINE"
);
},
{
closed = 1;
nodes = (
"481 301 LINE",
"481 605 LINE",
"643 605 LINE SMOOTH",
"763 605 OFFCURVE",
"814 529 OFFCURVE",
"814 449 CURVE SMOOTH",
"814 367 OFFCURVE",
"763 301 OFFCURVE",
"643 301 CURVE SMOOTH"
);
}
);
width = 1288;
},
{
anchors = (
{
name = bottom;
position = "{500, 0}";
},
{
name = top;
position = "{814, 1475}";
}
);
layerId = "3FDD6C00-F7FD-4E85-84B0-0136AF7D7529";
paths = (
{
closed = 1;
nodes = (
"278 1475 LINE",
"-36 0 LINE",
"609 0 LINE SMOOTH",
"993 0 OFFCURVE",
"1213 233 OFFCURVE",
"1213 507 CURVE SMOOTH",
"1213 648 OFFCURVE",
"1092 761 OFFCURVE",
"969 765 CURVE",
"1095 776 OFFCURVE",
"1321 927 OFFCURVE",
"1321 1202 CURVE SMOOTH",
"1321 1333 OFFCURVE",
"1254 1475 OFFCURVE",
"923 1475 CURVE SMOOTH"
);
},
{
closed = 1;
nodes = (
"618 1175 LINE",
"754 1175 LINE SMOOTH",
"874 1175 OFFCURVE",
"898 1140 OFFCURVE",
"898 1078 CURVE SMOOTH",
"898 977 OFFCURVE",
"814 903 OFFCURVE",
"694 903 CURVE SMOOTH",
"558 903 LINE"
);
},
{
closed = 1;
nodes = (
"432 301 LINE",
"497 605 LINE",
"659 605 LINE SMOOTH",
"779 605 OFFCURVE",
"801 548 OFFCURVE",
"801 488 CURVE SMOOTH",
"801 374 OFFCURVE",
"714 301 OFFCURVE",
"594 301 CURVE SMOOTH"
);
}
);
width = 1293;
},
{
anchors = (
{
name = bottom;
position = "{412, 0}";
},
{
name = top;
position = "{726, 1475}";
}
);
layerId = "2503C51C-5A6C-4B2C-A968-78FEA18C2585";
paths = (
{
closed = 1;
nodes = (
"361 1475 LINE",
"47 0 LINE",
"430 0 LINE SMOOTH",
"750 0 OFFCURVE",
"968 155 OFFCURVE",
"968 462 CURVE SMOOTH",
"968 686 OFFCURVE",
"843 773 OFFCURVE",
"672 778 CURVE",
"922 785 OFFCURVE",
"1096 960 OFFCURVE",
"1096 1218 CURVE SMOOTH",
"1096 1399 OFFCURVE",
"965 1475 OFFCURVE",
"753 1475 CURVE SMOOTH"
);
},
{
closed = 1;
nodes = (
"388 1447 LINE",
"749 1447 LINE SMOOTH",
"941 1447 OFFCURVE",
"1065 1386 OFFCURVE",
"1065 1219 CURVE SMOOTH",
"1065 931 OFFCURVE",
"856 791 OFFCURVE",
"546 791 CURVE SMOOTH",
"248 791 LINE"
);
},
{
closed = 1;
nodes = (
"86 28 LINE",
"242 763 LINE",
"549 763 LINE SMOOTH",
"764 763 OFFCURVE",
"937 709 OFFCURVE",
"937 465 CURVE SMOOTH",
"937 177 OFFCURVE",
"735 28 OFFCURVE",
"431 28 CURVE SMOOTH"
);
}
);
width = 1177;
}
);
leftKerningGroup = H;
leftMetricsKey = H;
note = B;
rightKerningGroup = B;
unicode = 0042;
},
{
glyphname = C;
lastChange = "2020-05-21 16:50:20 +0000";
layers = (
{
anchors = (
{
name = bottom;
position = "{649, -12}";
},
{
name = top;
position = "{649, 1488}";
}
);
layerId = "A1A0948C-E637-4A65-8CCC-05505AD98C44";
paths = (
{
closed = 1;
nodes = (
"1094 474 LINE",
"1094 269 OFFCURVE",
"939 11 OFFCURVE",
"649 11 CURVE SMOOTH",
"346 11 OFFCURVE",
"152 298 OFFCURVE",
"152 737 CURVE SMOOTH",
"152 1176 OFFCURVE",
"346 1460 OFFCURVE",
"649 1460 CURVE SMOOTH",
"909 1460 OFFCURVE",
"1060 1256 OFFCURVE",
"1089 1066 CURVE SMOOTH",
"1092 1043 OFFCURVE",
"1094 1021 OFFCURVE",
"1094 1000 CURVE",
"1125 1000 LINE",
"1125 1023 OFFCURVE",
"1123 1047 OFFCURVE",
"1119 1071 CURVE SMOOTH",
"1089 1271 OFFCURVE",
"931 1488 OFFCURVE",
"649 1488 CURVE SMOOTH",
"319 1488 OFFCURVE",
"120 1192 OFFCURVE",
"120 737 CURVE SMOOTH",
"120 282 OFFCURVE",
"319 -17 OFFCURVE",
"649 -17 CURVE SMOOTH",
"965 -17 OFFCURVE",
"1125 256 OFFCURVE",
"1125 474 CURVE"
);
}
);
width = 1245;
},
{
anchors = (
{
name = bottom;
position = "{746, -17}";
},
{
name = top;
position = "{739, 1500}";
}
);
layerId = "584F9D0D-8480-40C6-ABEA-8DD6EE64252D";
paths = (
{
closed = 1;
nodes = (
"984 577 LINE",
"984 423 OFFCURVE",
"897 285 OFFCURVE",
"749 285 CURVE SMOOTH",
"593 285 OFFCURVE",
"480 419 OFFCURVE",
"480 738 CURVE SMOOTH",
"480 1057 OFFCURVE",
"593 1188 OFFCURVE",
"749 1188 CURVE SMOOTH",
"879 1188 OFFCURVE",
"962 1084 OFFCURVE",
"980 954 CURVE SMOOTH",
"983 936 OFFCURVE",
"984 917 OFFCURVE",
"984 898 CURVE",
"1389 898 LINE",
"1389 947 OFFCURVE",
"1382 997 OFFCURVE",
"1369 1047 CURVE SMOOTH",
"1309 1273 OFFCURVE",
"1109 1500 OFFCURVE",
"749 1500 CURVE SMOOTH",
"304 1500 OFFCURVE",
"70 1158 OFFCURVE",
"70 738 CURVE SMOOTH",
"70 318 OFFCURVE",
"304 -26 OFFCURVE",
"749 -26 CURVE SMOOTH",
"1188 -26 OFFCURVE",
"1389 308 OFFCURVE",
"1389 577 CURVE"
);
}
);
width = 1459;
},
{
anchors = (
{
name = bottom;
position = "{645, -17}";
},
{
name = top;
position = "{935, 1500}";
}
);
layerId = "3FDD6C00-F7FD-4E85-84B0-0136AF7D7529";
paths = (
{
closed = 1;
nodes = (
"987 577 LINE",
"954 423 OFFCURVE",
"838 285 OFFCURVE",
"690 285 CURVE SMOOTH",
"567 285 OFFCURVE",
"503 368 OFFCURVE",
"503 544 CURVE SMOOTH",
"503 825 OFFCURVE",
"622 1188 OFFCURVE",
"882 1188 CURVE SMOOTH",
"1003 1188 OFFCURVE",
"1064 1098 OFFCURVE",
"1064 981 CURVE SMOOTH",
"1064 958 OFFCURVE",
"1060 921 OFFCURVE",
"1055 898 CURVE",
"1460 898 LINE",
"1469 938 OFFCURVE",
"1473 978 OFFCURVE",
"1473 1019 CURVE SMOOTH",
"1473 1254 OFFCURVE",
"1301 1500 OFFCURVE",
"926 1500 CURVE SMOOTH",
"435 1500 OFFCURVE",
"95 1063 OFFCURVE",
"95 554 CURVE SMOOTH",
"95 234 OFFCURVE",
"261 -26 OFFCURVE",
"646 -26 CURVE SMOOTH",
"1085 -26 OFFCURVE",
"1335 308 OFFCURVE",
"1392 577 CURVE"
);
}
);
width = 1448;
},
{
anchors = (
{
name = bottom;
position = "{533, -12}";
},
{
name = top;
position = "{848, 1488}";
}
);
layerId = "2503C51C-5A6C-4B2C-A968-78FEA18C2585";
paths = (
{
closed = 1;
nodes = (
"1079 474 LINE",
"1036 271 OFFCURVE",
"826 11 OFFCURVE",
"536 11 CURVE SMOOTH",
"288 11 OFFCURVE",
"177 204 OFFCURVE",
"177 493 CURVE SMOOTH",
"177 961 OFFCURVE",
"422 1460 OFFCURVE",
"844 1460 CURVE SMOOTH",
"1092 1460 OFFCURVE",
"1201 1275 OFFCURVE",
"1201 1092 CURVE SMOOTH",
"1201 1059 OFFCURVE",
"1195 1019 OFFCURVE",
"1191 1000 CURVE",
"1222 1000 LINE",
"1226 1015 OFFCURVE",
"1231 1056 OFFCURVE",
"1231 1089 CURVE SMOOTH",
"1231 1289 OFFCURVE",
"1121 1488 OFFCURVE",
"844 1488 CURVE SMOOTH",
"398 1488 OFFCURVE",
"144 980 OFFCURVE",
"144 489 CURVE SMOOTH",
"144 186 OFFCURVE",
"266 -17 OFFCURVE",
"538 -17 CURVE SMOOTH",
"854 -17 OFFCURVE",
"1064 256 OFFCURVE",
"1110 474 CURVE"
);
}
);
width = 1244;
}
);
leftKerningGroup = O;
leftMetricsKey = O;
note = C;
rightKerningGroup = O;
rightMetricsKey = O;
unicode = 0043;
},
{
glyphname = D;
lastChange = "2020-05-20 19:56:28 +0000";
layers = (
{
anchors = (
{
name = bottom;
position = "{567, 0}";
},
{
name = center;
position = "{567, 738}";
},
{
name = top;
position = "{567, 1475}";
}
);
layerId = "A1A0948C-E637-4A65-8CCC-05505AD98C44";
paths = (
{
closed = 1;
nodes = (
"442 0 LINE SMOOTH",
"825 0 OFFCURVE",
"1041 259 OFFCURVE",
"1041 736 CURVE SMOOTH",
"1041 1213 OFFCURVE",
"825 1475 OFFCURVE",
"442 1475 CURVE SMOOTH",
"160 1475 LINE",
"160 0 LINE"
);
},
{
closed = 1;
nodes = (
"193 1447 LINE",
"443 1447 LINE SMOOTH",
"807 1447 OFFCURVE",
"1009 1185 OFFCURVE",
"1009 736 CURVE SMOOTH",
"1009 287 OFFCURVE",
"807 28 OFFCURVE",
"443 28 CURVE SMOOTH",
"193 28 LINE"
);
}
);
width = 1161;
},
{
anchors = (
{
name = bottom;
position = "{626, 0}";
},
{
name = center;
position = "{626, 764}";
},
{
name = top;
position = "{626, 1475}";
}
);
layerId = "584F9D0D-8480-40C6-ABEA-8DD6EE64252D";
paths = (
{
closed = 1;
nodes = (
"645 0 LINE SMOOTH",
"1043 0 OFFCURVE",
"1270 320 OFFCURVE",
"1270 741 CURVE SMOOTH",
"1270 1162 OFFCURVE",
"1043 1475 OFFCURVE",
"645 1475 CURVE SMOOTH",
"77 1475 LINE",
"77 0 LINE"
);
},
{
closed = 1;
nodes = (
"481 1175 LINE",
"581 1175 LINE SMOOTH",
"732 1175 OFFCURVE",
"860 1014 OFFCURVE",
"860 741 CURVE SMOOTH",
"860 468 OFFCURVE",
"732 300 OFFCURVE",
"581 300 CURVE SMOOTH",
"481 300 LINE"
);
}
);
width = 1340;
},
{
anchors = (
{
name = bottom;
position = "{503, 0}";
},
{
name = center;
position = "{660, 738}";
},
{
name = top;
position = "{817, 1475}";
}
);
layerId = "3FDD6C00-F7FD-4E85-84B0-0136AF7D7529";
paths = (
{
closed = 1;
nodes = (
"532 0 LINE SMOOTH",
"1003 0 OFFCURVE",
"1325 426 OFFCURVE",
"1325 926 CURVE SMOOTH",
"1325 1248 OFFCURVE",
"1181 1475 OFFCURVE",
"836 1475 CURVE SMOOTH",
"278 1475 LINE",
"-36 0 LINE"
);
},
{
closed = 1;
nodes = (
"618 1175 LINE",
"718 1175 LINE SMOOTH",
"843 1175 OFFCURVE",
"915 1072 OFFCURVE",
"915 894 CURVE SMOOTH",
"915 635 OFFCURVE",
"765 300 OFFCURVE",
"532 300 CURVE SMOOTH",
"432 300 LINE"
);
}
);
width = 1333;
},
{
anchors = (
{
name = bottom;
position = "{452, 0}";
},
{
name = center;
position = "{609, 738}";
},
{
name = top;
position = "{766, 1475}";
}
);
layerId = "2503C51C-5A6C-4B2C-A968-78FEA18C2585";
paths = (
{
closed = 1;
nodes = (
"339 0 LINE SMOOTH",
"722 0 OFFCURVE",
"1116 345 OFFCURVE",
"1116 981 CURVE SMOOTH",
"1116 1240 OFFCURVE",
"1026 1475 OFFCURVE",
"643 1475 CURVE SMOOTH",
"361 1475 LINE",
"47 0 LINE"
);
},
{
closed = 1;
nodes = (
"388 1447 LINE",
"643 1447 LINE SMOOTH",
"1007 1447 OFFCURVE",
"1084 1221 OFFCURVE",
"1084 981 CURVE SMOOTH",
"1084 360 OFFCURVE",
"700 28 OFFCURVE",
"336 28 CURVE SMOOTH",
"86 28 LINE"
);
}
);
width = 1174;
}
);
leftKerningGroup = H;
leftMetricsKey = H;
note = D;
rightKerningGroup = O;
rightMetricsKey = O;
unicode = 0044;
},
{
glyphname = Eth;
lastChange = "2020-05-21 14:57:27 +0000";
layers = (
{
components = (
{
name = D;
transform = "{1, 0, 0, 1, 146, 0}";
}
);
layerId = "A1A0948C-E637-4A65-8CCC-05505AD98C44";
paths = (
{
closed = 1;
nodes = (
"557 719 LINE",
"557 745 LINE",
"64 745 LINE",
"64 719 LINE"
);
}
);
width = 1307;
},
{
components = (
{
name = D;
transform = "{1, 0, 0, 1, 15, 0}";
}
);
layerId = "584F9D0D-8480-40C6-ABEA-8DD6EE64252D";
paths = (
{
closed = 1;
nodes = (
"687 610 LINE",
"687 855 LINE",
"-37 855 LINE",
"-37 610 LINE"
);
}
);
width = 1355;
},
{
components = (
{
name = D;
transform = "{1, 0, 0, 1, 29, 0}";
}
);
layerId = "3FDD6C00-F7FD-4E85-84B0-0136AF7D7529";
paths = (
{
closed = 1;
nodes = (
"700 610 LINE",
"746 855 LINE",
"21 855 LINE",
"-24 610 LINE"
);
}
);
width = 1362;
},
{
components = (
{
name = D;
transform = "{1, 0, 0, 1, 163, 0}";
}
);
layerId = "2503C51C-5A6C-4B2C-A968-78FEA18C2585";
paths = (
{
closed = 1;
nodes = (
"592 719 LINE",
"597 745 LINE",
"105 745 LINE",
"101 719 LINE"
);
}
);
width = 1337;
}
);
leftKerningGroup = H;
rightKerningGroup = O;
rightMetricsKey = D;
unicode = 00D0;
},
{
glyphname = E;
lastChange = "2020-05-21 00:44:10 +0000";
layers = (
{
anchors = (
{
name = bottom;
position = "{557, 0}";
},
{
name = ogonek;
position = "{764, 10}";
},
{
name = top;
position = "{527, 1475}";
},
{
name = topleft;
position = "{59, 1475}";
}
);
layerId = "A1A0948C-E637-4A65-8CCC-05505AD98C44";
paths = (
{
closed = 1;
nodes = (
"875 1447 LINE",
"875 1475 LINE",
"160 1475 LINE",
"160 0 LINE",
"875 0 LINE",
"875 28 LINE",
"190 28 LINE",
"190 726 LINE",
"764 726 LINE",
"764 754 LINE",
"190 754 LINE",
"190 1447 LINE"
);
}
);
width = 1100;
},
{
anchors = (
{
name = bottom;
position = "{570, 0}";
},
{
name = ogonek;
position = "{983, 10}";
},
{
name = top;
position = "{570, 1475}";
},
{
name = topleft;
position = "{10, 1475}";
}
);
layerId = "584F9D0D-8480-40C6-ABEA-8DD6EE64252D";
paths = (
{
closed = 1;
nodes = (
"1034 1175 LINE",
"1034 1475 LINE",
"77 1475 LINE",
"77 0 LINE",
"1034 0 LINE",
"1034 300 LINE",
"483 300 LINE",
"483 590 LINE",
"923 590 LINE",
"923 890 LINE",
"483 890 LINE",
"483 1175 LINE"
);
}
);
width = 1129;
},
{
anchors = (
{
name = bottom;
position = "{461, 0}";
},
{
name = ogonek;
position = "{841, 10}";
},
{
name = top;
position = "{755, 1475}";
},
{
name = topleft;
position = "{215, 1475}";
}
);
layerId = "3FDD6C00-F7FD-4E85-84B0-0136AF7D7529";
paths = (
{
closed = 1;
nodes = (
"1171 1175 LINE",
"1235 1475 LINE",
"278 1475 LINE",
"-36 0 LINE",
"921 0 LINE",
"985 300 LINE",
"434 300 LINE",
"496 590 LINE",
"936 590 LINE",
"999 890 LINE",
"559 890 LINE",
"620 1175 LINE"
);
}
);
width = 1141;
},
{
anchors = (
{
name = bottom;
position = "{438, 0}";
},
{
name = ogonek;
position = "{609, 10}";
},
{
name = top;
position = "{752, 1475}";
},
{
name = topleft;
position = "{264, 1475}";
}
);
layerId = "2503C51C-5A6C-4B2C-A968-78FEA18C2585";
paths = (
{
closed = 1;
nodes = (
"1070 1447 LINE",
"1076 1475 LINE",
"361 1475 LINE",
"47 0 LINE",
"762 0 LINE",
"768 28 LINE",
"84 28 LINE",
"233 726 LINE",
"806 726 LINE",
"812 754 LINE",
"239 754 LINE",
"386 1447 LINE"
);
}
);
width = 1104;
}
);
leftKerningGroup = H;
leftMetricsKey = H;
note = E;
rightKerningGroup = E;
unicode = 0045;
},
{
glyphname = F;
lastChange = "2020-05-18 15:25:14 +0000";
layers = (
{
anchors = (
{
name = bottom;
position = "{588, 0}";
},
{
name = top;
position = "{588, 1475}";
}
);
layerId = "A1A0948C-E637-4A65-8CCC-05505AD98C44";
paths = (
{
closed = 1;
nodes = (
"881 1447 LINE",
"881 1475 LINE",
"186 1475 LINE",
"186 0 LINE",
"216 0 LINE",
"216 720 LINE",
"792 720 LINE",
"792 748 LINE",
"216 748 LINE",
"216 1447 LINE"
);
}
);
width = 1095;
},
{
anchors = (
{
name = bottom;
position = "{567, 0}";
},
{
name = top;
position = "{567, 1475}";
}
);
layerId = "584F9D0D-8480-40C6-ABEA-8DD6EE64252D";
paths = (
{
closed = 1;
nodes = (
"1053 1175 LINE",
"1053 1475 LINE",
"77 1475 LINE",
"77 0 LINE",
"479 0 LINE",
"479 578 LINE",
"964 578 LINE",
"964 879 LINE",
"479 879 LINE",
"479 1175 LINE"
);
}
);
width = 1134;
},
{
anchors = (
{
name = bottom;
position = "{454, 0}";
},
{
name = top;
position = "{768, 1475}";
}
);
layerId = "3FDD6C00-F7FD-4E85-84B0-0136AF7D7529";
paths = (
{
closed = 1;
nodes = (
"1186 1175 LINE",
"1250 1475 LINE",
"274 1475 LINE",
"-40 0 LINE",
"362 0 LINE",
"485 578 LINE",
"970 578 LINE",
"1034 879 LINE",
"549 879 LINE",
"612 1175 LINE"
);
}
);
width = 1134;
},
{
anchors = (
{
name = bottom;
position = "{435, 0}";
},
{
name = top;
position = "{749, 1475}";
}
);
layerId = "2503C51C-5A6C-4B2C-A968-78FEA18C2585";
paths = (
{
closed = 1;
nodes = (
"1061 1447 LINE",
"1067 1475 LINE",
"394 1475 LINE",
"81 0 LINE",
"111 0 LINE",
"264 720 LINE",
"821 720 LINE",
"826 748 LINE",
"269 748 LINE",
"418 1447 LINE"
);
}
);
width = 1095;
}
);
leftKerningGroup = H;
note = F;
rightKerningGroup = F;
unicode = 0046;
},
{
glyphname = G;
lastChange = "2020-05-21 15:22:35 +0000";
layers = (
{
anchors = (
{
name = bottom;
position = "{651, -11}";
},
{
name = top;
position = "{655, 1488}";
}
);
layerId = "A1A0948C-E637-4A65-8CCC-05505AD98C44";
paths = (
{
closed = 1;
nodes = (
"931 -17 OFFCURVE",
"1053 138 OFFCURVE",
"1077 199 CURVE",
"1077 622 LINE",
"640 622 LINE",
"640 593 LINE",
"1046 593 LINE",
"1046 202 LINE",
"1024 146 OFFCURVE",
"900 11 OFFCURVE",
"656 11 CURVE SMOOTH",
"369 11 OFFCURVE",
"151 262 OFFCURVE",
"151 732 CURVE SMOOTH",
"151 1202 OFFCURVE",
"369 1459 OFFCURVE",
"656 1459 CURVE SMOOTH",
"961 1459 OFFCURVE",
"1049 1202 OFFCURVE",
"1049 1005 CURVE",
"1079 1005 LINE",
"1079 1220 OFFCURVE",
"986 1488 OFFCURVE",
"656 1488 CURVE SMOOTH",
"351 1488 OFFCURVE",
"120 1232 OFFCURVE",
"120 732 CURVE SMOOTH",
"120 232 OFFCURVE",
"351 -17 OFFCURVE",
"656 -17 CURVE SMOOTH"
);
}
);
width = 1239;
},
{
anchors = (
{
name = bottom;
position = "{739, -17}";
},
{
name = top;
position = "{744, 1500}";
}
);
layerId = "584F9D0D-8480-40C6-ABEA-8DD6EE64252D";
paths = (
{
closed = 1;
nodes = (
"1138 -26 OFFCURVE",
"1333 253 OFFCURVE",
"1361 467 CURVE",
"1361 745 LINE",
"747 745 LINE",
"747 464 LINE",
"974 464 LINE",
"974 459 LINE",
"964 362 OFFCURVE",
"893 285 OFFCURVE",
"756 285 CURVE SMOOTH",
"605 285 OFFCURVE",
"475 395 OFFCURVE",
"475 732 CURVE SMOOTH",
"475 1069 OFFCURVE",
"606 1188 OFFCURVE",
"755 1188 CURVE SMOOTH",
"892 1188 OFFCURVE",
"962 1054 OFFCURVE",
"965 913 CURVE",
"1361 913 LINE",
"1361 1196 OFFCURVE",
"1176 1500 OFFCURVE",
"757 1500 CURVE SMOOTH",
"335 1500 OFFCURVE",
"70 1199 OFFCURVE",
"70 732 CURVE SMOOTH",
"70 265 OFFCURVE",
"321 -26 OFFCURVE",
"746 -26 CURVE SMOOTH"
);
}
);
width = 1438;
},
{
anchors = (
{
name = bottom;
position = "{630, -17}";
},
{
name = top;
position = "{925, 1500}";
}
);
layerId = "3FDD6C00-F7FD-4E85-84B0-0136AF7D7529";
paths = (
{
closed = 1;
nodes = (
"1055 -26 OFFCURVE",
"1276 253 OFFCURVE",
"1340 467 CURVE",
"1399 745 LINE",
"785 745 LINE",
"725 464 LINE",
"952 464 LINE",
"951 459 LINE",
"920 362 OFFCURVE",
"833 285 OFFCURVE",
"696 285 CURVE SMOOTH",
"578 285 OFFCURVE",
"502 358 OFFCURVE",
"502 558 CURVE SMOOTH",
"502 843 OFFCURVE",
"635 1188 OFFCURVE",
"879 1188 CURVE SMOOTH",
"1016 1188 OFFCURVE",
"1038 1062 OFFCURVE",
"1038 913 CURVE",
"1434 913 LINE",
"1434 1206 OFFCURVE",
"1344 1500 OFFCURVE",
"925 1500 CURVE SMOOTH",
"420 1500 OFFCURVE",
"96 1079 OFFCURVE",
"96 547 CURVE SMOOTH",
"96 204 OFFCURVE",
"268 -26 OFFCURVE",
"643 -26 CURVE SMOOTH"
);
}
);
width = 1431;
},
{
anchors = (
{
name = bottom;
position = "{514, -11}";
},
{
name = top;
position = "{784, 1488}";
}
);
layerId = "2503C51C-5A6C-4B2C-A968-78FEA18C2585";
paths = (
{
closed = 1;
nodes = (
"796 -17 OFFCURVE",
"914 138 OFFCURVE",
"951 199 CURVE",
"1041 622 LINE",
"634 622 LINE",
"627 593 LINE",
"1002 593 LINE",
"919 202 LINE",
"885 146 OFFCURVE",
"758 11 OFFCURVE",
"514 11 CURVE SMOOTH",
"217 11 OFFCURVE",
"174 250 OFFCURVE",
"174 424 CURVE SMOOTH",
"174 1044 OFFCURVE",
"464 1459 OFFCURVE",
"781 1459 CURVE SMOOTH",
"1072 1459 OFFCURVE",
"1092 1162 OFFCURVE",
"1092 1005 CURVE",
"1124 1005 LINE",
"1124 1180 OFFCURVE",
"1100 1488 OFFCURVE",
"784 1488 CURVE SMOOTH",
"436 1488 OFFCURVE",
"139 1054 OFFCURVE",
"139 422 CURVE SMOOTH",
"139 209 OFFCURVE",
"206 -17 OFFCURVE",
"514 -17 CURVE SMOOTH"
);
}
);
width = 1183;
}
);
leftKerningGroup = O;
leftMetricsKey = O;
note = G;
rightKerningGroup = H;
rightMetricsKey = H;
unicode = 0047;
},
{
glyphname = G.ss01;
lastChange = "2020-05-21 17:04:02 +0000";
layers = (
{
anchors = (
{
name = bottom;
position = "{611, -15}";
},
{
name = top;
position = "{624, 1488}";
}
);
layerId = "A1A0948C-E637-4A65-8CCC-05505AD98C44";
paths = (
{
closed = 1;
nodes = (
"848 -17 OFFCURVE",
"979 122 OFFCURVE",
"1004 189 CURVE",
"1004 0 LINE",
"1036 0 LINE",
"1036 653 LINE",
"605 653 LINE",
"605 625 LINE",
"1005 625 LINE",
"1005 254 LINE",
"973 170 OFFCURVE",
"871 11 OFFCURVE",
"618 11 CURVE SMOOTH",
"326 11 OFFCURVE",
"151 308 OFFCURVE",
"151 738 CURVE SMOOTH",
"151 1168 OFFCURVE",
"326 1459 OFFCURVE",
"624 1459 CURVE SMOOTH",
"920 1459 OFFCURVE",
"1009 1201 OFFCURVE",
"1009 1005 CURVE",
"1039 1005 LINE",
"1039 1209 OFFCURVE",
"946 1488 OFFCURVE",
"624 1488 CURVE SMOOTH",
"310 1488 OFFCURVE",
"120 1198 OFFCURVE",
"120 738 CURVE SMOOTH",
"120 278 OFFCURVE",
"310 -17 OFFCURVE",
"619 -17 CURVE SMOOTH"
);
}
);
width = 1199;
},
{
anchors = (
{
name = bottom;
position = "{704, -14}";
},
{
name = top;
position = "{718, 1500}";
}
);
layerId = "584F9D0D-8480-40C6-ABEA-8DD6EE64252D";
paths = (
{
closed = 1;
nodes = (
"877 -26 OFFCURVE",
"1033 73 OFFCURVE",
"1052 143 CURVE",
"1073 0 LINE",
"1291 0 LINE",
"1291 769 LINE",
"718 769 LINE",
"718 480 LINE",
"924 480 LINE",
"924 404 LINE",
"907 347 OFFCURVE",
"843 285 OFFCURVE",
"730 285 CURVE SMOOTH",
"607 285 OFFCURVE",
"475 349 OFFCURVE",
"475 732 CURVE SMOOTH",
"475 1093 OFFCURVE",
"602 1188 OFFCURVE",
"725 1188 CURVE SMOOTH",
"844 1188 OFFCURVE",
"905 1085 OFFCURVE",
"905 983 CURVE",
"1297 983 LINE",
"1297 1174 OFFCURVE",
"1144 1500 OFFCURVE",
"725 1500 CURVE SMOOTH",
"365 1500 OFFCURVE",
"70 1232 OFFCURVE",
"70 732 CURVE SMOOTH",
"70 232 OFFCURVE",
"355 -26 OFFCURVE",
"710 -26 CURVE SMOOTH"
);
}
);
width = 1374;
},
{
anchors = (
{
name = bottom;
position = "{600, -14}";
},
{
name = top;
position = "{895, 1500}";
}
);
layerId = "3FDD6C00-F7FD-4E85-84B0-0136AF7D7529";
paths = (
{
closed = 1;
nodes = (
"765 -26 OFFCURVE",
"930 73 OFFCURVE",
"964 143 CURVE",
"954 0 LINE",
"1172 0 LINE",
"1336 769 LINE",
"763 769 LINE",
"701 480 LINE",
"907 480 LINE",
"891 404 LINE",
"862 347 OFFCURVE",
"785 285 OFFCURVE",
"672 285 CURVE SMOOTH",
"573 285 OFFCURVE",
"499 320 OFFCURVE",
"499 525 CURVE SMOOTH",
"499 806 OFFCURVE",
"584 1188 OFFCURVE",
"859 1188 CURVE SMOOTH",
"970 1188 OFFCURVE",
"995 1062 OFFCURVE",
"995 983 CURVE",
"1387 983 LINE",
"1387 1174 OFFCURVE",
"1322 1500 OFFCURVE",
"903 1500 CURVE SMOOTH",
"401 1500 OFFCURVE",
"94 1051 OFFCURVE",
"94 532 CURVE SMOOTH",
"94 166 OFFCURVE",
"296 -26 OFFCURVE",
"598 -26 CURVE SMOOTH"
);
}
);
width = 1368;
},
{
anchors = (
{
name = bottom;
position = "{505, -15}";
},
{
name = top;
position = "{816, 1488}";
}
);
layerId = "2503C51C-5A6C-4B2C-A968-78FEA18C2585";
paths = (
{
closed = 1;
nodes = (
"739 -17 OFFCURVE",
"892 122 OFFCURVE",
"932 189 CURVE",
"891 0 LINE",
"923 0 LINE",
"1062 653 LINE",
"631 653 LINE",
"625 625 LINE",
"1025 625 LINE",
"946 254 LINE",
"896 170 OFFCURVE",
"761 11 OFFCURVE",
"508 11 CURVE SMOOTH",
"281 11 OFFCURVE",
"179 200 OFFCURVE",
"179 503 CURVE SMOOTH",
"179 965 OFFCURVE",
"409 1459 OFFCURVE",
"822 1459 CURVE SMOOTH",
"1105 1459 OFFCURVE",
"1110 1211 OFFCURVE",
"1110 1005 CURVE",
"1140 1005 LINE",
"1140 1219 OFFCURVE",
"1135 1488 OFFCURVE",
"823 1488 CURVE SMOOTH",
"389 1488 OFFCURVE",
"147 985 OFFCURVE",
"147 499 CURVE SMOOTH",
"147 174 OFFCURVE",
"265 -17 OFFCURVE",
"510 -17 CURVE SMOOTH"
);
}
);
width = 1199;
}
);
leftKerningGroup = O;
leftMetricsKey = O;
rightKerningGroup = H;
rightMetricsKey = H;
},
{
glyphname = H;
lastChange = "2020-05-20 16:38:43 +0000";
layers = (
{
anchors = (
{
name = bottom;
position = "{581, 0}";
},
{
name = center;
position = "{581, 738}";
},
{
name = top;
position = "{581, 1475}";
},
{
name = topleft;
position = "{137, 1475}";
}
);
layerId = "A1A0948C-E637-4A65-8CCC-05505AD98C44";
paths = (
{
closed = 1;
nodes = (
"975 1475 LINE",
"975 748 LINE",
"190 748 LINE",
"190 1475 LINE",
"160 1475 LINE",
"160 0 LINE",
"190 0 LINE",
"190 719 LINE",
"975 719 LINE",
"975 0 LINE",
"1005 0 LINE",
"1005 1475 LINE"
);
}
);
width = 1165;
},
{
anchors = (
{
name = bottom;
position = "{708, 0}";
},
{
name = center;
position = "{708, 738}";
},
{
name = top;
position = "{708, 1475}";
},
{
name = topleft;
position = "{10, 1475}";
}
);
layerId = "584F9D0D-8480-40C6-ABEA-8DD6EE64252D";
paths = (
{
closed = 1;
nodes = (
"932 1475 LINE",
"932 884 LINE",
"481 884 LINE",
"481 1475 LINE",
"77 1475 LINE",
"77 0 LINE",
"481 0 LINE",
"481 583 LINE",
"932 583 LINE",
"932 0 LINE",
"1336 0 LINE",
"1336 1475 LINE"
);
}
);
width = 1413;
},
{
anchors = (
{
name = bottom;
position = "{597, 0}";
},
{
name = center;
position = "{754, 738}";
},
{
name = top;
position = "{911, 1475}";
},
{
name = topleft;
position = "{221, 1475}";
}
);
layerId = "3FDD6C00-F7FD-4E85-84B0-0136AF7D7529";
paths = (
{
closed = 1;
nodes = (
"1133 1475 LINE",
"1007 884 LINE",
"556 884 LINE",
"682 1475 LINE",
"278 1475 LINE",
"-36 0 LINE",
"368 0 LINE",
"492 583 LINE",
"943 583 LINE",
"819 0 LINE",
"1223 0 LINE",
"1537 1475 LINE"
);
}
);
width = 1413;
},
{
anchors = (
{
name = bottom;
position = "{467, 0}";
},
{
name = center;
position = "{624, 738}";
},
{
name = top;
position = "{781, 1475}";
},
{
name = topleft;
position = "{317, 1475}";
}
);
layerId = "2503C51C-5A6C-4B2C-A968-78FEA18C2585";
paths = (
{
closed = 1;
nodes = (
"1176 1475 LINE",
"1021 748 LINE",
"236 748 LINE",
"391 1475 LINE",
"361 1475 LINE",
"47 0 LINE",
"77 0 LINE",
"230 719 LINE",
"1015 719 LINE",
"862 0 LINE",
"892 0 LINE",
"1206 1475 LINE"
);
}
);
width = 1165;
}
);
leftKerningGroup = H;
note = H;
rightKerningGroup = H;
unicode = 0048;
},
{
glyphname = Hbar;
lastChange = "2020-05-21 00:25:04 +0000";
layers = (
{
components = (
{
name = H;
}
);
layerId = "A1A0948C-E637-4A65-8CCC-05505AD98C44";
paths = (
{
closed = 1;
nodes = (
"1110 1143 LINE",
"1110 1169 LINE",
"54 1169 LINE",
"54 1143 LINE"
);
}
);
width = 1165;
},
{
components = (
{
name = H;
}
);
layerId = "584F9D0D-8480-40C6-ABEA-8DD6EE64252D";
paths = (
{
closed = 1;
nodes = (
"1413 1040 LINE",
"1413 1285 LINE",
"0 1285 LINE",
"0 1040 LINE"
);
}
);
width = 1413;
},
{
components = (
{
name = H;
}
);
layerId = "3FDD6C00-F7FD-4E85-84B0-0136AF7D7529";
paths = (
{
closed = 1;
nodes = (
"1521 1040 LINE",
"1573 1285 LINE",
"160 1285 LINE",
"108 1040 LINE"
);
}
);
width = 1413;
},
{
components = (
{
name = H;
}
);
layerId = "2503C51C-5A6C-4B2C-A968-78FEA18C2585";
paths = (
{
closed = 1;
nodes = (
"1242 1143 LINE",
"1248 1169 LINE",
"192 1169 LINE",
"186 1143 LINE"
);
}
);
width = 1165;
}
);
leftKerningGroup = H;
rightKerningGroup = H;
unicode = 0126;
},
{
glyphname = I;
lastChange = "2020-05-20 18:17:29 +0000";
layers = (
{
anchors = (
{
name = bottom;
position = "{246, 0}";
},
{
name = ogonek;
position = "{263, 0}";
},
{
name = top;
position = "{247, 1475}";
},
{
name = topleft;
position = "{85, 1475}";
}
);
layerId = "A1A0948C-E637-4A65-8CCC-05505AD98C44";
paths = (
{
closed = 1;
nodes = (
"262 0 LINE",
"262 1475 LINE",
"232 1475 LINE",
"232 0 LINE"
);
}
);
width = 496;
},
{
anchors = (
{
name = bottom;
position = "{290, 0}";
},
{
name = ogonek;
position = "{488, 0}";
},
{
name = top;
position = "{290, 1475}";
},
{
name = topleft;
position = "{-22, 1475}";
}
);
layerId = "584F9D0D-8480-40C6-ABEA-8DD6EE64252D";
paths = (
{
closed = 1;
nodes = (
"488 0 LINE",
"488 1475 LINE",
"90 1475 LINE",
"90 0 LINE"
);
}
);
width = 578;
},
{
anchors = (
{
name = bottom;
position = "{174, 0}";
},
{
name = ogonek;
position = "{376, 0}";
},
{
name = top;
position = "{488, 1475}";
},
{
name = topleft;
position = "{180, 1475}";
}
);
layerId = "3FDD6C00-F7FD-4E85-84B0-0136AF7D7529";
paths = (
{
closed = 1;
nodes = (
"376 0 LINE",
"688 1475 LINE",
"287 1475 LINE",
"-26 0 LINE"
);
}
);
width = 578;
},
{
anchors = (
{
name = bottom;
position = "{133, 0}";
},
{
name = ogonek;
position = "{149, 0}";
},
{
name = top;
position = "{448, 1475}";
},
{
name = topleft;
position = "{286, 1475}";
}
);
layerId = "2503C51C-5A6C-4B2C-A968-78FEA18C2585";
paths = (
{
closed = 1;
nodes = (
"149 0 LINE",
"462 1475 LINE",
"431 1475 LINE",
"118 0 LINE"
);
}
);
width = 499;
}
);
leftKerningGroup = H;
note = I;
rightKerningGroup = H;
unicode = 0049;
},
{
glyphname = I.ss01;
lastChange = "2020-05-21 16:52:28 +0000";
layers = (
{
anchors = (
{
name = bottom;
position = "{487, 0}";
},
{
name = ogonek;
position = "{533, 10}";
},
{
name = top;
position = "{487, 1475}";
},
{
name = topleft;
position = "{20, 1475}";
}
);
layerId = "A1A0948C-E637-4A65-8CCC-05505AD98C44";
paths = (
{
closed = 1;
nodes = (
"833 0 LINE",
"833 28 LINE",
"502 28 LINE",
"502 1447 LINE",
"833 1447 LINE",
"833 1475 LINE",
"140 1475 LINE",
"140 1447 LINE",
"471 1447 LINE",
"471 28 LINE",
"140 28 LINE",
"140 0 LINE"
);
}
);
width = 973;
},
{
anchors = (
{
name = bottom;
position = "{577, 0}";
},
{
name = ogonek;
position = "{633, 10}";
},
{
name = top;
position = "{577, 1475}";
},
{
name = topleft;
position = "{20, 1475}";
}
);
layerId = "584F9D0D-8480-40C6-ABEA-8DD6EE64252D";
paths = (
{
closed = 1;
nodes = (
"1074 0 LINE",
"1074 300 LINE",
"778 300 LINE",
"778 1175 LINE",
"1074 1175 LINE",
"1074 1475 LINE",
"80 1475 LINE",
"80 1175 LINE",
"375 1175 LINE",
"375 300 LINE",
"80 300 LINE",
"80 0 LINE"
);
}
);
width = 1154;
},
{
anchors = (
{
name = bottom;
position = "{374, 0}";
},
{
name = ogonek;
position = "{412, 10}";
},
{
name = top;
position = "{688, 1475}";
},
{
name = topleft;
position = "{221, 1475}";
}
);
layerId = "2503C51C-5A6C-4B2C-A968-78FEA18C2585";
paths = (
{
closed = 1;
nodes = (
"719 0 LINE",
"725 28 LINE",
"394 28 LINE",
"696 1447 LINE",
"1027 1447 LINE",
"1033 1475 LINE",
"340 1475 LINE",
"334 1447 LINE",
"665 1447 LINE",
"363 28 LINE",
"32 28 LINE",
"26 0 LINE"
);
}
);
width = 973;
},
{
anchors = (
{
name = bottom;
position = "{464, 0}";
},
{
name = ogonek;
position = "{530, 10}";
},
{
name = top;
position = "{778, 1475}";
},
{
name = topleft;
position = "{221, 1475}";
}
);
layerId = "3FDD6C00-F7FD-4E85-84B0-0136AF7D7529";
paths = (
{
closed = 1;
nodes = (
"960 0 LINE",
"1024 300 LINE",
"728 300 LINE",
"914 1175 LINE",
"1210 1175 LINE",
"1274 1475 LINE",
"280 1475 LINE",
"216 1175 LINE",
"511 1175 LINE",
"325 300 LINE",
"30 300 LINE",
"-34 0 LINE"
);
}
);
width = 1154;
}
);
leftKerningGroup = I.ss01;
rightKerningGroup = I.ss01;
},
{
glyphname = J;
lastChange = "2020-05-21 16:51:00 +0000";
layers = (
{
anchors = (
{
name = bottom;
position = "{475, -16}";
},
{
name = top;
position = "{825, 1475}";
}
);
layerId = "A1A0948C-E637-4A65-8CCC-05505AD98C44";
paths = (
{
closed = 1;
nodes = (
"721 -17 OFFCURVE",
"840 171 OFFCURVE",
"840 463 CURVE SMOOTH",
"840 1475 LINE",
"810 1475 LINE",
"810 463 LINE SMOOTH",
"810 186 OFFCURVE",
"698 11 OFFCURVE",
"472 11 CURVE SMOOTH",
"242 11 OFFCURVE",
"136 189 OFFCURVE",
"136 452 CURVE SMOOTH",
"136 466 OFFCURVE",
"136 480 OFFCURVE",
"136 494 CURVE",
"107 494 LINE",
"107 478 OFFCURVE",
"107 462 OFFCURVE",
"107 446 CURVE SMOOTH",
"107 166 OFFCURVE",
"226 -17 OFFCURVE",
"472 -17 CURVE SMOOTH"
);
}
);
width = 1000;
},
{
anchors = (
{
name = bottom;
position = "{565, -26}";
},
{
name = top;
position = "{893, 1475}";
}
);
layerId = "584F9D0D-8480-40C6-ABEA-8DD6EE64252D";
paths = (
{
closed = 1;
nodes = (
"992 -26 OFFCURVE",
"1098 219 OFFCURVE",
"1098 493 CURVE SMOOTH",
"1098 1475 LINE",
"695 1475 LINE",
"695 551 LINE SMOOTH",
"695 418 OFFCURVE",
"690 285 OFFCURVE",
"565 285 CURVE SMOOTH",
"442 285 OFFCURVE",
"427 418 OFFCURVE",
"427 527 CURVE SMOOTH",
"427 540 OFFCURVE",
"427 557 OFFCURVE",
"427 567 CURVE",
"26 567 LINE",
"26 542 OFFCURVE",
"26 517 OFFCURVE",
"26 492 CURVE SMOOTH",
"26 185 OFFCURVE",
"165 -26 OFFCURVE",
"565 -26 CURVE SMOOTH"
);
}
);
width = 1175;
},
{
anchors = (
{
name = bottom;
position = "{478, -26}";
},
{
name = top;
position = "{1103, 1475}";
}
);
layerId = "3FDD6C00-F7FD-4E85-84B0-0136AF7D7529";
paths = (
{
closed = 1;
nodes = (
"901 -26 OFFCURVE",
"1027 219 OFFCURVE",
"1085 493 CURVE SMOOTH",
"1293 1475 LINE",
"890 1475 LINE",
"694 551 LINE SMOOTH",
"660 389 OFFCURVE",
"632 285 OFFCURVE",
"519 285 CURVE SMOOTH",
"431 285 OFFCURVE",
"404 332 OFFCURVE",
"404 402 CURVE SMOOTH",
"404 464 OFFCURVE",
"420 530 OFFCURVE",
"429 567 CURVE",
"28 567 LINE",
"10 495 OFFCURVE",
"-9 417 OFFCURVE",
"-9 334 CURVE SMOOTH",
"-9 119 OFFCURVE",
"148 -26 OFFCURVE",
"474 -26 CURVE SMOOTH"
);
}
);
width = 1170;
},
{
anchors = (
{
name = bottom;
position = "{358, -17}";
},
{
name = top;
position = "{1014, 1475}";
}
);
layerId = "2503C51C-5A6C-4B2C-A968-78FEA18C2585";
paths = (
{
closed = 1;
nodes = (
"600 -17 OFFCURVE",
"752 171 OFFCURVE",
"814 463 CURVE SMOOTH",
"1029 1475 LINE",
"999 1475 LINE",
"784 463 LINE SMOOTH",
"725 186 OFFCURVE",
"579 11 OFFCURVE",
"353 11 CURVE SMOOTH",
"173 11 OFFCURVE",
"90 121 OFFCURVE",
"90 294 CURVE SMOOTH",
"90 356 OFFCURVE",
"100 417 OFFCURVE",
"117 494 CURVE",
"88 494 LINE",
"74 436 OFFCURVE",
"60 352 OFFCURVE",
"60 290 CURVE SMOOTH",
"60 101 OFFCURVE",
"154 -17 OFFCURVE",
"351 -17 CURVE SMOOTH"
);
}
);
width = 988;
}
);
leftKerningGroup = J;
note = J;
rightKerningGroup = H;
rightMetricsKey = H;
unicode = 004A;
},
{
glyphname = K;
lastChange = "2020-05-20 16:26:37 +0000";
layers = (
{
anchors = (
{
name = bottom;
position = "{561, 0}";
},
{
name = top;
position = "{561, 1475}";
}
);
layerId = "A1A0948C-E637-4A65-8CCC-05505AD98C44";
paths = (
{
closed = 1;
nodes = (
"884 1475 LINE",
"847 1475 LINE",
"183 621 LINE",
"191 619 LINE",
"191 1475 LINE",
"160 1475 LINE",
"160 0 LINE",
"191 0 LINE",
"191 601 LINE",
"181 575 LINE",
"341 774 LINE",
"324 776 LINE",
"897 0 LINE",
"934 0 LINE",
"344 804 LINE",
"345 778 LINE"
);
}
);
width = 1081;
},
{
anchors = (
{
name = bottom;
position = "{674, 0}";
},
{
name = top;
position = "{674, 1475}";
}
);
layerId = "584F9D0D-8480-40C6-ABEA-8DD6EE64252D";
paths = (
{
closed = 1;
nodes = (
"1326 1475 LINE",
"903 1475 LINE",
"406 769 LINE",
"480 739 LINE",
"480 1475 LINE",
"77 1475 LINE",
"77 0 LINE",
"480 0 LINE",
"480 555 LINE",
"448 304 LINE",
"717 671 LINE",
"544 695 LINE",
"944 0 LINE",
"1382 0 LINE",
"762 1003 LINE",
"750 695 LINE"
);
}
);
width = 1408;
},
{
anchors = (
{
name = bottom;
position = "{606, 0}";
},
{
name = top;
position = "{920, 1475}";
}
);
layerId = "3FDD6C00-F7FD-4E85-84B0-0136AF7D7529";
paths = (
{
closed = 1;
nodes = (
"1516 1475 LINE",
"1084 1475 LINE",
"430 769 LINE",
"524 739 LINE",
"682 1475 LINE",
"278 1475 LINE",
"-34 0 LINE",
"369 0 LINE",
"486 555 LINE",
"410 304 LINE",
"751 671 LINE",
"604 695 LINE",
"829 0 LINE",
"1250 0 LINE",
"853 1003 LINE",
"788 695 LINE"
);
}
);
width = 1413;
},
{
anchors = (
{
name = bottom;
position = "{443, 0}";
},
{
name = top;
position = "{757, 1475}";
}
);
layerId = "2503C51C-5A6C-4B2C-A968-78FEA18C2585";
paths = (
{
closed = 1;
nodes = (
"1069 1475 LINE",
"1032 1475 LINE",
"196 621 LINE",
"211 619 LINE",
"393 1475 LINE",
"361 1475 LINE",
"49 0 LINE",
"80 0 LINE",
"207 601 LINE",
"194 575 LINE",
"390 774 LINE",
"376 776 LINE",
"767 0 LINE",
"803 0 LINE",
"399 804 LINE",
"397 778 LINE"
);
}
);
width = 1086;
}
);
leftKerningGroup = H;
leftMetricsKey = H;
note = K;
rightKerningGroup = K;
unicode = 004B;
},
{
glyphname = L;
lastChange = "2020-05-21 16:43:53 +0000";
layers = (
{
anchors = (
{
name = bottom;
position = "{511, 0}";
},
{
name = center;
position = "{511, 738}";
},
{
name = top;
position = "{511, 1475}";
},
{
name = topright;
position = "{806, 1475}";
}
);
layerId = "A1A0948C-E637-4A65-8CCC-05505AD98C44";
paths = (
{
closed = 1;
nodes = (
"806 0 LINE",
"806 28 LINE",
"190 28 LINE",
"190 1475 LINE",
"160 1475 LINE",
"160 0 LINE"
);
}
);
width = 926;
},
{
anchors = (
{
name = bottom;
position = "{555, 0}";
},
{
name = center;
position = "{555, 738}";
},
{
name = top;
position = "{555, 1475}";
},
{
name = topright;
position = "{1000, 1475}";
}
);
layerId = "584F9D0D-8480-40C6-ABEA-8DD6EE64252D";
paths = (
{
closed = 1;
nodes = (
"1007 0 LINE",
"1007 301 LINE",
"481 301 LINE",
"481 1475 LINE",
"77 1475 LINE",
"77 0 LINE"
);
}
);
width = 1062;
},
{
anchors = (
{
name = bottom;
position = "{446, 0}";
},
{
name = center;
position = "{603, 738}";
},
{
name = top;
position = "{760, 1475}";
},
{
name = topright;
position = "{1199, 1475}";
}
);
layerId = "3FDD6C00-F7FD-4E85-84B0-0136AF7D7529";
paths = (
{
closed = 1;
nodes = (
"894 0 LINE",
"958 301 LINE",
"432 301 LINE",
"682 1475 LINE",
"278 1475 LINE",
"-36 0 LINE"
);
}
);
width = 1062;
},
{
anchors = (
{
name = bottom;
position = "{402, 0}";
},
{
name = center;
position = "{559, 738}";
},
{
name = top;
position = "{716, 1475}";
},
{
name = topright;
position = "{1010, 1475}";
}
);
layerId = "2503C51C-5A6C-4B2C-A968-78FEA18C2585";
paths = (
{
closed = 1;
nodes = (
"694 0 LINE",
"701 28 LINE",
"83 28 LINE",
"391 1475 LINE",
"361 1475 LINE",
"48 0 LINE"
);
}
);
width = 926;
}
);
leftKerningGroup = H;
leftMetricsKey = H;
note = L;
rightKerningGroup = L;
unicode = 004C;
},
{
glyphname = Lslash;
lastChange = "2020-05-21 16:53:24 +0000";
layers = (
{
components = (
{
name = L;
}
);
layerId = "A1A0948C-E637-4A65-8CCC-05505AD98C44";
paths = (
{
closed = 1;
nodes = (
"426 911 LINE",
"-37 437 LINE",
"-14 417 LINE",
"449 892 LINE"
);
}
);
width = 926;
},
{
components = (
{
name = L;
transform = "{1, 0, 0, 1, 147, 0}";
}
);
layerId = "584F9D0D-8480-40C6-ABEA-8DD6EE64252D";
paths = (
{
closed = 1;
nodes = (
"874 1045 LINE",
"-22 643 LINE",
"108 365 LINE",
"1004 767 LINE"
);
}
);
width = 1209;
},
{
components = (
{
name = L;
transform = "{1, 0, 0, 1, 169, 0}";
}
);
layerId = "3FDD6C00-F7FD-4E85-84B0-0136AF7D7529";
paths = (
{
closed = 1;
nodes = (
"965 1045 LINE",
"0 643 LINE",
"83 365 LINE",
"1045 767 LINE"
);
}
);
width = 1231;
},
{
components = (
{
name = L;
}
);
layerId = "2503C51C-5A6C-4B2C-A968-78FEA18C2585";
paths = (
{
closed = 1;
nodes = (
"529 911 LINE",
"-35 437 LINE",
"-17 417 LINE",
"547 892 LINE"
);
}
);
width = 926;
}
);
leftKerningGroup = H;
rightKerningGroup = L;
rightMetricsKey = L;
unicode = 0141;
},
{
glyphname = M;
lastChange = "2020-05-21 17:15:11 +0000";
layers = (
{
anchors = (
{
name = bottom;
position = "{662, 0}";
},
{
name = top;
position = "{662, 1475}";
}
);
layerId = "A1A0948C-E637-4A65-8CCC-05505AD98C44";
paths = (
{
closed = 1;
nodes = (
"666 12 LINE",
"674 12 LINE",
"208 1475 LINE",
"160 1475 LINE",
"160 0 LINE",
"190 0 LINE",
"190 1450 LINE",
"186 1449 LINE",
"643 0 LINE",
"696 0 LINE",
"1155 1449 LINE",
"1151 1450 LINE",
"1151 0 LINE",
"1181 0 LINE",
"1181 1475 LINE",
"1133 1475 LINE"
);
}
);
width = 1341;
},
{
anchors = (
{
name = bottom;
position = "{948, 0}";
},
{
name = top;
position = "{948, 1475}";
}
);
layerId = "584F9D0D-8480-40C6-ABEA-8DD6EE64252D";
paths = (
{
closed = 1;
nodes = (
"921 164 LINE",
"962 164 LINE",
"748 1475 LINE",
"77 1475 LINE",
"77 0 LINE",
"481 0 LINE",
"481 1263 LINE",
"476 1259 LINE",
"690 0 LINE",
"1194 0 LINE",
"1411 1256 LINE",
"1406 1260 LINE",
"1406 0 LINE",
"1809 0 LINE",
"1809 1475 LINE",
"1138 1475 LINE"
);
}
);
width = 1886;
},
{
anchors = (
{
name = bottom;
position = "{859, 0}";
},
{
name = top;
position = "{1167, 1475}";
}
);
layerId = "3FDD6C00-F7FD-4E85-84B0-0136AF7D7529";
paths = (
{
closed = 1;
nodes = (
"830 165 LINE",
"876 165 LINE",
"928 1475 LINE",
"278 1475 LINE",
"-36 0 LINE",
"368 0 LINE",
"636 1259 LINE",
"622 1263 LINE",
"577 0 LINE",
"1081 0 LINE",
"1571 1246 LINE",
"1560 1256 LINE",
"1293 0 LINE",
"1696 0 LINE",
"2010 1475 LINE",
"1338 1475 LINE"
);
}
);
width = 1886;
},
{
anchors = (
{
name = bottom;
position = "{588, 0}";
},
{
name = top;
position = "{839, 1475}";
}
);
layerId = "2503C51C-5A6C-4B2C-A968-78FEA18C2585";
paths = (
{
closed = 1;
nodes = (
"545 11 LINE",
"553 11 LINE",
"408 1475 LINE",
"361 1475 LINE",
"47 0 LINE",
"78 0 LINE",
"383 1433 LINE",
"379 1433 LINE",
"523 0 LINE",
"575 0 LINE",
"1330 1431 LINE",
"1326 1433 LINE",
"1021 0 LINE",
"1052 0 LINE",
"1366 1475 LINE",
"1317 1475 LINE"
);
}
);
width = 1325;
},
{
anchors = (
{
name = bottom;
position = "{769, 0}";
},
{
name = top;
position = "{769, 1475}";
}
);
associatedMasterId = "A1A0948C-E637-4A65-8CCC-05505AD98C44";
layerId = "5E54D6FA-5846-4F2D-A52E-2346EB5FFA86";
name = "Regular{0,400}";
paths = (
{
closed = 1;
nodes = (
"762 155 LINE",
"782 155 LINE",
"441 1475 LINE",
"129 1475 LINE",
"129 0 LINE",
"299 0 LINE",
"299 1380 LINE",
"295 1378 LINE",
"661 0 LINE",
"883 0 LINE",
"1251 1377 LINE",
"1247 1379 LINE",
"1247 0 LINE",
"1417 0 LINE",
"1417 1475 LINE",
"1105 1475 LINE"
);
}
);
width = 1546;
},
{
anchors = (
{
name = bottom;
position = "{697, 0}";
},
{
name = top;
position = "{969, 1475}";
}
);
associatedMasterId = "2503C51C-5A6C-4B2C-A968-78FEA18C2585";
layerId = "96AA161A-E262-42C3-91DD-35169567FFD2";
name = "Italic{1,400}";
paths = (
{
closed = 1;
nodes = (
"678 155 LINE",
"698 155 LINE",
"638 1475 LINE",
"330 1475 LINE",
"16 0 LINE",
"186 0 LINE",
"480 1380 LINE",
"475 1378 LINE",
"548 0 LINE",
"770 0 LINE",
"1431 1377 LINE",
"1427 1379 LINE",
"1134 0 LINE",
"1304 0 LINE",
"1618 1475 LINE",
"1302 1475 LINE"
);
}
);
width = 1546;
}
);
leftKerningGroup = M;
leftMetricsKey = H;
note = M;
rightKerningGroup = M;
rightMetricsKey = H;
unicode = 004D;
},
{
glyphname = N;
lastChange = "2020-05-21 17:15:42 +0000";
layers = (
{
anchors = (
{
name = bottom;
position = "{575, 0}";
},
{
name = top;
position = "{575, 1475}";
}
);
layerId = "A1A0948C-E637-4A65-8CCC-05505AD98C44";
paths = (
{
closed = 1;
nodes = (
"190 1456 LINE",
"185 1454 LINE",
"939 0 LINE",
"989 0 LINE",
"989 1475 LINE",
"959 1475 LINE",
"959 17 LINE",
"965 20 LINE",
"208 1475 LINE",
"160 1475 LINE",
"160 0 LINE",
"190 0 LINE"
);
}
);
width = 1149;
},
{
anchors = (
{
name = bottom;
position = "{769, 0}";
},
{
name = top;
position = "{769, 1475}";
}
);
layerId = "584F9D0D-8480-40C6-ABEA-8DD6EE64252D";
paths = (
{
closed = 1;
nodes = (
"480 1365 LINE",
"407 1349 LINE",
"774 0 LINE",
"1415 0 LINE",
"1415 1475 LINE",
"1012 1475 LINE",
"1012 105 LINE",
"1080 121 LINE",
"713 1475 LINE",
"77 1475 LINE",
"77 0 LINE",
"480 0 LINE"
);
}
);
width = 1492;
},
{
anchors = (
{
name = bottom;
position = "{663, 0}";
},
{
name = top;
position = "{977, 1475}";
}
);
layerId = "3FDD6C00-F7FD-4E85-84B0-0136AF7D7529";
paths = (
{
closed = 1;
nodes = (
"657 1365 LINE",
"624 1349 LINE",
"621 0 LINE",
"1302 0 LINE",
"1616 1475 LINE",
"1213 1475 LINE",
"922 105 LINE",
"950 121 LINE",
"954 1475 LINE",
"278 1475 LINE",
"-36 0 LINE",
"367 0 LINE"
);
}
);
width = 1492;
},
{
anchors = (
{
name = bottom;
position = "{474, 0}";
},
{
name = top;
position = "{788, 1475}";
}
);
layerId = "2503C51C-5A6C-4B2C-A968-78FEA18C2585";
paths = (
{
closed = 1;
nodes = (
"387 1456 LINE",
"385 1454 LINE",
"826 0 LINE",
"876 0 LINE",
"1190 1475 LINE",
"1160 1475 LINE",
"850 17 LINE",
"852 20 LINE",
"409 1475 LINE",
"361 1475 LINE",
"47 0 LINE",
"77 0 LINE"
);
}
);
width = 1149;
},
{
anchors = (
{
name = bottom;
position = "{648, 0}";
},
{
name = top;
position = "{648, 1475}";
}
);
associatedMasterId = "A1A0948C-E637-4A65-8CCC-05505AD98C44";
layerId = "14C02270-7490-4FB6-849C-FA9266540C34";
name = "Regular{0,400}";
paths = (
{
closed = 1;
nodes = (
"299 1382 LINE",
"283 1375 LINE",
"852 0 LINE",
"1149 0 LINE",
"1149 1475 LINE",
"979 1475 LINE",
"979 90 LINE",
"993 98 LINE",
"422 1475 LINE",
"129 1475 LINE",
"129 0 LINE",
"299 0 LINE"
);
}
);
width = 1278;
},
{
anchors = (
{
name = bottom;
position = "{547, 0}";
},
{
name = top;
position = "{861, 1475}";
}
);
associatedMasterId = "2503C51C-5A6C-4B2C-A968-78FEA18C2585";
layerId = "1E8F6C37-7555-47DC-A36F-C9BA52B65F47";
name = "Italic{1,400}";
paths = (
{
closed = 1;
nodes = (
"480 1382 LINE",
"463 1375 LINE",
"749 0 LINE",
"1036 0 LINE",
"1350 1475 LINE",
"1180 1475 LINE",
"885 90 LINE",
"901 98 LINE",
"613 1475 LINE",
"330 1475 LINE",
"16 0 LINE",
"186 0 LINE"
);
}
);
width = 1278;
}
);
leftKerningGroup = H;
leftMetricsKey = H;
note = N;
rightKerningGroup = H;
rightMetricsKey = H;
unicode = 004E;
},
{
glyphname = Eng;
lastChange = "2020-05-21 15:31:00 +0000";
layers = (
{
components = (
{
name = N;
}
);
layerId = "A1A0948C-E637-4A65-8CCC-05505AD98C44";
paths = (
{
closed = 1;
nodes = (
"958 -96 LINE SMOOTH",
"958 -224 OFFCURVE",
"935 -409 OFFCURVE",
"703 -409 CURVE SMOOTH",
"662 -409 OFFCURVE",
"623 -402 OFFCURVE",
"605 -396 CURVE",
"605 -424 LINE",
"621 -430 OFFCURVE",
"658 -437 OFFCURVE",
"703 -437 CURVE SMOOTH",
"953 -437 OFFCURVE",
"989 -255 OFFCURVE",
"989 -96 CURVE SMOOTH",
"989 0 LINE",
"958 31 LINE"
);
}
);
width = 1149;
},
{
components = (
{
name = N;
}
);
layerId = "584F9D0D-8480-40C6-ABEA-8DD6EE64252D";
paths = (
{
closed = 1;
nodes = (
"1017 -15 LINE SMOOTH",
"1017 -133 OFFCURVE",
"875 -149 OFFCURVE",
"758 -149 CURVE SMOOTH",
"719 -149 OFFCURVE",
"681 -142 OFFCURVE",
"663 -136 CURVE",
"663 -428 LINE",
"678 -431 OFFCURVE",
"714 -435 OFFCURVE",
"758 -435 CURVE SMOOTH",
"1322 -435 OFFCURVE",
"1415 -241 OFFCURVE",
"1415 -15 CURVE SMOOTH",
"1415 0 LINE",
"1017 44 LINE"
);
}
);
width = 1492;
},
{
components = (
{
name = N;
}
);
layerId = "3FDD6C00-F7FD-4E85-84B0-0136AF7D7529";
paths = (
{
closed = 1;
nodes = (
"902 0 LINE SMOOTH",
"870 -140 OFFCURVE",
"669 -157 OFFCURVE",
"594 -157 CURVE",
"554 -157 OFFCURVE",
"521 -155 OFFCURVE",
"508 -153 CURVE",
"469 -424 LINE",
"494 -429 OFFCURVE",
"543 -435 OFFCURVE",
"584 -435 CURVE SMOOTH",
"1067 -435 OFFCURVE",
"1238 -302 OFFCURVE",
"1295 -33 CURVE SMOOTH",
"1302 0 LINE",
"912 44 LINE"
);
}
);
width = 1492;
},
{
components = (
{
name = N;
}
);
layerId = "2503C51C-5A6C-4B2C-A968-78FEA18C2585";
paths = (
{
closed = 1;
nodes = (
"822 -96 LINE SMOOTH",
"793 -225 OFFCURVE",
"728 -409 OFFCURVE",
"503 -409 CURVE",
"463 -409 OFFCURVE",
"426 -403 OFFCURVE",
"409 -398 CURVE",
"406 -424 LINE",
"420 -430 OFFCURVE",
"454 -437 OFFCURVE",
"499 -437 CURVE",
"740 -437 OFFCURVE",
"821 -268 OFFCURVE",
"856 -98 CURVE SMOOTH",
"876 0 LINE",
"849 23 LINE"
);
}
);
width = 1150;
}
);
leftKerningGroup = H;
leftMetricsKey = H;
rightKerningGroup = H;
rightMetricsKey = H;
unicode = 014A;
},
{
glyphname = O;
lastChange = "2020-05-21 16:44:25 +0000";
layers = (
{
anchors = (
{
name = bottom;
position = "{649, -17}";
},
{
name = center;
position = "{649, 738}";
},
{
name = ogonek;
position = "{736, -5}";
},
{
name = top;
position = "{649, 1488}";
},
{
name = topleft;
position = "{73, 1475}";
},
{
name = topright;
position = "{1014, 1222}";
}
);
layerId = "A1A0948C-E637-4A65-8CCC-05505AD98C44";
paths = (
{
closed = 1;
nodes = (
"969 -17 OFFCURVE",
"1178 271 OFFCURVE",
"1178 739 CURVE SMOOTH",
"1178 1208 OFFCURVE",
"967 1488 OFFCURVE",
"649 1488 CURVE SMOOTH",
"332 1488 OFFCURVE",
"120 1208 OFFCURVE",
"120 739 CURVE SMOOTH",
"120 271 OFFCURVE",
"328 -17 OFFCURVE",
"649 -17 CURVE SMOOTH"
);
},
{
closed = 1;
nodes = (
"348 11 OFFCURVE",
"151 299 OFFCURVE",
"151 739 CURVE SMOOTH",
"151 1179 OFFCURVE",
"348 1460 OFFCURVE",
"649 1460 CURVE SMOOTH",
"950 1460 OFFCURVE",
"1147 1179 OFFCURVE",
"1147 739 CURVE SMOOTH",
"1147 300 OFFCURVE",
"953 11 OFFCURVE",
"649 11 CURVE SMOOTH"
);
}
);
width = 1298;
},
{
anchors = (
{
name = bottom;
position = "{762, -26}";
},
{
name = center;
position = "{762, 738}";
},
{
name = ogonek;
position = "{878, 15}";
},
{
name = top;
position = "{762, 1500}";
},
{
name = topleft;
position = "{60, 1475}";
},
{
name = topright;
position = "{1210, 1062}";
}
);
layerId = "584F9D0D-8480-40C6-ABEA-8DD6EE64252D";
paths = (
{
closed = 1;
nodes = (
"1141 -26 OFFCURVE",
"1454 239 OFFCURVE",
"1454 739 CURVE SMOOTH",
"1454 1239 OFFCURVE",
"1149 1500 OFFCURVE",
"762 1500 CURVE SMOOTH",
"376 1500 OFFCURVE",
"70 1239 OFFCURVE",
"70 739 CURVE SMOOTH",
"70 239 OFFCURVE",
"381 -26 OFFCURVE",
"762 -26 CURVE SMOOTH"
);
},
{
closed = 1;
nodes = (
"615 286 OFFCURVE",
"480 389 OFFCURVE",
"480 739 CURVE SMOOTH",
"480 1089 OFFCURVE",
"615 1188 OFFCURVE",
"762 1188 CURVE SMOOTH",
"909 1188 OFFCURVE",
"1044 1089 OFFCURVE",
"1044 739 CURVE SMOOTH",
"1044 390 OFFCURVE",
"910 286 OFFCURVE",
"762 286 CURVE SMOOTH"
);
}
);
width = 1524;
},
{
anchors = (
{
name = bottom;
position = "{666, -26}";
},
{
name = center;
position = "{803, 738}";
},
{
name = ogonek;
position = "{782, 15}";
},
{
name = top;
position = "{950, 1500}";
},
{
name = topleft;
position = "{258, 1475}";
},
{
name = topright;
position = "{1293, 1062}";
}
);
layerId = "3FDD6C00-F7FD-4E85-84B0-0136AF7D7529";
paths = (
{
closed = 1;
nodes = (
"1183 -26 OFFCURVE",
"1511 388 OFFCURVE",
"1511 904 CURVE SMOOTH",
"1511 1287 OFFCURVE",
"1277 1500 OFFCURVE",
"936 1500 CURVE SMOOTH",
"426 1500 OFFCURVE",
"101 1095 OFFCURVE",
"101 578 CURVE SMOOTH",
"101 191 OFFCURVE",
"339 -26 OFFCURVE",
"676 -26 CURVE SMOOTH"
);
},
{
closed = 1;
nodes = (
"591 286 OFFCURVE",
"509 354 OFFCURVE",
"509 565 CURVE SMOOTH",
"509 854 OFFCURVE",
"614 1188 OFFCURVE",
"902 1188 CURVE SMOOTH",
"1021 1188 OFFCURVE",
"1103 1123 OFFCURVE",
"1103 913 CURVE SMOOTH",
"1103 626 OFFCURVE",
"995 286 OFFCURVE",
"710 286 CURVE SMOOTH"
);
}
);
width = 1524;
},
{
anchors = (
{
name = bottom;
position = "{539, -17}";
},
{
name = center;
position = "{691, 738}";
},
{
name = ogonek;
position = "{626, -5}";
},
{
name = top;
position = "{853, 1488}";
},
{
name = topleft;
position = "{272, 1475}";
},
{
name = topright;
position = "{1158, 1222}";
}
);
layerId = "2503C51C-5A6C-4B2C-A968-78FEA18C2585";
paths = (
{
closed = 1;
nodes = (
"981 -17 OFFCURVE",
"1241 493 OFFCURVE",
"1241 987 CURVE SMOOTH",
"1241 1304 OFFCURVE",
"1108 1488 OFFCURVE",
"847 1488 CURVE SMOOTH",
"404 1488 OFFCURVE",
"144 982 OFFCURVE",
"144 489 CURVE SMOOTH",
"144 173 OFFCURVE",
"276 -17 OFFCURVE",
"539 -17 CURVE SMOOTH"
);
},
{
closed = 1;
nodes = (
"295 11 OFFCURVE",
"176 199 OFFCURVE",
"176 495 CURVE SMOOTH",
"176 961 OFFCURVE",
"427 1460 OFFCURVE",
"847 1460 CURVE SMOOTH",
"1091 1460 OFFCURVE",
"1210 1278 OFFCURVE",
"1210 982 CURVE SMOOTH",
"1210 515 OFFCURVE",
"959 11 OFFCURVE",
"539 11 CURVE SMOOTH"
);
}
);
width = 1298;
}
);
leftKerningGroup = O;
note = O;
rightKerningGroup = O;
unicode = 004F;
},
{
glyphname = P;
lastChange = "2020-05-20 16:26:37 +0000";
layers = (
{
anchors = (
{
name = bottom;
position = "{560, 0}";
},
{
name = top;
position = "{560, 1475}";
}
);
layerId = "A1A0948C-E637-4A65-8CCC-05505AD98C44";
paths = (
{
closed = 1;
nodes = (
"190 574 LINE",
"483 574 LINE SMOOTH",
"816 574 OFFCURVE",
"963 780 OFFCURVE",
"963 1025 CURVE SMOOTH",
"963 1270 OFFCURVE",
"827 1475 OFFCURVE",
"483 1475 CURVE SMOOTH",
"160 1475 LINE",
"160 0 LINE",
"190 0 LINE"
);
},
{
closed = 1;
nodes = (
"190 1447 LINE",
"474 1447 LINE SMOOTH",
"809 1447 OFFCURVE",
"932 1259 OFFCURVE",
"932 1025 CURVE SMOOTH",
"932 791 OFFCURVE",
"798 602 OFFCURVE",
"474 602 CURVE SMOOTH",
"190 602 LINE"
);
}
);
width = 1097;
},
{
anchors = (
{
name = bottom;
position = "{618, 0}";
},
{
name = top;
position = "{618, 1475}";
}
);
layerId = "584F9D0D-8480-40C6-ABEA-8DD6EE64252D";
paths = (
{
closed = 1;
nodes = (
"481 444 LINE",
"642 444 LINE SMOOTH",
"977 444 OFFCURVE",
"1198 677 OFFCURVE",
"1198 967 CURVE SMOOTH",
"1198 1257 OFFCURVE",
"977 1475 OFFCURVE",
"642 1475 CURVE SMOOTH",
"77 1475 LINE",
"77 0 LINE",
"481 0 LINE"
);
},
{
closed = 1;
nodes = (
"481 1175 LINE",
"601 1175 LINE SMOOTH",
"700 1175 OFFCURVE",
"792 1117 OFFCURVE",
"792 967 CURVE SMOOTH",
"792 817 OFFCURVE",
"700 743 OFFCURVE",
"601 743 CURVE SMOOTH",
"481 743 LINE"
);
}
);
width = 1262;
},
{
anchors = (
{
name = bottom;
position = "{502, 0}";
},
{
name = top;
position = "{816, 1475}";
}
);
layerId = "3FDD6C00-F7FD-4E85-84B0-0136AF7D7529";
paths = (
{
closed = 1;
nodes = (
"463 444 LINE",
"624 444 LINE SMOOTH",
"982 444 OFFCURVE",
"1294 692 OFFCURVE",
"1294 1047 CURVE SMOOTH",
"1294 1281 OFFCURVE",
"1152 1475 OFFCURVE",
"843 1475 CURVE SMOOTH",
"278 1475 LINE",
"-36 0 LINE",
"368 0 LINE"
);
},
{
closed = 1;
nodes = (
"618 1175 LINE",
"738 1175 LINE SMOOTH",
"830 1175 OFFCURVE",
"886 1116 OFFCURVE",
"886 1010 CURVE SMOOTH",
"886 859 OFFCURVE",
"794 743 OFFCURVE",
"646 743 CURVE SMOOTH",
"526 743 LINE"
);
}
);
width = 1269;
},
{
anchors = (
{
name = bottom;
position = "{444, 0}";
},
{
name = top;
position = "{758, 1475}";
}
);
layerId = "2503C51C-5A6C-4B2C-A968-78FEA18C2585";
paths = (
{
closed = 1;
nodes = (
"199 574 LINE",
"495 574 LINE SMOOTH",
"835 574 OFFCURVE",
"1075 807 OFFCURVE",
"1075 1139 CURVE SMOOTH",
"1075 1321 OFFCURVE",
"976 1475 OFFCURVE",
"677 1475 CURVE SMOOTH",
"361 1475 LINE",
"47 0 LINE",
"77 0 LINE"
);
},
{
closed = 1;
nodes = (
"385 1447 LINE",
"669 1447 LINE SMOOTH",
"954 1447 OFFCURVE",
"1045 1312 OFFCURVE",
"1045 1145 CURVE SMOOTH",
"1045 824 OFFCURVE",
"822 602 OFFCURVE",
"489 602 CURVE SMOOTH",
"205 602 LINE"
);
}
);
width = 1101;
}
);
leftKerningGroup = H;
leftMetricsKey = H;
note = P;
rightKerningGroup = P;
unicode = 0050;
},
{
glyphname = Thorn;
lastChange = "2020-05-20 16:30:11 +0000";
layers = (
{
layerId = "A1A0948C-E637-4A65-8CCC-05505AD98C44";
paths = (
{
closed = 1;
nodes = (
"190 0 LINE",
"190 315 LINE",
"461 315 LINE SMOOTH",
"709 315 OFFCURVE",
"900 461 OFFCURVE",
"900 729 CURVE SMOOTH",
"900 992 OFFCURVE",
"714 1143 OFFCURVE",
"461 1143 CURVE SMOOTH",
"190 1143 LINE",
"190 1473 LINE",
"160 1473 LINE",
"160 0 LINE"
);
},
{
closed = 1;
nodes = (
"190 1115 LINE",
"461 1115 LINE SMOOTH",
"691 1115 OFFCURVE",
"870 975 OFFCURVE",
"870 729 CURVE SMOOTH",
"870 485 OFFCURVE",
"692 343 OFFCURVE",
"461 343 CURVE SMOOTH",
"190 343 LINE"
);
}
);
width = 1020;
},
{
layerId = "584F9D0D-8480-40C6-ABEA-8DD6EE64252D";
paths = (
{
closed = 1;
nodes = (
"480 0 LINE",
"480 305 LINE",
"647 305 LINE SMOOTH",
"944 305 OFFCURVE",
"1147 444 OFFCURVE",
"1147 728 CURVE SMOOTH",
"1147 1012 OFFCURVE",
"947 1153 OFFCURVE",
"647 1153 CURVE SMOOTH",
"480 1153 LINE",
"480 1473 LINE",
"77 1473 LINE",
"77 0 LINE"
);
},
{
closed = 1;
nodes = (
"480 852 LINE",
"605 852 LINE SMOOTH",
"689 852 OFFCURVE",
"746 810 OFFCURVE",
"746 729 CURVE SMOOTH",
"746 651 OFFCURVE",
"691 605 OFFCURVE",
"605 605 CURVE SMOOTH",
"480 605 LINE"
);
}
);
width = 1217;
},
{
layerId = "3FDD6C00-F7FD-4E85-84B0-0136AF7D7529";
paths = (
{
closed = 1;
nodes = (
"367 0 LINE",
"432 305 LINE",
"599 305 LINE SMOOTH",
"939 305 OFFCURVE",
"1196 480 OFFCURVE",
"1196 815 CURVE SMOOTH",
"1196 1041 OFFCURVE",
"1047 1153 OFFCURVE",
"780 1153 CURVE SMOOTH",
"613 1153 LINE",
"681 1473 LINE",
"278 1473 LINE",
"-36 0 LINE"
);
},
{
closed = 1;
nodes = (
"549 852 LINE",
"674 852 LINE SMOOTH",
"750 852 OFFCURVE",
"790 818 OFFCURVE",
"790 752 CURVE SMOOTH",
"790 659 OFFCURVE",
"715 605 OFFCURVE",
"621 605 CURVE SMOOTH",
"496 605 LINE"
);
}
);
width = 1215;
},
{
layerId = "2503C51C-5A6C-4B2C-A968-78FEA18C2585";
paths = (
{
closed = 1;
nodes = (
"77 0 LINE",
"144 315 LINE",
"418 315 LINE SMOOTH",
"713 315 OFFCURVE",
"944 517 OFFCURVE",
"944 818 CURVE SMOOTH",
"944 1022 OFFCURVE",
"819 1143 OFFCURVE",
"584 1143 CURVE SMOOTH",
"320 1143 LINE",
"391 1473 LINE",
"361 1473 LINE",
"47 0 LINE"
);
},
{
closed = 1;
nodes = (
"314 1115 LINE",
"585 1115 LINE SMOOTH",
"796 1115 OFFCURVE",
"915 1005 OFFCURVE",
"915 820 CURVE SMOOTH",
"915 542 OFFCURVE",
"698 343 OFFCURVE",
"421 343 CURVE SMOOTH",
"150 343 LINE"
);
}
);
width = 1017;
}
);
leftKerningGroup = H;
leftMetricsKey = H;
note = Thorn;
rightKerningGroup = D;
rightMetricsKey = D;
unicode = 00DE;
},
{
glyphname = Q;
lastChange = "2020-05-21 15:27:40 +0000";
layers = (
{
anchors = (
{
name = bottom;
position = "{649, -17}";
},
{
name = top;
position = "{647, 1487}";
}
);
components = (
{
name = O;
}
);
layerId = "A1A0948C-E637-4A65-8CCC-05505AD98C44";
paths = (
{
closed = 1;
nodes = (
"630 -232 OFFCURVE",
"883 -307 OFFCURVE",
"950 -323 CURVE",
"966 -296 LINE",
"907 -283 OFFCURVE",
"664 -207 OFFCURVE",
"664 -10 CURVE",
"630 -10 LINE"
);
}
);
width = 1298;
},
{
anchors = (
{
name = bottom;
position = "{762, -26}";
},
{
name = top;
position = "{762, 1500}";
}
);
components = (
{
name = O;
}
);
layerId = "584F9D0D-8480-40C6-ABEA-8DD6EE64252D";
paths = (
{
closed = 1;
nodes = (
"598 -343 OFFCURVE",
"1030 -378 OFFCURVE",
"1076 -378 CURVE",
"1188 -111 LINE",
"1148 -107 OFFCURVE",
"938 -85 OFFCURVE",
"938 22 CURVE",
"598 22 LINE"
);
}
);
width = 1524;
},
{
anchors = (
{
name = bottom;
position = "{645, -25}";
},
{
name = top;
position = "{966, 1500}";
}
);
components = (
{
name = O;
}
);
layerId = "3FDD6C00-F7FD-4E85-84B0-0136AF7D7529";
paths = (
{
closed = 1;
nodes = (
"480 -360 OFFCURVE",
"824 -378 OFFCURVE",
"877 -378 CURVE",
"1037 -111 LINE",
"998 -107 OFFCURVE",
"821 -84 OFFCURVE",
"821 22 CURVE",
"480 22 LINE"
);
}
);
width = 1524;
},
{
anchors = (
{
name = bottom;
position = "{532, -17}";
},
{
name = top;
position = "{853, 1487}";
}
);
components = (
{
name = O;
}
);
layerId = "2503C51C-5A6C-4B2C-A968-78FEA18C2585";
paths = (
{
closed = 1;
nodes = (
"513 -235 OFFCURVE",
"709 -298 OFFCURVE",
"769 -313 CURVE",
"787 -285 LINE",
"723 -272 OFFCURVE",
"548 -209 OFFCURVE",
"548 -2 CURVE",
"513 2 LINE"
);
}
);
width = 1298;
}
);
leftKerningGroup = O;
leftMetricsKey = O;
note = Q;
rightKerningGroup = O;
rightMetricsKey = O;
unicode = 0051;
},
{
glyphname = R;
lastChange = "2020-05-21 17:06:39 +0000";
layers = (
{
anchors = (
{
name = bottom;
position = "{572, 0}";
},
{
name = top;
position = "{572, 1475}";
}
);
layerId = "A1A0948C-E637-4A65-8CCC-05505AD98C44";
paths = (
{
closed = 1;
nodes = (
"190 0 LINE",
"190 700 LINE",
"597 700 LINE SMOOTH",
"766 700 OFFCURVE",
"881 636 OFFCURVE",
"881 476 CURVE SMOOTH",
"881 354 OFFCURVE",
"881 213 OFFCURVE",
"881 91 CURVE SMOOTH",
"881 40 OFFCURVE",
"892 7 OFFCURVE",
"896 0 CURVE",
"928 0 LINE",
"924 7 OFFCURVE",
"912 41 OFFCURVE",
"912 91 CURVE SMOOTH",
"912 216 OFFCURVE",
"912 358 OFFCURVE",
"912 483 CURVE SMOOTH",
"912 646 OFFCURVE",
"787 707 OFFCURVE",
"693 716 CURVE",
"787 729 OFFCURVE",
"955 862 OFFCURVE",
"955 1106 CURVE SMOOTH",
"955 1367 OFFCURVE",
"819 1475 OFFCURVE",
"587 1475 CURVE SMOOTH",
"160 1475 LINE",
"160 0 LINE"
);
},
{
closed = 1;
nodes = (
"190 1447 LINE",
"580 1447 LINE SMOOTH",
"805 1447 OFFCURVE",
"924 1347 OFFCURVE",
"924 1106 CURVE SMOOTH",
"924 872 OFFCURVE",
"771 728 OFFCURVE",
"597 728 CURVE SMOOTH",
"190 728 LINE"
);
}
);
width = 1105;
},
{
anchors = (
{
name = bottom;
position = "{656, 0}";
},
{
name = top;
position = "{656, 1475}";
}
);
layerId = "584F9D0D-8480-40C6-ABEA-8DD6EE64252D";
paths = (
{
closed = 1;
nodes = (
"481 0 LINE",
"481 541 LINE",
"634 541 LINE SMOOTH",
"752 541 OFFCURVE",
"791 475 OFFCURVE",
"791 368 CURVE SMOOTH",
"791 295 OFFCURVE",
"791 243 OFFCURVE",
"791 170 CURVE SMOOTH",
"791 99 OFFCURVE",
"802 33 OFFCURVE",
"824 0 CURVE",
"1228 0 LINE",
"1204 29 OFFCURVE",
"1193 99 OFFCURVE",
"1193 170 CURVE SMOOTH",
"1193 255 OFFCURVE",
"1193 329 OFFCURVE",
"1193 414 CURVE SMOOTH",
"1193 616 OFFCURVE",
"1076 684 OFFCURVE",
"947 692 CURVE",
"1073 702 OFFCURVE",
"1224 829 OFFCURVE",
"1224 1053 CURVE SMOOTH",
"1224 1318 OFFCURVE",
"1067 1475 OFFCURVE",
"731 1475 CURVE SMOOTH",
"77 1475 LINE",
"77 0 LINE"
);
},
{
closed = 1;
nodes = (
"481 1176 LINE",
"636 1176 LINE SMOOTH",
"743 1176 OFFCURVE",
"809 1101 OFFCURVE",
"809 1015 CURVE SMOOTH",
"809 908 OFFCURVE",
"740 841 OFFCURVE",
"638 841 CURVE SMOOTH",
"481 841 LINE"
);
}
);
width = 1298;
},
{
anchors = (
{
name = bottom;
position = "{540, 0}";
},
{
name = top;
position = "{854, 1475}";
}
);
layerId = "3FDD6C00-F7FD-4E85-84B0-0136AF7D7529";
paths = (
{
closed = 1;
nodes = (
"368 0 LINE",
"483 541 LINE",
"636 541 LINE SMOOTH",
"728 541 OFFCURVE",
"764 501 OFFCURVE",
"764 432 CURVE SMOOTH",
"764 340 OFFCURVE",
"701 165 OFFCURVE",
"701 62 CURVE SMOOTH",
"701 36 OFFCURVE",
"704 15 OFFCURVE",
"711 0 CURVE",
"1115 0 LINE",
"1107 13 OFFCURVE",
"1103 36 OFFCURVE",
"1103 63 CURVE SMOOTH",
"1103 174 OFFCURVE",
"1178 391 OFFCURVE",
"1178 500 CURVE SMOOTH",
"1178 636 OFFCURVE",
"1089 685 OFFCURVE",
"981 692 CURVE",
"1187 708 OFFCURVE",
"1342 938 OFFCURVE",
"1342 1156 CURVE SMOOTH",
"1342 1346 OFFCURVE",
"1227 1475 OFFCURVE",
"932 1475 CURVE SMOOTH",
"278 1475 LINE",
"-36 0 LINE"
);
},
{
closed = 1;
nodes = (
"618 1176 LINE",
"773 1176 LINE SMOOTH",
"871 1176 OFFCURVE",
"913 1113 OFFCURVE",
"913 1036 CURVE SMOOTH",
"913 914 OFFCURVE",
"812 841 OFFCURVE",
"704 841 CURVE SMOOTH",
"547 841 LINE"
);
}
);
width = 1298;
},
{
anchors = (
{
name = bottom;
position = "{456, 0}";
},
{
name = top;
position = "{770, 1475}";
}
);
layerId = "2503C51C-5A6C-4B2C-A968-78FEA18C2585";
paths = (
{
closed = 1;
nodes = (
"77 0 LINE",
"226 700 LINE",
"633 700 LINE SMOOTH",
"780 700 OFFCURVE",
"876 655 OFFCURVE",
"876 535 CURVE SMOOTH",
"876 454 OFFCURVE",
"781 105 OFFCURVE",
"781 27 CURVE SMOOTH",
"781 13 OFFCURVE",
"782 3 OFFCURVE",
"783 0 CURVE",
"815 0 LINE",
"814 4 OFFCURVE",
"812 15 OFFCURVE",
"812 31 CURVE SMOOTH",
"812 115 OFFCURVE",
"909 463 OFFCURVE",
"909 541 CURVE SMOOTH",
"909 661 OFFCURVE",
"813 708 OFFCURVE",
"732 716 CURVE",
"934 740 OFFCURVE",
"1083 993 OFFCURVE",
"1083 1200 CURVE SMOOTH",
"1083 1369 OFFCURVE",
"985 1475 OFFCURVE",
"781 1475 CURVE SMOOTH",
"361 1475 LINE",
"47 0 LINE"
);
},
{
closed = 1;
nodes = (
"385 1447 LINE",
"775 1447 LINE SMOOTH",
"970 1447 OFFCURVE",
"1052 1349 OFFCURVE",
"1052 1199 CURVE SMOOTH",
"1052 956 OFFCURVE",
"874 728 OFFCURVE",
"639 728 CURVE SMOOTH",
"232 728 LINE"
);
}
);
width = 1105;
}
);
leftKerningGroup = H;
leftMetricsKey = H;
note = R;
rightKerningGroup = R;
unicode = 0052;
},
{
glyphname = R.ss01;
lastChange = "2020-05-20 16:26:37 +0000";
layers = (
{
layerId = "A1A0948C-E637-4A65-8CCC-05505AD98C44";
paths = (
{
closed = 1;
nodes = (
"160 1475 LINE",
"160 0 LINE",
"190 0 LINE",
"190 679 LINE",
"652 679 LINE",
"820 679 OFFCURVE",
"986 821 OFFCURVE",
"986 1082 CURVE SMOOTH",
"986 1343 OFFCURVE",
"829 1475 OFFCURVE",
"597 1475 CURVE SMOOTH"
);
},
{
closed = 1;
nodes = (
"190 708 LINE",
"190 1447 LINE",
"580 1447 LINE SMOOTH",
"805 1447 OFFCURVE",
"955 1327 OFFCURVE",
"955 1082 CURVE SMOOTH",
"955 837 OFFCURVE",
"794 708 OFFCURVE",
"652 708 CURVE SMOOTH"
);
},
{
closed = 1;
nodes = (
"915 0 LINE",
"949 0 LINE",
"679 696 LINE",
"647 696 LINE"
);
}
);
width = 1135;
},
{
layerId = "584F9D0D-8480-40C6-ABEA-8DD6EE64252D";
paths = (
{
closed = 1;
nodes = (
"77 1475 LINE",
"77 0 LINE",
"481 0 LINE",
"481 562 LINE",
"639 562 LINE SMOOTH",
"956 562 OFFCURVE",
"1208 663 OFFCURVE",
"1208 1043 CURVE SMOOTH",
"1208 1308 OFFCURVE",
"1067 1475 OFFCURVE",
"731 1475 CURVE SMOOTH"
);
},
{
closed = 1;
nodes = (
"481 852 LINE",
"481 1185 LINE",
"636 1185 LINE SMOOTH",
"743 1185 OFFCURVE",
"792 1113 OFFCURVE",
"792 1027 CURVE SMOOTH",
"792 920 OFFCURVE",
"742 852 OFFCURVE",
"643 852 CURVE SMOOTH"
);
},
{
closed = 1;
nodes = (
"797 0 LINE",
"1209 0 LINE",
"938 693 LINE",
"569 693 LINE"
);
}
);
width = 1322;
},
{
layerId = "3FDD6C00-F7FD-4E85-84B0-0136AF7D7529";
paths = (
{
closed = 1;
nodes = (
"278 1475 LINE",
"-36 0 LINE",
"368 0 LINE",
"488 562 LINE",
"666 562 LINE SMOOTH",
"1067 562 OFFCURVE",
"1327 755 OFFCURVE",
"1327 1145 CURVE SMOOTH",
"1327 1344 OFFCURVE",
"1201 1475 OFFCURVE",
"912 1475 CURVE SMOOTH"
);
},
{
closed = 1;
nodes = (
"549 852 LINE",
"620 1185 LINE",
"775 1185 LINE SMOOTH",
"864 1185 OFFCURVE",
"903 1135 OFFCURVE",
"903 1069 CURVE SMOOTH",
"903 957 OFFCURVE",
"827 852 OFFCURVE",
"711 852 CURVE SMOOTH"
);
},
{
closed = 1;
nodes = (
"684 0 LINE",
"1096 0 LINE",
"973 693 LINE",
"604 693 LINE"
);
}
);
width = 1327;
},
{
layerId = "2503C51C-5A6C-4B2C-A968-78FEA18C2585";
paths = (
{
closed = 1;
nodes = (
"361 1475 LINE",
"47 0 LINE",
"78 0 LINE",
"223 679 LINE",
"688 679 LINE",
"933 679 OFFCURVE",
"1109 920 OFFCURVE",
"1109 1177 CURVE SMOOTH",
"1109 1370 OFFCURVE",
"998 1475 OFFCURVE",
"791 1475 CURVE SMOOTH"
);
},
{
closed = 1;
nodes = (
"229 708 LINE",
"386 1447 LINE",
"776 1447 LINE SMOOTH",
"976 1447 OFFCURVE",
"1078 1352 OFFCURVE",
"1078 1174 CURVE SMOOTH",
"1078 943 OFFCURVE",
"916 708 OFFCURVE",
"691 708 CURVE SMOOTH"
);
},
{
closed = 1;
nodes = (
"803 0 LINE",
"835 0 LINE",
"713 696 LINE",
"683 696 LINE"
);
}
);
width = 1143;
}
);
leftKerningGroup = H;
leftMetricsKey = H;
note = R;
rightKerningGroup = R;
},
{
glyphname = S;
lastChange = "2020-05-21 16:51:48 +0000";
layers = (
{
anchors = (
{
name = bottom;
position = "{562, -13}";
},
{
name = top;
position = "{557, 1488}";
}
);
layerId = "A1A0948C-E637-4A65-8CCC-05505AD98C44";
paths = (
{
closed = 1;
nodes = (
"844 -17 OFFCURVE",
"989 120 OFFCURVE",
"989 347 CURVE SMOOTH",
"989 579 OFFCURVE",
"844 674 OFFCURVE",
"585 761 CURVE SMOOTH",
"349 840 OFFCURVE",
"174 934 OFFCURVE",
"174 1155 CURVE SMOOTH",
"174 1353 OFFCURVE",
"311 1460 OFFCURVE",
"549 1460 CURVE SMOOTH",
"800 1460 OFFCURVE",
"947 1350 OFFCURVE",
"947 1091 CURVE SMOOTH",
"947 1054 OFFCURVE",
"947 1027 OFFCURVE",
"947 990 CURVE",
"978 990 LINE",
"978 1027 OFFCURVE",
"978 1054 OFFCURVE",
"978 1091 CURVE SMOOTH",
"978 1364 OFFCURVE",
"823 1488 OFFCURVE",
"548 1488 CURVE SMOOTH",
"292 1488 OFFCURVE",
"142 1375 OFFCURVE",
"142 1155 CURVE SMOOTH",
"142 923 OFFCURVE",
"312 824 OFFCURVE",
"580 731 CURVE SMOOTH",
"812 651 OFFCURVE",
"957 565 OFFCURVE",
"957 345 CURVE SMOOTH",
"957 133 OFFCURVE",
"825 11 OFFCURVE",
"557 11 CURVE SMOOTH",
"302 11 OFFCURVE",
"161 135 OFFCURVE",
"161 405 CURVE SMOOTH",
"161 438 OFFCURVE",
"161 451 OFFCURVE",
"161 484 CURVE",
"130 484 LINE",
"130 451 OFFCURVE",
"130 438 OFFCURVE",
"130 405 CURVE SMOOTH",
"130 122 OFFCURVE",
"270 -17 OFFCURVE",
"562 -17 CURVE"
);
}
);
width = 1187;
},
{
anchors = (
{
name = bottom;
position = "{667, -18}";
},
{
name = top;
position = "{669, 1500}";
}
);
layerId = "584F9D0D-8480-40C6-ABEA-8DD6EE64252D";
paths = (
{
closed = 1;
nodes = (
"1001 -26 OFFCURVE",
"1246 127 OFFCURVE",
"1246 406 CURVE SMOOTH",
"1246 672 OFFCURVE",
"1064 775 OFFCURVE",
"797 859 CURVE SMOOTH",
"616 916 OFFCURVE",
"487 969 OFFCURVE",
"487 1065 CURVE SMOOTH",
"487 1146 OFFCURVE",
"553 1190 OFFCURVE",
"670 1190 CURVE SMOOTH",
"788 1190 OFFCURVE",
"832 1121 OFFCURVE",
"832 1035 CURVE SMOOTH",
"832 1028 OFFCURVE",
"832 1011 OFFCURVE",
"832 1004 CURVE",
"1235 1004 LINE",
"1235 1021 OFFCURVE",
"1235 1037 OFFCURVE",
"1235 1054 CURVE SMOOTH",
"1235 1325 OFFCURVE",
"990 1500 OFFCURVE",
"665 1500 CURVE SMOOTH",
"350 1500 OFFCURVE",
"99 1337 OFFCURVE",
"99 1064 CURVE SMOOTH",
"99 798 OFFCURVE",
"300 663 OFFCURVE",
"508 597 CURVE SMOOTH",
"700 536 OFFCURVE",
"854 480 OFFCURVE",
"854 394 CURVE SMOOTH",
"854 317 OFFCURVE",
"784 285 OFFCURVE",
"669 285 CURVE SMOOTH",
"550 285 OFFCURVE",
"493 355 OFFCURVE",
"493 449 CURVE SMOOTH",
"493 464 OFFCURVE",
"493 478 OFFCURVE",
"493 493 CURVE",
"90 493 LINE",
"90 476 OFFCURVE",
"90 458 OFFCURVE",
"90 441 CURVE SMOOTH",
"90 142 OFFCURVE",
"337 -26 OFFCURVE",
"665 -26 CURVE"
);
}
);
width = 1336;
},
{
anchors = (
{
name = bottom;
position = "{579, -18}";
},
{
name = top;
position = "{867, 1500}";
}
);
layerId = "3FDD6C00-F7FD-4E85-84B0-0136AF7D7529";
paths = (
{
closed = 1;
nodes = (
"937 -26 OFFCURVE",
"1237 154 OFFCURVE",
"1237 481 CURVE SMOOTH",
"1237 688 OFFCURVE",
"1080 786 OFFCURVE",
"863 859 CURVE SMOOTH",
"708 911 OFFCURVE",
"604 960 OFFCURVE",
"604 1042 CURVE SMOOTH",
"604 1139 OFFCURVE",
"698 1190 OFFCURVE",
"816 1190 CURVE SMOOTH",
"913 1190 OFFCURVE",
"950 1144 OFFCURVE",
"950 1080 CURVE SMOOTH",
"950 1050 OFFCURVE",
"942 1016 OFFCURVE",
"939 1004 CURVE",
"1342 1004 LINE",
"1350 1029 OFFCURVE",
"1361 1085 OFFCURVE",
"1361 1139 CURVE SMOOTH",
"1361 1361 OFFCURVE",
"1147 1500 OFFCURVE",
"857 1500 CURVE SMOOTH",
"510 1500 OFFCURVE",
"208 1294 OFFCURVE",
"208 969 CURVE SMOOTH",
"208 765 OFFCURVE",
"390 655 OFFCURVE",
"558 597 CURVE SMOOTH",
"716 543 OFFCURVE",
"833 487 OFFCURVE",
"833 409 CURVE SMOOTH",
"833 321 OFFCURVE",
"735 285 OFFCURVE",
"623 285 CURVE SMOOTH",
"523 285 OFFCURVE",
"477 335 OFFCURVE",
"477 406 CURVE SMOOTH",
"477 428 OFFCURVE",
"482 460 OFFCURVE",
"491 493 CURVE",
"88 493 LINE",
"76 449 OFFCURVE",
"67 409 OFFCURVE",
"67 346 CURVE SMOOTH",
"67 107 OFFCURVE",
"292 -26 OFFCURVE",
"573 -26 CURVE"
);
}
);
width = 1336;
},
{
anchors = (
{
name = bottom;
position = "{448, -13}";
},
{
name = top;
position = "{752, 1488}";
}
);
layerId = "2503C51C-5A6C-4B2C-A968-78FEA18C2585";
paths = (
{
closed = 1;
nodes = (
"746 -17 OFFCURVE",
"957 142 OFFCURVE",
"957 419 CURVE SMOOTH",
"957 586 OFFCURVE",
"844 686 OFFCURVE",
"634 761 CURVE SMOOTH",
"434 833 OFFCURVE",
"304 924 OFFCURVE",
"304 1099 CURVE SMOOTH",
"304 1334 OFFCURVE",
"492 1460 OFFCURVE",
"748 1460 CURVE SMOOTH",
"959 1460 OFFCURVE",
"1080 1383 OFFCURVE",
"1080 1203 CURVE SMOOTH",
"1080 1145 OFFCURVE",
"1066 1081 OFFCURVE",
"1046 990 CURVE",
"1077 990 LINE",
"1097 1078 OFFCURVE",
"1111 1146 OFFCURVE",
"1111 1207 CURVE SMOOTH",
"1111 1400 OFFCURVE",
"980 1488 OFFCURVE",
"748 1488 CURVE SMOOTH",
"472 1488 OFFCURVE",
"272 1354 OFFCURVE",
"272 1094 CURVE SMOOTH",
"272 910 OFFCURVE",
"403 813 OFFCURVE",
"626 731 CURVE SMOOTH",
"815 662 OFFCURVE",
"925 571 OFFCURVE",
"925 415 CURVE SMOOTH",
"925 158 OFFCURVE",
"728 11 OFFCURVE",
"448 11 CURVE SMOOTH",
"236 11 OFFCURVE",
"121 97 OFFCURVE",
"121 281 CURVE SMOOTH",
"121 343 OFFCURVE",
"130 392 OFFCURVE",
"152 484 CURVE",
"121 484 LINE",
"100 394 OFFCURVE",
"89 341 OFFCURVE",
"89 275 CURVE SMOOTH",
"89 80 OFFCURVE",
"213 -17 OFFCURVE",
"452 -17 CURVE"
);
}
);
width = 1187;
}
);
leftKerningGroup = S;
note = S;
rightKerningGroup = S;
unicode = 0053;
},
{
glyphname = Germandbls;
lastChange = "2020-05-21 00:40:03 +0000";
layers = (
{
layerId = "A1A0948C-E637-4A65-8CCC-05505AD98C44";
paths = (
{
closed = 1;
nodes = (
"190 0 LINE",
"190 1133 LINE",
"190 1340 OFFCURVE",
"291 1447 OFFCURVE",
"487 1447 CURVE",
"870 1447 LINE",
"447 894 LINE",
"480 863 LINE",
"508 869 OFFCURVE",
"537 872 OFFCURVE",
"566 872 CURVE SMOOTH",
"766 872 OFFCURVE",
"954 720 OFFCURVE",
"954 449 CURVE SMOOTH",
"954 139 OFFCURVE",
"771 15 OFFCURVE",
"540 15 CURVE SMOOTH",
"473 15 OFFCURVE",
"398 36 OFFCURVE",
"374 47 CURVE",
"360 17 LINE",
"389 5 OFFCURVE",
"462 -13 OFFCURVE",
"542 -13 CURVE SMOOTH",
"801 -13 OFFCURVE",
"986 129 OFFCURVE",
"986 449 CURVE SMOOTH",
"986 732 OFFCURVE",
"794 900 OFFCURVE",
"570 900 CURVE SMOOTH",
"541 900 OFFCURVE",
"512 897 OFFCURVE",
"482 891 CURVE",
"905 1445 LINE",
"905 1475 LINE",
"486 1475 LINE",
"269 1475 OFFCURVE",
"160 1353 OFFCURVE",
"160 1128 CURVE",
"160 0 LINE"
);
}
);
width = 1184;
},
{
layerId = "584F9D0D-8480-40C6-ABEA-8DD6EE64252D";
paths = (
{
closed = 1;
nodes = (
"481 0 LINE",
"481 1061 LINE",
"481 1129 OFFCURVE",
"505 1175 OFFCURVE",
"575 1175 CURVE",
"820 1175 LINE",
"510 869 LINE",
"699 623 LINE",
"710 631 OFFCURVE",
"743 653 OFFCURVE",
"793 653 CURVE SMOOTH",
"877 653 OFFCURVE",
"932 600 OFFCURVE",
"932 476 CURVE SMOOTH",
"932 352 OFFCURVE",
"864 287 OFFCURVE",
"781 287 CURVE SMOOTH",
"694 287 OFFCURVE",
"595 310 OFFCURVE",
"571 321 CURVE",
"571 17 LINE",
"600 5 OFFCURVE",
"673 -13 OFFCURVE",
"773 -13 CURVE SMOOTH",
"1087 -13 OFFCURVE",
"1338 109 OFFCURVE",
"1338 459 CURVE SMOOTH",
"1338 793 OFFCURVE",
"1162 891 OFFCURVE",
"991 891 CURVE SMOOTH",
"971 891 OFFCURVE",
"941 889 OFFCURVE",
"922 885 CURVE",
"1226 1157 LINE",
"1226 1475 LINE",
"522 1475 LINE",
"280 1475 OFFCURVE",
"77 1365 OFFCURVE",
"77 1097 CURVE",
"77 0 LINE"
);
}
);
width = 1428;
},
{
layerId = "2503C51C-5A6C-4B2C-A968-78FEA18C2585";
paths = (
{
closed = 1;
nodes = (
"78 0 LINE",
"318 1133 LINE",
"362 1340 OFFCURVE",
"486 1447 OFFCURVE",
"682 1447 CURVE",
"1061 1447 LINE",
"521 894 LINE",
"551 863 LINE",
"580 869 OFFCURVE",
"620 872 OFFCURVE",
"649 872 CURVE SMOOTH",
"819 872 OFFCURVE",
"949 762 OFFCURVE",
"949 561 CURVE SMOOTH",
"949 254 OFFCURVE",
"740 15 OFFCURVE",
"427 15 CURVE SMOOTH",
"360 15 OFFCURVE",
"293 36 OFFCURVE",
"272 47 CURVE",
"251 17 LINE",
"278 5 OFFCURVE",
"347 -13 OFFCURVE",
"427 -13 CURVE SMOOTH",
"758 -13 OFFCURVE",
"980 232 OFFCURVE",
"980 561 CURVE SMOOTH",
"980 776 OFFCURVE",
"842 900 OFFCURVE",
"649 900 CURVE SMOOTH",
"620 900 OFFCURVE",
"590 897 OFFCURVE",
"559 891 CURVE",
"1100 1445 LINE",
"1106 1475 LINE",
"687 1475 LINE",
"470 1475 OFFCURVE",
"335 1353 OFFCURVE",
"287 1128 CURVE",
"48 0 LINE"
);
}
);
width = 1184;
},
{
layerId = "3FDD6C00-F7FD-4E85-84B0-0136AF7D7529";
paths = (
{
closed = 1;
nodes = (
"368 0 LINE",
"593 1061 LINE",
"608 1129 OFFCURVE",
"641 1175 OFFCURVE",
"711 1175 CURVE",
"946 1175 LINE",
"581 869 LINE",
"718 623 LINE",
"731 631 OFFCURVE",
"768 653 OFFCURVE",
"818 653 CURVE SMOOTH",
"889 653 OFFCURVE",
"924 609 OFFCURVE",
"924 533 CURVE SMOOTH",
"924 406 OFFCURVE",
"849 287 OFFCURVE",
"729 287 CURVE SMOOTH",
"642 287 OFFCURVE",
"548 310 OFFCURVE",
"526 321 CURVE",
"461 17 LINE",
"488 5 OFFCURVE",
"600 -13 OFFCURVE",
"700 -13 CURVE SMOOTH",
"1097 -13 OFFCURVE",
"1331 187 OFFCURVE",
"1331 575 CURVE SMOOTH",
"1331 816 OFFCURVE",
"1200 891 OFFCURVE",
"1077 891 CURVE SMOOTH",
"1057 891 OFFCURVE",
"1027 889 OFFCURVE",
"1007 885 CURVE",
"1359 1157 LINE",
"1426 1475 LINE",
"722 1475 LINE",
"480 1475 OFFCURVE",
"254 1365 OFFCURVE",
"197 1097 CURVE",
"-36 0 LINE"
);
}
);
width = 1418;
}
);
leftKerningGroup = H;
leftMetricsKey = H;
rightKerningGroup = S;
rightMetricsKey = S;
unicode = 1E9E;
},
{
glyphname = Schwa;
lastChange = "2020-05-20 16:30:11 +0000";
layers = (
{
anchors = (
{
name = bottom;
position = "{577, 0}";
},
{
name = top;
position = "{577, 1475}";
}
);
layerId = "A1A0948C-E637-4A65-8CCC-05505AD98C44";
paths = (
{
closed = 1;
nodes = (
"918 -11 OFFCURVE",
"1053 368 OFFCURVE",
"1053 739 CURVE SMOOTH",
"1053 1161 OFFCURVE",
"907 1484 OFFCURVE",
"577 1484 CURVE SMOOTH",
"258 1484 OFFCURVE",
"125 1169 OFFCURVE",
"125 1021 CURVE",
"156 1021 LINE",
"156 1145 OFFCURVE",
"270 1456 OFFCURVE",
"577 1456 CURVE SMOOTH",
"888 1456 OFFCURVE",
"1020 1134 OFFCURVE",
"1020 739 CURVE SMOOTH",
"1020 394 OFFCURVE",
"904 17 OFFCURVE",
"575 17 CURVE SMOOTH",
"271 17 OFFCURVE",
"152 369 OFFCURVE",
"152 661 CURVE SMOOTH",
"152 669 OFFCURVE",
"152 686 OFFCURVE",
"152 697 CURVE",
"140 690 LINE",
"1027 690 LINE",
"1027 718 LINE",
"120 718 LINE",
"120 706 OFFCURVE",
"120 687 OFFCURVE",
"120 675 CURVE SMOOTH",
"120 339 OFFCURVE",
"251 -11 OFFCURVE",
"575 -11 CURVE SMOOTH"
);
}
);
width = 1173;
},
{
anchors = (
{
name = bottom;
position = "{684, 0}";
},
{
name = top;
position = "{684, 1475}";
}
);
layerId = "584F9D0D-8480-40C6-ABEA-8DD6EE64252D";
paths = (
{
closed = 1;
nodes = (
"1018 -11 OFFCURVE",
"1307 208 OFFCURVE",
"1307 739 CURVE SMOOTH",
"1307 1311 OFFCURVE",
"1007 1484 OFFCURVE",
"687 1484 CURVE SMOOTH",
"358 1484 OFFCURVE",
"95 1299 OFFCURVE",
"85 1001 CURVE",
"472 1001 LINE",
"482 1115 OFFCURVE",
"566 1192 OFFCURVE",
"687 1192 CURVE SMOOTH",
"800 1192 OFFCURVE",
"901 1124 OFFCURVE",
"901 739 CURVE SMOOTH",
"901 381 OFFCURVE",
"806 280 OFFCURVE",
"675 280 CURVE SMOOTH",
"557 280 OFFCURVE",
"468 359 OFFCURVE",
"468 641 CURVE SMOOTH",
"468 649 OFFCURVE",
"468 666 OFFCURVE",
"468 677 CURVE",
"456 589 LINE",
"908 589 LINE",
"908 868 LINE",
"73 868 LINE",
"71 856 OFFCURVE",
"70 815 OFFCURVE",
"70 735 CURVE SMOOTH",
"70 189 OFFCURVE",
"332 -11 OFFCURVE",
"675 -11 CURVE SMOOTH"
);
}
);
width = 1377;
},
{
anchors = (
{
name = bottom;
position = "{474, 0}";
},
{
name = top;
position = "{778, 1475}";
}
);
layerId = "2503C51C-5A6C-4B2C-A968-78FEA18C2585";
paths = (
{
closed = 1;
nodes = (
"887 -11 OFFCURVE",
"1123 512 OFFCURVE",
"1123 1009 CURVE SMOOTH",
"1123 1287 OFFCURVE",
"1029 1484 OFFCURVE",
"775 1484 CURVE SMOOTH",
"456 1484 OFFCURVE",
"254 1189 OFFCURVE",
"230 1021 CURVE",
"261 1021 LINE",
"280 1165 OFFCURVE",
"468 1456 OFFCURVE",
"775 1456 CURVE SMOOTH",
"1009 1456 OFFCURVE",
"1090 1268 OFFCURVE",
"1090 1011 CURVE SMOOTH",
"1090 528 OFFCURVE",
"867 17 OFFCURVE",
"467 17 CURVE SMOOTH",
"233 17 OFFCURVE",
"165 231 OFFCURVE",
"165 458 CURVE SMOOTH",
"165 524 OFFCURVE",
"174 640 OFFCURVE",
"189 697 CURVE",
"175 690 LINE",
"1062 690 LINE",
"1068 718 LINE",
"161 718 LINE",
"142 623 OFFCURVE",
"134 565 OFFCURVE",
"134 456 CURVE SMOOTH",
"134 206 OFFCURVE",
"215 -11 OFFCURVE",
"467 -11 CURVE SMOOTH"
);
}
);
width = 1179;
},
{
anchors = (
{
name = bottom;
position = "{562, 0}";
},
{
name = top;
position = "{876, 1475}";
}
);
layerId = "3FDD6C00-F7FD-4E85-84B0-0136AF7D7529";
paths = (
{
closed = 1;
nodes = (
"1079 -11 OFFCURVE",
"1374 454 OFFCURVE",
"1374 978 CURVE SMOOTH",
"1374 1361 OFFCURVE",
"1139 1484 OFFCURVE",
"869 1484 CURVE SMOOTH",
"540 1484 OFFCURVE",
"256 1299 OFFCURVE",
"182 1001 CURVE",
"569 1001 LINE",
"603 1115 OFFCURVE",
"704 1192 OFFCURVE",
"825 1192 CURVE SMOOTH",
"907 1192 OFFCURVE",
"975 1156 OFFCURVE",
"975 989 CURVE SMOOTH",
"975 718 OFFCURVE",
"859 280 OFFCURVE",
"619 280 CURVE SMOOTH",
"530 280 OFFCURVE",
"467 325 OFFCURVE",
"467 467 CURVE SMOOTH",
"467 541 OFFCURVE",
"475 587 OFFCURVE",
"496 677 CURVE",
"466 589 LINE",
"918 589 LINE",
"977 868 LINE",
"142 868 LINE",
"113 799 OFFCURVE",
"88 590 OFFCURVE",
"88 499 CURVE SMOOTH",
"88 130 OFFCURVE",
"289 -11 OFFCURVE",
"577 -11 CURVE SMOOTH"
);
}
);
width = 1375;
}
);
leftKerningGroup = O;
leftMetricsKey = O;
rightKerningGroup = O;
rightMetricsKey = O;
unicode = 018F;
},
{
glyphname = T;
lastChange = "2020-05-21 16:52:02 +0000";
layers = (
{
anchors = (
{
name = bottom;
position = "{566, 0}";
},
{
name = center;
position = "{566, 738}";
},
{
name = top;
position = "{566, 1475}";
}
);
layerId = "A1A0948C-E637-4A65-8CCC-05505AD98C44";
paths = (
{
closed = 1;
nodes = (
"993 1475 LINE",
"140 1475 LINE",
"140 1447 LINE",
"551 1447 LINE",
"551 0 LINE",
"582 0 LINE",
"582 1447 LINE",
"993 1447 LINE"
);
}
);
width = 1133;
},
{
anchors = (
{
name = bottom;
position = "{594, 0}";
},
{
name = center;
position = "{594, 738}";
},
{
name = top;
position = "{594, 1475}";
}
);
layerId = "584F9D0D-8480-40C6-ABEA-8DD6EE64252D";
paths = (
{
closed = 1;
nodes = (
"1140 1475 LINE",
"46 1475 LINE",
"46 1175 LINE",
"391 1175 LINE",
"391 0 LINE",
"794 0 LINE",
"794 1175 LINE",
"1140 1175 LINE"
);
}
);
width = 1187;
},
{
anchors = (
{
name = bottom;
position = "{482, 0}";
},
{
name = center;
position = "{629, 738}";
},
{
name = top;
position = "{786, 1475}";
}
);
layerId = "3FDD6C00-F7FD-4E85-84B0-0136AF7D7529";
paths = (
{
closed = 1;
nodes = (
"1337 1475 LINE",
"243 1475 LINE",
"179 1175 LINE",
"524 1175 LINE",
"274 0 LINE",
"677 0 LINE",
"927 1175 LINE",
"1273 1175 LINE"
);
}
);
width = 1187;
},
{
anchors = (
{
name = bottom;
position = "{453, 0}";
},
{
name = center;
position = "{610, 738}";
},
{
name = top;
position = "{767, 1475}";
}
);
layerId = "2503C51C-5A6C-4B2C-A968-78FEA18C2585";
paths = (
{
closed = 1;
nodes = (
"1195 1475 LINE",
"340 1475 LINE",
"335 1447 LINE",
"746 1447 LINE",
"439 0 LINE",
"471 0 LINE",
"777 1447 LINE",
"1188 1447 LINE"
);
}
);
width = 1133;
}
);
leftKerningGroup = T;
note = T;
rightKerningGroup = T;
unicode = 0054;
},
{
glyphname = Tbar;
lastChange = "2020-05-20 16:26:37 +0000";
layers = (
{
components = (
{
name = T;
}
);
layerId = "A1A0948C-E637-4A65-8CCC-05505AD98C44";
paths = (
{
closed = 1;
nodes = (
"853 970 LINE",
"853 997 LINE",
"190 997 LINE",
"190 970 LINE"
);
}
);
width = 1133;
},
{
components = (
{
name = T;
}
);
layerId = "584F9D0D-8480-40C6-ABEA-8DD6EE64252D";
paths = (
{
closed = 1;
nodes = (
"1045 730 LINE",
"1045 975 LINE",
"143 975 LINE",
"143 730 LINE"
);
}
);
width = 1187;
},
{
components = (
{
name = T;
}
);
layerId = "3FDD6C00-F7FD-4E85-84B0-0136AF7D7529";
paths = (
{
closed = 1;
nodes = (
"1095 730 LINE",
"1140 975 LINE",
"239 975 LINE",
"193 730 LINE"
);
}
);
width = 1187;
},
{
components = (
{
name = T;
}
);
layerId = "2503C51C-5A6C-4B2C-A968-78FEA18C2585";
paths = (
{
closed = 1;
nodes = (
"951 970 LINE",
"957 997 LINE",
"293 997 LINE",
"288 970 LINE"
);
}
);
width = 1133;
}
);
leftKerningGroup = T;
leftMetricsKey = T;
rightKerningGroup = T;
rightMetricsKey = T;
unicode = 0166;
},
{
glyphname = U;
lastChange = "2020-05-21 15:29:37 +0000";
layers = (
{
anchors = (
{
name = bottom;
position = "{610, -17}";
},
{
name = ogonek;
position = "{748, 4}";
},
{
name = top;
position = "{609, 1475}";
},
{
name = topright;
position = "{1035, 1398}";
}
);
layerId = "A1A0948C-E637-4A65-8CCC-05505AD98C44";
paths = (
{
closed = 1;
nodes = (
"1070 1475 LINE",
"1040 1475 LINE",
"1040 566 LINE SMOOTH",
"1040 182 OFFCURVE",
"881 11 OFFCURVE",
"610 11 CURVE SMOOTH",
"339 11 OFFCURVE",
"180 182 OFFCURVE",
"180 566 CURVE SMOOTH",
"180 631 OFFCURVE",
"180 707 OFFCURVE",
"180 794 CURVE SMOOTH",
"180 1475 LINE",
"150 1475 LINE",
"150 781 LINE SMOOTH",
"150 695 OFFCURVE",
"150 620 OFFCURVE",
"150 555 CURVE SMOOTH",
"150 162 OFFCURVE",
"318 -17 OFFCURVE",
"610 -17 CURVE SMOOTH",
"902 -17 OFFCURVE",
"1070 162 OFFCURVE",
"1070 555 CURVE SMOOTH"
);
}
);
width = 1220;
},
{
anchors = (
{
name = bottom;
position = "{673, -26}";
},
{
name = ogonek;
position = "{840, 29}";
},
{
name = top;
position = "{674, 1475}";
},
{
name = topright;
position = "{1173, 1311}";
}
);
layerId = "584F9D0D-8480-40C6-ABEA-8DD6EE64252D";
paths = (
{
closed = 1;
nodes = (
"1258 1475 LINE",
"854 1475 LINE",
"854 515 LINE SMOOTH",
"854 366 OFFCURVE",
"809 285 OFFCURVE",
"673 285 CURVE SMOOTH",
"537 285 OFFCURVE",
"494 366 OFFCURVE",
"494 515 CURVE SMOOTH",
"494 544 OFFCURVE",
"494 577 OFFCURVE",
"494 615 CURVE SMOOTH",
"494 1475 LINE",
"90 1475 LINE",
"90 678 LINE SMOOTH",
"90 623 OFFCURVE",
"90 572 OFFCURVE",
"90 525 CURVE SMOOTH",
"90 158 OFFCURVE",
"313 -26 OFFCURVE",
"673 -26 CURVE SMOOTH",
"1033 -26 OFFCURVE",
"1258 158 OFFCURVE",
"1258 525 CURVE SMOOTH"
);
}
);
width = 1348;
},
{
anchors = (
{
name = bottom;
position = "{588, -26}";
},
{
name = ogonek;
position = "{737, 29}";
},
{
name = top;
position = "{797, 1475}";
},
{
name = topright;
position = "{1310, 1312}";
}
);
layerId = "3FDD6C00-F7FD-4E85-84B0-0136AF7D7529";
paths = (
{
closed = 1;
nodes = (
"1459 1475 LINE",
"1055 1475 LINE",
"851 515 LINE SMOOTH",
"819 366 OFFCURVE",
"757 285 OFFCURVE",
"621 285 CURVE SMOOTH",
"519 285 OFFCURVE",
"479 331 OFFCURVE",
"479 417 CURVE SMOOTH",
"479 472 OFFCURVE",
"487 516 OFFCURVE",
"509 617 CURVE SMOOTH",
"695 1475 LINE",
"291 1475 LINE",
"118 680 LINE SMOOTH",
"88 541 OFFCURVE",
"73 467 OFFCURVE",
"73 381 CURVE SMOOTH",
"73 113 OFFCURVE",
"259 -26 OFFCURVE",
"588 -26 CURVE SMOOTH",
"928 -26 OFFCURVE",
"1179 158 OFFCURVE",
"1257 525 CURVE SMOOTH"
);
}
);
width = 1348;
},
{
anchors = (
{
name = bottom;
position = "{501, -17}";
},
{
name = ogonek;
position = "{639, 4}";
},
{
name = top;
position = "{767, 1475}";
},
{
name = topright;
position = "{1175, 1398}";
}
);
layerId = "2503C51C-5A6C-4B2C-A968-78FEA18C2585";
paths = (
{
closed = 1;
nodes = (
"1270 1475 LINE",
"1240 1475 LINE",
"1047 566 LINE SMOOTH",
"965 182 OFFCURVE",
"771 11 OFFCURVE",
"500 11 CURVE SMOOTH",
"284 11 OFFCURVE",
"166 117 OFFCURVE",
"166 354 CURVE SMOOTH",
"166 474 OFFCURVE",
"187 573 OFFCURVE",
"234 794 CURVE SMOOTH",
"380 1475 LINE",
"350 1475 LINE",
"201 781 LINE SMOOTH",
"157 574 OFFCURVE",
"135 464 OFFCURVE",
"135 348 CURVE SMOOTH",
"135 98 OFFCURVE",
"258 -17 OFFCURVE",
"500 -17 CURVE SMOOTH",
"785 -17 OFFCURVE",
"992 162 OFFCURVE",
"1075 555 CURVE SMOOTH"
);
}
);
width = 1220;
}
);
leftKerningGroup = U;
note = U;
rightKerningGroup = U;
unicode = 0055;
},
{
glyphname = V;
lastChange = "2020-05-21 16:43:10 +0000";
layers = (
{
anchors = (
{
name = bottom;
position = "{551, 0}";
},
{
name = top;
position = "{551, 1475}";
}
);
layerId = "A1A0948C-E637-4A65-8CCC-05505AD98C44";
paths = (
{
closed = 1;
nodes = (
"572 -13 LINE",
"1004 1475 LINE",
"972 1475 LINE",
"550 15 LINE",
"559 15 LINE",
"132 1475 LINE",
"100 1475 LINE",
"538 -13 LINE"
);
}
);
width = 1104;
},
{
anchors = (
{
name = bottom;
position = "{703, 0}";
},
{
name = top;
position = "{703, 1475}";
}
);
layerId = "584F9D0D-8480-40C6-ABEA-8DD6EE64252D";
paths = (
{
closed = 1;
nodes = (
"1005 0 LINE",
"1343 1475 LINE",
"896 1475 LINE",
"693 231 LINE",
"708 231 LINE",
"504 1475 LINE",
"57 1475 LINE",
"397 0 LINE"
);
}
);
width = 1400;
},
{
anchors = (
{
name = bottom;
position = "{576, 0}";
},
{
name = top;
position = "{890, 1475}";
}
);
layerId = "3FDD6C00-F7FD-4E85-84B0-0136AF7D7529";
paths = (
{
closed = 1;
nodes = (
"892 0 LINE",
"1544 1475 LINE",
"1087 1475 LINE",
"629 231 LINE",
"644 231 LINE",
"695 1475 LINE",
"258 1475 LINE",
"284 0 LINE"
);
}
);
width = 1400;
},
{
anchors = (
{
name = bottom;
position = "{442, 0}";
},
{
name = top;
position = "{756, 1475}";
}
);
layerId = "2503C51C-5A6C-4B2C-A968-78FEA18C2585";
paths = (
{
closed = 1;
nodes = (
"456 -13 LINE",
"1204 1475 LINE",
"1170 1475 LINE",
"439 12 LINE",
"448 12 LINE",
"332 1475 LINE",
"300 1475 LINE",
"422 -13 LINE"
);
}
);
width = 1104;
}
);
leftKerningGroup = V;
note = V;
rightKerningGroup = V;
unicode = 0056;
},
{
glyphname = W;
lastChange = "2020-05-21 17:16:50 +0000";
layers = (
{
anchors = (
{
name = bottom;
position = "{783, 0}";
},
{
name = top;
position = "{785, 1475}";
}
);
layerId = "A1A0948C-E637-4A65-8CCC-05505AD98C44";
paths = (
{
closed = 1;
nodes = (
"445 0 LINE",
"783 1434 LINE",
"775 1434 LINE",
"1112 0 LINE",
"1147 0 LINE",
"1459 1475 LINE",
"1426 1475 LINE",
"1126 31 LINE",
"1133 31 LINE",
"796 1475 LINE",
"762 1475 LINE",
"424 31 LINE",
"432 31 LINE",
"133 1475 LINE",
"100 1475 LINE",
"411 0 LINE"
);
}
);
width = 1559;
},
{
anchors = (
{
name = bottom;
position = "{999, 0}";
},
{
name = top;
position = "{999, 1475}";
}
);
layerId = "584F9D0D-8480-40C6-ABEA-8DD6EE64252D";
paths = (
{
closed = 1;
nodes = (
"869 0 LINE",
"1017 1213 LINE",
"977 1213 LINE",
"1124 0 LINE",
"1741 0 LINE",
"1935 1475 LINE",
"1520 1475 LINE",
"1402 63 LINE",
"1459 66 LINE",
"1243 1475 LINE",
"750 1475 LINE",
"533 66 LINE",
"590 63 LINE",
"472 1475 LINE",
"57 1475 LINE",
"251 0 LINE"
);
}
);
width = 1992;
},
{
anchors = (
{
name = bottom;
position = "{888, 0}";
},
{
name = top;
position = "{1202, 1475}";
}
);
layerId = "3FDD6C00-F7FD-4E85-84B0-0136AF7D7529";
paths = (
{
closed = 1;
nodes = (
"756 0 LINE",
"1162 1213 LINE",
"1122 1213 LINE",
"1011 0 LINE",
"1628 0 LINE",
"2136 1475 LINE",
"1721 1475 LINE",
"1303 63 LINE",
"1351 66 LINE",
"1435 1475 LINE",
"942 1475 LINE",
"425 66 LINE",
"491 63 LINE",
"673 1475 LINE",
"258 1475 LINE",
"138 0 LINE"
);
}
);
width = 1992;
},
{
anchors = (
{
name = bottom;
position = "{660, 0}";
},
{
name = top;
position = "{974, 1475}";
}
);
layerId = "2503C51C-5A6C-4B2C-A968-78FEA18C2585";
paths = (
{
closed = 1;
nodes = (
"331 0 LINE",
"977 1434 LINE",
"967 1434 LINE",
"996 0 LINE",
"1033 0 LINE",
"1659 1475 LINE",
"1625 1475 LINE",
"1016 31 LINE",
"1024 31 LINE",
"996 1475 LINE",
"960 1475 LINE",
"315 31 LINE",
"325 31 LINE",
"333 1475 LINE",
"300 1475 LINE",
"297 0 LINE"
);
}
);
width = 1559;
},
{
anchors = (
{
name = bottom;
position = "{864, 0}";
},
{
name = top;
position = "{865, 1475}";
}
);
associatedMasterId = "A1A0948C-E637-4A65-8CCC-05505AD98C44";
layerId = "81A38537-478C-4AB5-8A06-B03E6807589D";
name = "Regular{0,400}";
paths = (
{
closed = 1;
nodes = (
"594 0 LINE",
"871 1341 LINE",
"851 1341 LINE",
"1127 0 LINE",
"1410 0 LINE",
"1638 1475 LINE",
"1461 1475 LINE",
"1260 43 LINE",
"1285 44 LINE",
"984 1475 LINE",
"738 1475 LINE",
"435 43 LINE",
"471 43 LINE",
"260 1475 LINE",
"84 1475 LINE",
"321 0 LINE"
);
}
);
width = 1722;
},
{
anchors = (
{
name = bottom;
position = "{748, 0}";
},
{
name = top;
position = "{1062, 1475}";
}
);
associatedMasterId = "2503C51C-5A6C-4B2C-A968-78FEA18C2585";
layerId = "FC7673FD-390B-479C-89F9-726E9C896683";
name = "Italic{1,400}";
paths = (
{
closed = 1;
nodes = (
"480 0 LINE",
"1042 1341 LINE",
"1022 1341 LINE",
"1013 0 LINE",
"1296 0 LINE",
"1838 1475 LINE",
"1661 1475 LINE",
"1155 43 LINE",
"1176 44 LINE",
"1179 1475 LINE",
"933 1475 LINE",
"325 43 LINE",
"366 43 LINE",
"460 1475 LINE",
"284 1475 LINE",
"207 0 LINE"
);
}
);
width = 1721;
}
);
leftKerningGroup = V;
leftMetricsKey = V;
note = W;
rightKerningGroup = V;
rightMetricsKey = V;
unicode = 0057;
},
{
glyphname = X;
lastChange = "2020-05-21 16:53:02 +0000";
layers = (
{
anchors = (
{
name = bottom;
position = "{616, 0}";
},
{
name = top;
position = "{616, 1475}";
}
);
layerId = "A1A0948C-E637-4A65-8CCC-05505AD98C44";
paths = (
{
closed = 1;
nodes = (
"160 0 LINE",
"194 0 LINE",
"621 717 LINE",
"608 717 LINE",
"1035 0 LINE",
"1069 0 LINE",
"627 743 LINE",
"627 717 LINE",
"1054 1475 LINE",
"1020 1475 LINE",
"608 743 LINE",
"621 743 LINE",
"206 1475 LINE",
"172 1475 LINE",
"602 717 LINE",
"602 743 LINE"
);
}
);
width = 1229;
},
{
anchors = (
{
name = bottom;
position = "{718, 0}";
},
{
name = top;
position = "{718, 1475}";
}
);
layerId = "584F9D0D-8480-40C6-ABEA-8DD6EE64252D";
paths = (
{
closed = 1;
nodes = (
"46 0 LINE",
"499 0 LINE",
"788 625 LINE",
"648 625 LINE",
"937 0 LINE",
"1391 0 LINE",
"896 892 LINE",
"899 566 LINE",
"1377 1475 LINE",
"923 1475 LINE",
"655 833 LINE",
"782 833 LINE",
"511 1475 LINE",
"58 1475 LINE",
"540 566 LINE",
"544 892 LINE"
);
}
);
width = 1438;
},
{
anchors = (
{
name = bottom;
position = "{589, 0}";
},
{
name = top;
position = "{903, 1475}";
}
);
layerId = "3FDD6C00-F7FD-4E85-84B0-0136AF7D7529";
paths = (
{
closed = 1;
nodes = (
"-75 0 LINE",
"386 0 LINE",
"823 625 LINE",
"661 625 LINE",
"808 0 LINE",
"1255 0 LINE",
"955 892 LINE",
"902 566 LINE",
"1563 1475 LINE",
"1102 1475 LINE",
"681 833 LINE",
"829 833 LINE",
"706 1475 LINE",
"259 1475 LINE",
"543 566 LINE",
"602 892 LINE"
);
}
);
width = 1438;
},
{
anchors = (
{
name = bottom;
position = "{494, 0}";
},
{
name = top;
position = "{808, 1475}";
}
);
layerId = "2503C51C-5A6C-4B2C-A968-78FEA18C2585";
paths = (
{
closed = 1;
nodes = (
"51 0 LINE",
"92 0 LINE",
"659 717 LINE",
"644 717 LINE",
"912 0 LINE",
"942 0 LINE",
"667 743 LINE",
"664 717 LINE",
"1244 1475 LINE",
"1206 1475 LINE",
"648 743 LINE",
"664 743 LINE",
"412 1475 LINE",
"378 1475 LINE",
"641 717 LINE",
"644 745 LINE"
);
}
);
width = 1229;
}
);
leftKerningGroup = X;
note = X;
rightKerningGroup = X;
unicode = 0058;
},
{
glyphname = Y;
lastChange = "2020-05-21 16:52:18 +0000";
layers = (
{
anchors = (
{
name = bottom;
position = "{491, 0}";
},
{
name = top;
position = "{491, 1475}";
},
{
name = topleft;
position = "{45, 1475}";
}
);
layerId = "A1A0948C-E637-4A65-8CCC-05505AD98C44";
paths = (
{
closed = 1;
nodes = (
"860 1475 LINE",
"485 544 LINE",
"498 544 LINE",
"123 1475 LINE",
"90 1475 LINE",
"476 517 LINE",
"476 0 LINE",
"507 0 LINE",
"507 517 LINE",
"893 1475 LINE"
);
}
);
width = 1068;
},
{
anchors = (
{
name = bottom;
position = "{663, 0}";
},
{
name = top;
position = "{663, 1475}";
},
{
name = topleft;
position = "{0, 1475}";
}
);
layerId = "584F9D0D-8480-40C6-ABEA-8DD6EE64252D";
paths = (
{
closed = 1;
nodes = (
"891 1475 LINE",
"602 692 LINE",
"720 692 LINE",
"431 1475 LINE",
"4 1475 LINE",
"459 505 LINE",
"459 0 LINE",
"861 0 LINE",
"861 505 LINE",
"1319 1475 LINE"
);
}
);
width = 1346;
},
{
anchors = (
{
name = bottom;
position = "{560, 0}";
},
{
name = top;
position = "{874, 1475}";
},
{
name = topleft;
position = "{201, 1475}";
}
);
layerId = "3FDD6C00-F7FD-4E85-84B0-0136AF7D7529";
paths = (
{
closed = 1;
nodes = (
"1079 1475 LINE",
"620 692 LINE",
"738 692 LINE",
"619 1475 LINE",
"202 1475 LINE",
"451 505 LINE",
"343 0 LINE",
"745 0 LINE",
"854 505 LINE",
"1517 1475 LINE"
);
}
);
width = 1346;
},
{
anchors = (
{
name = bottom;
position = "{381, 0}";
},
{
name = top;
position = "{695, 1475}";
},
{
name = topleft;
position = "{206, 1475}";
}
);
layerId = "2503C51C-5A6C-4B2C-A968-78FEA18C2585";
paths = (
{
closed = 1;
nodes = (
"1065 1475 LINE",
"492 544 LINE",
"505 544 LINE",
"327 1475 LINE",
"296 1475 LINE",
"478 517 LINE",
"368 0 LINE",
"399 0 LINE",
"509 517 LINE",
"1099 1475 LINE"
);
}
);
width = 1068;
}
);
leftKerningGroup = Y;
note = Y;
rightKerningGroup = Y;
unicode = 0059;
},
{
glyphname = Z;
lastChange = "2020-05-21 16:42:25 +0000";
layers = (
{
anchors = (
{
name = bottom;
position = "{516, 11}";
},
{
name = center;
position = "{516, 738}";
},
{
name = top;
position = "{516, 1475}";
}
);
layerId = "A1A0948C-E637-4A65-8CCC-05505AD98C44";
paths = (
{
closed = 1;
nodes = (
"157 31 LINE",
"917 1449 LINE",
"917 1475 LINE",
"166 1475 LINE",
"166 1447 LINE",
"884 1447 LINE",
"883 1448 LINE",
"120 28 LINE",
"120 0 LINE",
"907 0 LINE",
"907 28 LINE",
"157 28 LINE"
);
}
);
width = 1037;
},
{
anchors = (
{
name = bottom;
position = "{613, 0}";
},
{
name = center;
position = "{613, 738}";
},
{
name = top;
position = "{613, 1475}";
}
);
layerId = "584F9D0D-8480-40C6-ABEA-8DD6EE64252D";
paths = (
{
closed = 1;
nodes = (
"528 303 LINE",
"1135 1221 LINE",
"1135 1475 LINE",
"122 1475 LINE",
"122 1175 LINE",
"688 1175 LINE",
"686 1177 LINE",
"77 257 LINE",
"77 0 LINE",
"1126 0 LINE",
"1126 301 LINE",
"528 301 LINE"
);
}
);
width = 1212;
},
{
anchors = (
{
name = bottom;
position = "{505, 0}";
},
{
name = center;
position = "{662, 738}";
},
{
name = top;
position = "{819, 1475}";
}
);
layerId = "3FDD6C00-F7FD-4E85-84B0-0136AF7D7529";
paths = (
{
closed = 1;
nodes = (
"490 303 LINE",
"1282 1221 LINE",
"1336 1475 LINE",
"323 1475 LINE",
"259 1175 LINE",
"815 1175 LINE",
"813 1177 LINE",
"19 257 LINE",
"-36 0 LINE",
"1013 0 LINE",
"1077 301 LINE",
"489 301 LINE"
);
}
);
width = 1212;
},
{
anchors = (
{
name = bottom;
position = "{417, 0}";
},
{
name = center;
position = "{574, 738}";
},
{
name = top;
position = "{731, 1475}";
}
);
layerId = "2503C51C-5A6C-4B2C-A968-78FEA18C2585";
paths = (
{
closed = 1;
nodes = (
"50 27 LINE",
"1112 1449 LINE",
"1118 1475 LINE",
"367 1475 LINE",
"361 1447 LINE",
"1079 1447 LINE",
"1076 1448 LINE",
"13 28 LINE",
"7 0 LINE",
"794 0 LINE",
"800 28 LINE",
"50 28 LINE"
);
}
);
width = 1037;
}
);
leftKerningGroup = H;
note = Z;
rightKerningGroup = H;
unicode = 005A;
},
{
glyphname = a;
lastChange = "2020-05-21 15:00:24 +0000";
layers = (
{
anchors = (
{
name = bottom;
position = "{548, 0}";
},
{
name = ogonek;
position = "{977, 0}";
},
{
name = top;
position = "{573, 1075}";
}
);
layerId = "A1A0948C-E637-4A65-8CCC-05505AD98C44";
paths = (
{
closed = 1;
nodes = (
"1001 7 OFFCURVE",
"990 28 OFFCURVE",
"982 63 CURVE SMOOTH",
"975 89 OFFCURVE",
"970 123 OFFCURVE",
"970 164 CURVE SMOOTH",
"970 681 LINE",
"970 710 OFFCURVE",
"970 738 OFFCURVE",
"970 763 CURVE SMOOTH",
"970 958 OFFCURVE",
"812 1075 OFFCURVE",
"573 1075 CURVE SMOOTH",
"304 1075 OFFCURVE",
"128 939 OFFCURVE",
"128 721 CURVE",
"159 721 LINE",
"159 921 OFFCURVE",
"321 1047 OFFCURVE",
"573 1047 CURVE SMOOTH",
"816 1047 OFFCURVE",
"939 929 OFFCURVE",
"939 763 CURVE SMOOTH",
"939 738 OFFCURVE",
"939 712 OFFCURVE",
"939 684 CURVE",
"939 162 LINE SMOOTH",
"939 121 OFFCURVE",
"945 83 OFFCURVE",
"953 55 CURVE SMOOTH",
"962 24 OFFCURVE",
"971 4 OFFCURVE",
"976 0 CURVE",
"1007 0 LINE"
);
},
{
closed = 1;
nodes = (
"758 -17 OFFCURVE",
"968 128 OFFCURVE",
"968 332 CURVE",
"939 348 LINE",
"939 149 OFFCURVE",
"747 11 OFFCURVE",
"512 11 CURVE SMOOTH",
"273 11 OFFCURVE",
"135 113 OFFCURVE",
"135 288 CURVE SMOOTH",
"135 467 OFFCURVE",
"267 543 OFFCURVE",
"535 568 CURVE SMOOTH",
"778 591 OFFCURVE",
"968 625 OFFCURVE",
"969 709 CURVE",
"939 726 LINE",
"939 653 OFFCURVE",
"812 625 OFFCURVE",
"523 597 CURVE SMOOTH",
"241 570 OFFCURVE",
"104 481 OFFCURVE",
"104 290 CURVE SMOOTH",
"104 89 OFFCURVE",
"256 -17 OFFCURVE",
"509 -17 CURVE SMOOTH"
);
}
);
width = 1192;
},
{
anchors = (
{
name = bottom;
position = "{599, -23}";
},
{
name = ogonek;
position = "{1126, 0}";
},
{
name = top;
position = "{638, 1084}";
}
);
layerId = "584F9D0D-8480-40C6-ABEA-8DD6EE64252D";
paths = (
{
closed = 1;
nodes = (
"1239 13 OFFCURVE",
"1220 50 OFFCURVE",
"1205 100 CURVE SMOOTH",
"1192 146 OFFCURVE",
"1182 202 OFFCURVE",
"1182 261 CURVE SMOOTH",
"1182 590 LINE SMOOTH",
"1182 620 OFFCURVE",
"1182 648 OFFCURVE",
"1182 674 CURVE SMOOTH",
"1182 956 OFFCURVE",
"931 1084 OFFCURVE",
"638 1084 CURVE SMOOTH",
"328 1084 OFFCURVE",
"70 943 OFFCURVE",
"70 675 CURVE",
"467 675 LINE",
"467 749 OFFCURVE",
"528 790 OFFCURVE",
"635 790 CURVE SMOOTH",
"734 790 OFFCURVE",
"778 749 OFFCURVE",
"778 700 CURVE SMOOTH",
"778 695 OFFCURVE",
"778 689 OFFCURVE",
"778 684 CURVE SMOOTH",
"778 249 LINE SMOOTH",
"778 210 OFFCURVE",
"800 131 OFFCURVE",
"815 88 CURVE SMOOTH",
"830 47 OFFCURVE",
"848 12 OFFCURVE",
"860 0 CURVE",
"1254 0 LINE"
);
},
{
closed = 1;
nodes = (
"681 -24 OFFCURVE",
"894 83 OFFCURVE",
"894 325 CURVE",
"785 518 LINE",
"785 333 OFFCURVE",
"667 272 OFFCURVE",
"564 272 CURVE SMOOTH",
"492 272 OFFCURVE",
"450 288 OFFCURVE",
"450 333 CURVE SMOOTH",
"450 378 OFFCURVE",
"494 389 OFFCURVE",
"586 400 CURVE SMOOTH",
"743 418 OFFCURVE",
"936 474 OFFCURVE",
"981 565 CURVE",
"778 684 LINE",
"778 647 OFFCURVE",
"719 634 OFFCURVE",
"505 614 CURVE SMOOTH",
"279 593 OFFCURVE",
"46 523 OFFCURVE",
"46 288 CURVE SMOOTH",
"46 88 OFFCURVE",
"216 -24 OFFCURVE",
"444 -24 CURVE SMOOTH"
);
}
);
width = 1302;
},
{
anchors = (
{
name = bottom;
position = "{504, -23}";
},
{
name = ogonek;
position = "{1138, 0}";
},
{
name = top;
position = "{731, 1084}";
}
);
layerId = "3FDD6C00-F7FD-4E85-84B0-0136AF7D7529";
paths = (
{
closed = 1;
nodes = (
"1125 24 OFFCURVE",
"1110 77 OFFCURVE",
"1110 148 CURVE SMOOTH",
"1110 182 OFFCURVE",
"1113 220 OFFCURVE",
"1122 261 CURVE SMOOTH",
"1210 674 LINE SMOOTH",
"1216 704 OFFCURVE",
"1219 732 OFFCURVE",
"1219 758 CURVE SMOOTH",
"1219 980 OFFCURVE",
"993 1084 OFFCURVE",
"731 1084 CURVE SMOOTH",
"421 1084 OFFCURVE",
"155 943 OFFCURVE",
"98 675 CURVE",
"495 675 LINE",
"511 749 OFFCURVE",
"580 790 OFFCURVE",
"687 790 CURVE SMOOTH",
"775 790 OFFCURVE",
"813 757 OFFCURVE",
"813 716 CURVE SMOOTH",
"813 711 OFFCURVE",
"812 705 OFFCURVE",
"811 700 CURVE SMOOTH",
"723 284 LINE SMOOTH",
"719 266 OFFCURVE",
"712 182 OFFCURVE",
"714 162 CURVE SMOOTH",
"721 96 OFFCURVE",
"731 26 OFFCURVE",
"744 0 CURVE",
"1138 0 LINE"
);
},
{
closed = 1;
nodes = (
"582 -24 OFFCURVE",
"838 103 OFFCURVE",
"890 345 CURVE",
"779 518 LINE",
"740 333 OFFCURVE",
"609 272 OFFCURVE",
"506 272 CURVE SMOOTH",
"441 272 OFFCURVE",
"404 284 OFFCURVE",
"404 324 CURVE SMOOTH",
"404 379 OFFCURVE",
"471 389 OFFCURVE",
"555 400 CURVE SMOOTH",
"704 419 OFFCURVE",
"955 466 OFFCURVE",
"1011 565 CURVE",
"811 700 LINE",
"799 643 OFFCURVE",
"677 628 OFFCURVE",
"489 609 CURVE SMOOTH",
"203 580 OFFCURVE",
"-8 504 OFFCURVE",
"-8 249 CURVE SMOOTH",
"-8 106 OFFCURVE",
"107 -24 OFFCURVE",
"345 -24 CURVE SMOOTH"
);
}
);
width = 1302;
},
{
anchors = (
{
name = bottom;
position = "{484, 0}";
},
{
name = ogonek;
position = "{879, 0}";
},
{
name = top;
position = "{707, 1075}";
}
);
layerId = "2503C51C-5A6C-4B2C-A968-78FEA18C2585";
paths = (
{
closed = 1;
nodes = (
"907 7 OFFCURVE",
"894 36 OFFCURVE",
"894 71 CURVE SMOOTH",
"894 97 OFFCURVE",
"898 123 OFFCURVE",
"907 164 CURVE SMOOTH",
"1017 681 LINE",
"1033 758 OFFCURVE",
"1038 785 OFFCURVE",
"1038 828 CURVE SMOOTH",
"1038 983 OFFCURVE",
"908 1075 OFFCURVE",
"697 1075 CURVE SMOOTH",
"428 1075 OFFCURVE",
"230 939 OFFCURVE",
"184 721 CURVE",
"215 721 LINE",
"257 921 OFFCURVE",
"446 1047 OFFCURVE",
"698 1047 CURVE SMOOTH",
"909 1047 OFFCURVE",
"1007 957 OFFCURVE",
"1007 825 CURVE SMOOTH",
"1007 788 OFFCURVE",
"1001 751 OFFCURVE",
"987 684 CURVE",
"876 162 LINE SMOOTH",
"867 121 OFFCURVE",
"863 92 OFFCURVE",
"863 63 CURVE SMOOTH",
"863 32 OFFCURVE",
"876 4 OFFCURVE",
"881 0 CURVE",
"912 0 LINE"
);
},
{
closed = 1;
nodes = (
"663 -17 OFFCURVE",
"898 128 OFFCURVE",
"941 332 CURVE",
"917 348 LINE",
"874 149 OFFCURVE",
"652 11 OFFCURVE",
"417 11 CURVE SMOOTH",
"192 11 OFFCURVE",
"97 102 OFFCURVE",
"97 242 CURVE SMOOTH",
"97 481 OFFCURVE",
"296 544 OFFCURVE",
"558 568 CURVE SMOOTH",
"806 591 OFFCURVE",
"1003 625 OFFCURVE",
"1022 709 CURVE",
"997 731 LINE",
"981 658 OFFCURVE",
"847 625 OFFCURVE",
"552 597 CURVE SMOOTH",
"280 571 OFFCURVE",
"66 497 OFFCURVE",
"66 242 CURVE SMOOTH",
"66 78 OFFCURVE",
"174 -17 OFFCURVE",
"414 -17 CURVE SMOOTH"
);
}
);
width = 1207;
}
);
leftKerningGroup = o;
leftMetricsKey = o;
note = a;
rightKerningGroup = n;
unicode = 0061;
},
{
glyphname = a.ss01;
lastChange = "2020-05-21 17:05:33 +0000";
layers = (
{
anchors = (
{
name = bottom;
position = "{572, -17}";
},
{
name = ogonek;
position = "{965, 0}";
},
{
name = top;
position = "{568, 1075}";
}
);
layerId = "A1A0948C-E637-4A65-8CCC-05505AD98C44";
paths = (
{
closed = 1;
nodes = (
"808 -17 OFFCURVE",
"976 166 OFFCURVE",
"976 383 CURVE",
"947 383 LINE",
"947 186 OFFCURVE",
"791 11 OFFCURVE",
"572 11 CURVE SMOOTH",
"330 11 OFFCURVE",
"135 204 OFFCURVE",
"135 534 CURVE SMOOTH",
"135 862 OFFCURVE",
"330 1047 OFFCURVE",
"572 1047 CURVE SMOOTH",
"791 1047 OFFCURVE",
"947 872 OFFCURVE",
"947 675 CURVE SMOOTH",
"947 672 OFFCURVE",
"947 668 OFFCURVE",
"947 665 CURVE",
"976 665 LINE",
"976 668 OFFCURVE",
"976 672 OFFCURVE",
"976 675 CURVE SMOOTH",
"976 892 OFFCURVE",
"808 1075 OFFCURVE",
"572 1075 CURVE SMOOTH",
"312 1075 OFFCURVE",
"104 881 OFFCURVE",
"104 534 CURVE SMOOTH",
"104 177 OFFCURVE",
"313 -17 OFFCURVE",
"572 -17 CURVE SMOOTH"
);
},
{
closed = 1;
nodes = (
"978 1062 LINE",
"947 1062 LINE",
"947 708 OFFCURVE",
"947 354 OFFCURVE",
"947 0 CURVE",
"978 0 LINE"
);
}
);
width = 1207;
},
{
anchors = (
{
name = bottom;
position = "{548, -26}";
},
{
name = ogonek;
position = "{1147, 0}";
},
{
name = top;
position = "{564, 1084}";
}
);
layerId = "584F9D0D-8480-40C6-ABEA-8DD6EE64252D";
paths = (
{
closed = 1;
nodes = (
"793 -26 OFFCURVE",
"1014 179 OFFCURVE",
"1014 494 CURVE",
"872 514 LINE",
"872 381 OFFCURVE",
"773 313 OFFCURVE",
"677 313 CURVE SMOOTH",
"576 313 OFFCURVE",
"472 382 OFFCURVE",
"472 539 CURVE SMOOTH",
"472 696 OFFCURVE",
"576 756 OFFCURVE",
"677 756 CURVE SMOOTH",
"771 756 OFFCURVE",
"872 693 OFFCURVE",
"872 560 CURVE SMOOTH",
"872 556 OFFCURVE",
"872 553 OFFCURVE",
"872 549 CURVE",
"1014 557 LINE",
"1014 565 OFFCURVE",
"1014 572 OFFCURVE",
"1014 580 CURVE SMOOTH",
"1014 882 OFFCURVE",
"793 1084 OFFCURVE",
"548 1084 CURVE SMOOTH",
"291 1084 OFFCURVE",
"46 891 OFFCURVE",
"46 539 CURVE SMOOTH",
"46 167 OFFCURVE",
"281 -26 OFFCURVE",
"548 -26 CURVE SMOOTH"
);
},
{
closed = 1;
nodes = (
"1275 1062 LINE",
"872 1062 LINE",
"872 708 OFFCURVE",
"872 354 OFFCURVE",
"872 0 CURVE",
"1275 0 LINE"
);
}
);
width = 1399;
},
{
anchors = (
{
name = bottom;
position = "{448, -26}";
},
{
name = ogonek;
position = "{1015, 0}";
},
{
name = top;
position = "{649, 1084}";
}
);
layerId = "3FDD6C00-F7FD-4E85-84B0-0136AF7D7529";
paths = (
{
closed = 1;
nodes = (
"701 -26 OFFCURVE",
"935 179 OFFCURVE",
"1002 494 CURVE",
"864 514 LINE",
"836 381 OFFCURVE",
"732 313 OFFCURVE",
"626 313 CURVE SMOOTH",
"533 313 OFFCURVE",
"468 378 OFFCURVE",
"468 498 CURVE SMOOTH",
"468 653 OFFCURVE",
"577 756 OFFCURVE",
"711 756 CURVE SMOOTH",
"794 756 OFFCURVE",
"879 707 OFFCURVE",
"879 605 CURVE SMOOTH",
"879 587 OFFCURVE",
"876 568 OFFCURVE",
"871 549 CURVE",
"1015 557 LINE",
"1025 595 OFFCURVE",
"1032 652 OFFCURVE",
"1032 690 CURVE SMOOTH",
"1032 928 OFFCURVE",
"853 1084 OFFCURVE",
"639 1084 CURVE SMOOTH",
"289 1084 OFFCURVE",
"39 795 OFFCURVE",
"39 434 CURVE SMOOTH",
"39 135 OFFCURVE",
"211 -26 OFFCURVE",
"456 -26 CURVE SMOOTH"
);
},
{
closed = 1;
nodes = (
"1383 1062 LINE",
"980 1062 LINE",
"905 708 OFFCURVE",
"830 354 OFFCURVE",
"755 0 CURVE",
"1158 0 LINE"
);
}
);
width = 1404;
},
{
anchors = (
{
name = bottom;
position = "{473, -17}";
},
{
name = ogonek;
position = "{867, 0}";
},
{
name = top;
position = "{690, 1075}";
}
);
layerId = "2503C51C-5A6C-4B2C-A968-78FEA18C2585";
paths = (
{
closed = 1;
nodes = (
"721 -17 OFFCURVE",
"912 166 OFFCURVE",
"958 383 CURVE",
"929 383 LINE",
"887 186 OFFCURVE",
"704 11 OFFCURVE",
"475 11 CURVE SMOOTH",
"257 11 OFFCURVE",
"145 172 OFFCURVE",
"145 427 CURVE SMOOTH",
"145 776 OFFCURVE",
"355 1047 OFFCURVE",
"695 1047 CURVE SMOOTH",
"885 1047 OFFCURVE",
"999 915 OFFCURVE",
"999 752 CURVE SMOOTH",
"999 728 OFFCURVE",
"994 680 OFFCURVE",
"989 665 CURVE",
"1018 665 LINE",
"1022 678 OFFCURVE",
"1029 729 OFFCURVE",
"1029 758 CURVE SMOOTH",
"1029 936 OFFCURVE",
"899 1075 OFFCURVE",
"694 1075 CURVE SMOOTH",
"336 1075 OFFCURVE",
"114 794 OFFCURVE",
"114 422 CURVE SMOOTH",
"114 145 OFFCURVE",
"241 -17 OFFCURVE",
"475 -17 CURVE SMOOTH"
);
},
{
closed = 1;
nodes = (
"1104 1062 LINE",
"1073 1062 LINE",
"998 708 OFFCURVE",
"923 354 OFFCURVE",
"848 0 CURVE",
"879 0 LINE"
);
}
);
width = 1234;
}
);
leftKerningGroup = o;
leftMetricsKey = o;
rightKerningGroup = n;
rightMetricsKey = u;
},
{
glyphname = ae;
lastChange = "2020-05-21 14:57:27 +0000";
layers = (
{
anchors = (
{
name = bottom;
position = "{1036, 0}";
},
{
name = top;
position = "{1036, 1062}";
}
);
components = (
{
name = e;
transform = "{1, 0, 0, 1, 878, 0}";
}
);
layerId = "A1A0948C-E637-4A65-8CCC-05505AD98C44";
paths = (
{
closed = 1;
nodes = (
"1011 526 LINE",
"1011 555 OFFCURVE",
"1011 738 OFFCURVE",
"1011 763 CURVE SMOOTH",
"1011 965 OFFCURVE",
"832 1073 OFFCURVE",
"593 1073 CURVE SMOOTH",
"324 1073 OFFCURVE",
"128 942 OFFCURVE",
"128 721 CURVE",
"161 721 LINE",
"161 921 OFFCURVE",
"343 1045 OFFCURVE",
"593 1045 CURVE SMOOTH",
"836 1045 OFFCURVE",
"979 929 OFFCURVE",
"979 763 CURVE SMOOTH",
"979 738 OFFCURVE",
"979 570 OFFCURVE",
"979 542 CURVE"
);
},
{
closed = 1;
nodes = (
"796 -15 OFFCURVE",
"1011 110 OFFCURVE",
"1011 526 CURVE",
"979 542 LINE",
"979 114 OFFCURVE",
"774 13 OFFCURVE",
"532 13 CURVE SMOOTH",
"300 13 OFFCURVE",
"137 83 OFFCURVE",
"137 278 CURVE SMOOTH",
"137 477 OFFCURVE",
"286 554 OFFCURVE",
"555 569 CURVE SMOOTH",
"798 583 OFFCURVE",
"1009 625 OFFCURVE",
"1010 709 CURVE",
"979 726 LINE",
"979 653 OFFCURVE",
"832 615 OFFCURVE",
"543 597 CURVE SMOOTH",
"260 579 OFFCURVE",
"104 491 OFFCURVE",
"104 280 CURVE SMOOTH",
"104 59 OFFCURVE",
"283 -15 OFFCURVE",
"529 -15 CURVE SMOOTH"
);
}
);
width = 2138;
},
{
anchors = (
{
name = bottom;
position = "{1021, 0}";
},
{
name = top;
position = "{1021, 1062}";
}
);
components = (
{
name = e;
transform = "{1, 0, 0, 1, 725, 0}";
}
);
layerId = "584F9D0D-8480-40C6-ABEA-8DD6EE64252D";
paths = (
{
closed = 1;
nodes = (
"1182 590 LINE",
"1182 611 OFFCURVE",
"1182 648 OFFCURVE",
"1182 674 CURVE SMOOTH",
"1182 956 OFFCURVE",
"931 1074 OFFCURVE",
"638 1074 CURVE SMOOTH",
"328 1074 OFFCURVE",
"70 943 OFFCURVE",
"70 675 CURVE",
"467 675 LINE",
"467 749 OFFCURVE",
"528 790 OFFCURVE",
"635 790 CURVE SMOOTH",
"734 790 OFFCURVE",
"778 749 OFFCURVE",
"778 700 CURVE SMOOTH",
"778 695 OFFCURVE",
"778 600 OFFCURVE",
"778 561 CURVE"
);
},
{
closed = 1;
nodes = (
"744 -14 OFFCURVE",
"1027 65 OFFCURVE",
"1027 345 CURVE",
"785 518 LINE",
"785 333 OFFCURVE",
"667 272 OFFCURVE",
"564 272 CURVE SMOOTH",
"492 272 OFFCURVE",
"450 288 OFFCURVE",
"450 333 CURVE SMOOTH",
"450 378 OFFCURVE",
"494 388 OFFCURVE",
"586 400 CURVE SMOOTH",
"731 419 OFFCURVE",
"947 498 OFFCURVE",
"947 565 CURVE",
"778 690 LINE",
"778 643 OFFCURVE",
"700 626 OFFCURVE",
"525 609 CURVE SMOOTH",
"299 587 OFFCURVE",
"46 523 OFFCURVE",
"46 288 CURVE SMOOTH",
"46 45 OFFCURVE",
"279 -14 OFFCURVE",
"507 -14 CURVE SMOOTH"
);
}
);
width = 2047;
},
{
anchors = (
{
name = bottom;
position = "{898, 0}";
},
{
name = top;
position = "{1124, 1062}";
}
);
components = (
{
name = e;
transform = "{1, 0, 0, 1, 710, 0}";
}
);
layerId = "3FDD6C00-F7FD-4E85-84B0-0136AF7D7529";
paths = (
{
closed = 1;
nodes = (
"1177 492 LINE",
"1183 522 OFFCURVE",
"1218 732 OFFCURVE",
"1218 758 CURVE SMOOTH",
"1218 980 OFFCURVE",
"992 1074 OFFCURVE",
"730 1074 CURVE SMOOTH",
"420 1074 OFFCURVE",
"154 943 OFFCURVE",
"97 675 CURVE",
"494 675 LINE",
"510 749 OFFCURVE",
"579 790 OFFCURVE",
"686 790 CURVE SMOOTH",
"774 790 OFFCURVE",
"812 757 OFFCURVE",
"812 716 CURVE SMOOTH",
"812 711 OFFCURVE",
"779 523 OFFCURVE",
"778 518 CURVE"
);
},
{
closed = 1;
nodes = (
"687 -14 OFFCURVE",
"978 72 OFFCURVE",
"1039 345 CURVE",
"778 518 LINE",
"739 333 OFFCURVE",
"608 272 OFFCURVE",
"505 272 CURVE SMOOTH",
"440 272 OFFCURVE",
"403 284 OFFCURVE",
"403 324 CURVE SMOOTH",
"403 379 OFFCURVE",
"470 389 OFFCURVE",
"554 400 CURVE SMOOTH",
"703 419 OFFCURVE",
"936 498 OFFCURVE",
"950 565 CURVE",
"808 690 LINE",
"798 643 OFFCURVE",
"706 628 OFFCURVE",
"528 609 CURVE SMOOTH",
"242 579 OFFCURVE",
"-9 504 OFFCURVE",
"-9 249 CURVE SMOOTH",
"-9 106 OFFCURVE",
"147 -14 OFFCURVE",
"375 -14 CURVE SMOOTH"
);
}
);
width = 2023;
},
{
anchors = (
{
name = bottom;
position = "{921, 0}";
},
{
name = top;
position = "{1147, 1062}";
}
);
components = (
{
name = e;
transform = "{1, 0, 0, 1, 857, 0}";
}
);
layerId = "2503C51C-5A6C-4B2C-A968-78FEA18C2585";
paths = (
{
closed = 1;
nodes = (
"1007 523 LINE",
"1015 552 OFFCURVE",
"1066 746 OFFCURVE",
"1066 845 CURVE SMOOTH",
"1066 994 OFFCURVE",
"919 1073 OFFCURVE",
"715 1073 CURVE SMOOTH",
"446 1073 OFFCURVE",
"252 942 OFFCURVE",
"205 721 CURVE",
"238 721 LINE",
"280 921 OFFCURVE",
"465 1045 OFFCURVE",
"715 1045 CURVE SMOOTH",
"917 1045 OFFCURVE",
"1034 965 OFFCURVE",
"1034 842 CURVE SMOOTH",
"1034 743 OFFCURVE",
"982 551 OFFCURVE",
"974 523 CURVE"
);
},
{
closed = 1;
nodes = (
"742 -15 OFFCURVE",
"928 149 OFFCURVE",
"1007 523 CURVE",
"974 523 LINE",
"896 158 OFFCURVE",
"720 13 OFFCURVE",
"458 13 CURVE SMOOTH",
"206 13 OFFCURVE",
"100 111 OFFCURVE",
"100 260 CURVE SMOOTH",
"100 451 OFFCURVE",
"317 555 OFFCURVE",
"590 569 CURVE SMOOTH",
"835 582 OFFCURVE",
"1029 620 OFFCURVE",
"1048 709 CURVE",
"1022 726 LINE",
"1006 653 OFFCURVE",
"876 615 OFFCURVE",
"583 597 CURVE SMOOTH",
"297 579 OFFCURVE",
"67 471 OFFCURVE",
"67 260 CURVE SMOOTH",
"67 85 OFFCURVE",
"190 -15 OFFCURVE",
"456 -15 CURVE SMOOTH"
);
}
);
width = 2118;
}
);
leftKerningGroup = a;
leftMetricsKey = a;
rightKerningGroup = e;
rightMetricsKey = e;
unicode = 00E6;
},
{
glyphname = b;
lastChange = "2020-05-21 15:00:50 +0000";
layers = (
{
anchors = (
{
name = bottom;
position = "{592, -17}";
},
{
name = top;
position = "{583, 1563}";
}
);
layerId = "A1A0948C-E637-4A65-8CCC-05505AD98C44";
paths = (
{
closed = 1;
nodes = (
"848 -17 OFFCURVE",
"1023 181 OFFCURVE",
"1023 529 CURVE SMOOTH",
"1023 877 OFFCURVE",
"848 1075 OFFCURVE",
"589 1075 CURVE SMOOTH",
"349 1075 OFFCURVE",
"159 886 OFFCURVE",
"159 675 CURVE",
"189 675 LINE",
"189 872 OFFCURVE",
"373 1047 OFFCURVE",
"589 1047 CURVE SMOOTH",
"829 1047 OFFCURVE",
"992 858 OFFCURVE",
"992 529 CURVE SMOOTH",
"992 200 OFFCURVE",
"829 11 OFFCURVE",
"589 11 CURVE SMOOTH",
"373 11 OFFCURVE",
"189 186 OFFCURVE",
"189 383 CURVE SMOOTH",
"189 385 OFFCURVE",
"189 388 OFFCURVE",
"189 390 CURVE",
"159 390 LINE",
"159 388 OFFCURVE",
"159 385 OFFCURVE",
"159 383 CURVE SMOOTH",
"159 172 OFFCURVE",
"349 -17 OFFCURVE",
"589 -17 CURVE SMOOTH"
);
},
{
closed = 1;
nodes = (
"189 0 LINE",
"189 1563 LINE",
"158 1563 LINE",
"158 0 LINE"
);
}
);
width = 1200;
},
{
anchors = (
{
name = bottom;
position = "{663, 0}";
},
{
name = top;
position = "{663, 1563}";
}
);
layerId = "584F9D0D-8480-40C6-ABEA-8DD6EE64252D";
paths = (
{
closed = 1;
nodes = (
"1059 -25 OFFCURVE",
"1294 166 OFFCURVE",
"1294 538 CURVE SMOOTH",
"1294 890 OFFCURVE",
"1049 1083 OFFCURVE",
"792 1083 CURVE SMOOTH",
"537 1083 OFFCURVE",
"336 866 OFFCURVE",
"336 571 CURVE",
"478 561 LINE",
"478 694 OFFCURVE",
"582 757 OFFCURVE",
"676 757 CURVE SMOOTH",
"778 757 OFFCURVE",
"878 695 OFFCURVE",
"878 538 CURVE SMOOTH",
"878 381 OFFCURVE",
"777 314 OFFCURVE",
"676 314 CURVE SMOOTH",
"580 314 OFFCURVE",
"478 382 OFFCURVE",
"478 515 CURVE SMOOTH",
"478 519 OFFCURVE",
"478 524 OFFCURVE",
"478 528 CURVE",
"336 525 LINE",
"336 518 OFFCURVE",
"336 512 OFFCURVE",
"336 505 CURVE SMOOTH",
"336 210 OFFCURVE",
"537 -25 OFFCURVE",
"792 -25 CURVE SMOOTH"
);
},
{
closed = 1;
nodes = (
"478 0 LINE",
"478 1563 LINE",
"74 1563 LINE",
"74 0 LINE"
);
}
);
width = 1352;
},
{
anchors = (
{
name = bottom;
position = "{668, -25}";
},
{
name = top;
position = "{942, 1563}";
}
);
layerId = "3FDD6C00-F7FD-4E85-84B0-0136AF7D7529";
paths = (
{
closed = 1;
nodes = (
"1058 -25 OFFCURVE",
"1295 252 OFFCURVE",
"1295 628 CURVE SMOOTH",
"1295 917 OFFCURVE",
"1126 1083 OFFCURVE",
"885 1083 CURVE SMOOTH",
"630 1083 OFFCURVE",
"405 866 OFFCURVE",
"342 571 CURVE",
"481 561 LINE",
"509 694 OFFCURVE",
"627 757 OFFCURVE",
"721 757 CURVE SMOOTH",
"815 757 OFFCURVE",
"878 706 OFFCURVE",
"878 593 CURVE SMOOTH",
"878 434 OFFCURVE",
"794 314 OFFCURVE",
"627 314 CURVE SMOOTH",
"543 314 OFFCURVE",
"467 366 OFFCURVE",
"467 467 CURVE SMOOTH",
"467 482 OFFCURVE",
"470 512 OFFCURVE",
"474 528 CURVE",
"332 525 LINE",
"323 501 OFFCURVE",
"315 457 OFFCURVE",
"315 386 CURVE SMOOTH",
"315 151 OFFCURVE",
"474 -25 OFFCURVE",
"693 -25 CURVE SMOOTH"
);
},
{
closed = 1;
nodes = (
"362 0 LINE",
"695 1563 LINE",
"291 1563 LINE",
"-42 0 LINE"
);
}
);
width = 1348;
},
{
anchors = (
{
name = bottom;
position = "{470, 0}";
},
{
name = top;
position = "{802, 1563}";
}
);
layerId = "2503C51C-5A6C-4B2C-A968-78FEA18C2585";
paths = (
{
closed = 1;
nodes = (
"821 -17 OFFCURVE",
"1026 295 OFFCURVE",
"1026 664 CURVE SMOOTH",
"1026 920 OFFCURVE",
"924 1075 OFFCURVE",
"696 1075 CURVE SMOOTH",
"456 1075 OFFCURVE",
"232 886 OFFCURVE",
"187 675 CURVE",
"216 675 LINE",
"258 872 OFFCURVE",
"480 1047 OFFCURVE",
"696 1047 CURVE SMOOTH",
"905 1047 OFFCURVE",
"995 902 OFFCURVE",
"995 663 CURVE SMOOTH",
"995 317 OFFCURVE",
"804 11 OFFCURVE",
"476 11 CURVE SMOOTH",
"285 11 OFFCURVE",
"148 148 OFFCURVE",
"148 316 CURVE SMOOTH",
"148 347 OFFCURVE",
"156 388 OFFCURVE",
"156 390 CURVE",
"126 390 LINE",
"126 389 OFFCURVE",
"117 344 OFFCURVE",
"117 311 CURVE SMOOTH",
"117 131 OFFCURVE",
"264 -17 OFFCURVE",
"476 -17 CURVE SMOOTH"
);
},
{
closed = 1;
nodes = (
"73 0 LINE",
"406 1563 LINE",
"375 1563 LINE",
"42 0 LINE"
);
}
);
width = 1188;
}
);
leftKerningGroup = h;
leftMetricsKey = h;
note = b;
rightKerningGroup = o;
rightMetricsKey = o;
unicode = 0062;
},
{
glyphname = c;
lastChange = "2020-05-21 15:02:48 +0000";
layers = (
{
anchors = (
{
name = bottom;
position = "{609, -15}";
},
{
name = top;
position = "{594, 1075}";
}
);
layerId = "A1A0948C-E637-4A65-8CCC-05505AD98C44";
paths = (
{
closed = 1;
nodes = (
"906 -17 OFFCURVE",
"1053 170 OFFCURVE",
"1053 325 CURVE",
"1022 325 LINE",
"1022 183 OFFCURVE",
"889 11 OFFCURVE",
"611 11 CURVE SMOOTH",
"364 11 OFFCURVE",
"135 193 OFFCURVE",
"135 529 CURVE SMOOTH",
"135 865 OFFCURVE",
"365 1047 OFFCURVE",
"611 1047 CURVE SMOOTH",
"826 1047 OFFCURVE",
"996 915 OFFCURVE",
"1021 750 CURVE SMOOTH",
"1022 743 OFFCURVE",
"1022 734 OFFCURVE",
"1022 727 CURVE",
"1053 727 LINE",
"1053 729 OFFCURVE",
"1053 731 OFFCURVE",
"1053 733 CURVE SMOOTH",
"1053 878 OFFCURVE",
"888 1075 OFFCURVE",
"611 1075 CURVE SMOOTH",
"346 1075 OFFCURVE",
"104 882 OFFCURVE",
"104 529 CURVE SMOOTH",
"104 176 OFFCURVE",
"346 -17 OFFCURVE",
"611 -17 CURVE SMOOTH"
);
}
);
width = 1230;
},
{
anchors = (
{
name = bottom;
position = "{653, -16}";
},
{
name = top;
position = "{638, 1083}";
}
);
layerId = "584F9D0D-8480-40C6-ABEA-8DD6EE64252D";
paths = (
{
closed = 1;
nodes = (
"1047 -26 OFFCURVE",
"1228 220 OFFCURVE",
"1228 424 CURVE",
"828 424 LINE",
"816 364 OFFCURVE",
"766 285 OFFCURVE",
"653 285 CURVE SMOOTH",
"531 285 OFFCURVE",
"455 389 OFFCURVE",
"455 536 CURVE SMOOTH",
"455 685 OFFCURVE",
"531 773 OFFCURVE",
"653 773 CURVE SMOOTH",
"762 773 OFFCURVE",
"805 714 OFFCURVE",
"823 659 CURVE SMOOTH",
"825 654 OFFCURVE",
"829 639 OFFCURVE",
"829 631 CURVE",
"1228 631 LINE",
"1228 634 OFFCURVE",
"1228 637 OFFCURVE",
"1228 640 CURVE SMOOTH",
"1228 844 OFFCURVE",
"1047 1084 OFFCURVE",
"661 1084 CURVE SMOOTH",
"288 1084 OFFCURVE",
"46 861 OFFCURVE",
"46 536 CURVE SMOOTH",
"46 211 OFFCURVE",
"288 -26 OFFCURVE",
"661 -26 CURVE SMOOTH"
);
}
);
width = 1286;
},
{
anchors = (
{
name = bottom;
position = "{548, -16}";
},
{
name = top;
position = "{763, 1083}";
}
);
layerId = "3FDD6C00-F7FD-4E85-84B0-0136AF7D7529";
paths = (
{
closed = 1;
nodes = (
"945 -26 OFFCURVE",
"1156 220 OFFCURVE",
"1200 424 CURVE",
"800 424 LINE",
"775 364 OFFCURVE",
"703 285 OFFCURVE",
"595 285 CURVE SMOOTH",
"492 285 OFFCURVE",
"449 356 OFFCURVE",
"449 466 CURVE SMOOTH",
"449 669 OFFCURVE",
"571 773 OFFCURVE",
"699 773 CURVE SMOOTH",
"812 773 OFFCURVE",
"847 703 OFFCURVE",
"847 647 CURVE SMOOTH",
"847 642 OFFCURVE",
"846 634 OFFCURVE",
"845 631 CURVE",
"1244 631 LINE",
"1246 638 OFFCURVE",
"1253 676 OFFCURVE",
"1253 707 CURVE SMOOTH",
"1253 891 OFFCURVE",
"1095 1084 OFFCURVE",
"751 1084 CURVE SMOOTH",
"351 1084 OFFCURVE",
"39 828 OFFCURVE",
"39 439 CURVE SMOOTH",
"39 165 OFFCURVE",
"210 -26 OFFCURVE",
"559 -26 CURVE SMOOTH"
);
}
);
width = 1278;
},
{
anchors = (
{
name = bottom;
position = "{501, -15}";
},
{
name = top;
position = "{722, 1075}";
}
);
layerId = "2503C51C-5A6C-4B2C-A968-78FEA18C2585";
paths = (
{
closed = 1;
nodes = (
"811 -17 OFFCURVE",
"989 180 OFFCURVE",
"1022 335 CURVE",
"991 335 LINE",
"960 193 OFFCURVE",
"790 11 OFFCURVE",
"511 11 CURVE SMOOTH",
"285 11 OFFCURVE",
"141 173 OFFCURVE",
"141 419 CURVE SMOOTH",
"141 764 OFFCURVE",
"395 1047 OFFCURVE",
"731 1047 CURVE SMOOTH",
"962 1047 OFFCURVE",
"1078 900 OFFCURVE",
"1078 767 CURVE SMOOTH",
"1078 751 OFFCURVE",
"1074 723 OFFCURVE",
"1072 717 CURVE",
"1103 717 LINE",
"1105 723 OFFCURVE",
"1109 752 OFFCURVE",
"1109 772 CURVE SMOOTH",
"1109 916 OFFCURVE",
"982 1075 OFFCURVE",
"731 1075 CURVE SMOOTH",
"373 1075 OFFCURVE",
"111 787 OFFCURVE",
"111 418 CURVE SMOOTH",
"111 154 OFFCURVE",
"262 -17 OFFCURVE",
"511 -17 CURVE SMOOTH"
);
}
);
width = 1233;
}
);
leftKerningGroup = o;
leftMetricsKey = o;
note = c;
rightKerningGroup = o;
rightMetricsKey = o;
unicode = 0063;
},
{
glyphname = d;
lastChange = "2020-05-21 15:31:00 +0000";
layers = (
{
anchors = (
{
name = bottom;
position = "{538, -12}";
},
{
name = center;
position = "{952, 1295}";
},
{
name = top;
position = "{558, 1563}";
},
{
name = topright;
position = "{1090, 1062}";
}
);
layerId = "A1A0948C-E637-4A65-8CCC-05505AD98C44";
paths = (
{
closed = 1;
nodes = (
"767 -17 OFFCURVE",
"968 159 OFFCURVE",
"968 390 CURVE",
"938 390 LINE",
"938 179 OFFCURVE",
"750 11 OFFCURVE",
"538 11 CURVE SMOOTH",
"298 11 OFFCURVE",
"135 200 OFFCURVE",
"135 529 CURVE SMOOTH",
"135 858 OFFCURVE",
"298 1047 OFFCURVE",
"538 1047 CURVE SMOOTH",
"754 1047 OFFCURVE",
"938 872 OFFCURVE",
"938 675 CURVE SMOOTH",
"938 670 OFFCURVE",
"938 666 OFFCURVE",
"938 661 CURVE",
"968 657 LINE",
"968 663 OFFCURVE",
"968 669 OFFCURVE",
"968 675 CURVE SMOOTH",
"968 886 OFFCURVE",
"778 1075 OFFCURVE",
"538 1075 CURVE SMOOTH",
"279 1075 OFFCURVE",
"104 877 OFFCURVE",
"104 529 CURVE SMOOTH",
"104 181 OFFCURVE",
"279 -17 OFFCURVE",
"538 -17 CURVE SMOOTH"
);
},
{
closed = 1;
nodes = (
"969 1563 LINE",
"938 1563 LINE",
"938 0 LINE",
"969 0 LINE"
);
}
);
width = 1185;
},
{
anchors = (
{
name = bottom;
position = "{548, -19}";
},
{
name = center;
position = "{1060, 1298}";
},
{
name = top;
position = "{625, 1563}";
},
{
name = topright;
position = "{1361, 1062}";
}
);
layerId = "584F9D0D-8480-40C6-ABEA-8DD6EE64252D";
paths = (
{
closed = 1;
nodes = (
"803 -26 OFFCURVE",
"1004 210 OFFCURVE",
"1004 505 CURVE",
"862 515 LINE",
"862 382 OFFCURVE",
"760 314 OFFCURVE",
"664 314 CURVE SMOOTH",
"563 314 OFFCURVE",
"462 381 OFFCURVE",
"462 538 CURVE SMOOTH",
"462 695 OFFCURVE",
"563 757 OFFCURVE",
"664 757 CURVE SMOOTH",
"758 757 OFFCURVE",
"862 694 OFFCURVE",
"862 561 CURVE SMOOTH",
"862 557 OFFCURVE",
"862 552 OFFCURVE",
"862 548 CURVE",
"1004 548 LINE",
"1004 556 OFFCURVE",
"1004 563 OFFCURVE",
"1004 571 CURVE SMOOTH",
"1004 866 OFFCURVE",
"803 1084 OFFCURVE",
"548 1084 CURVE SMOOTH",
"291 1084 OFFCURVE",
"46 890 OFFCURVE",
"46 538 CURVE SMOOTH",
"46 166 OFFCURVE",
"281 -26 OFFCURVE",
"548 -26 CURVE SMOOTH"
);
},
{
closed = 1;
nodes = (
"1266 1563 LINE",
"862 1563 LINE",
"862 0 LINE",
"1266 0 LINE"
);
}
);
width = 1376;
},
{
anchors = (
{
name = bottom;
position = "{439, -19}";
},
{
name = center;
position = "{1210, 1298}";
},
{
name = top;
position = "{856, 1580}";
},
{
name = topright;
position = "{1470, 1062}";
}
);
layerId = "3FDD6C00-F7FD-4E85-84B0-0136AF7D7529";
paths = (
{
closed = 1;
nodes = (
"680 -26 OFFCURVE",
"929 210 OFFCURVE",
"992 505 CURVE",
"852 515 LINE",
"824 382 OFFCURVE",
"707 314 OFFCURVE",
"611 314 CURVE SMOOTH",
"520 314 OFFCURVE",
"454 375 OFFCURVE",
"454 487 CURVE SMOOTH",
"454 642 OFFCURVE",
"555 757 OFFCURVE",
"705 757 CURVE SMOOTH",
"787 757 OFFCURVE",
"867 709 OFFCURVE",
"867 608 CURVE SMOOTH",
"867 593 OFFCURVE",
"863 564 OFFCURVE",
"859 548 CURVE",
"1001 548 LINE",
"1012 591 OFFCURVE",
"1020 654 OFFCURVE",
"1020 697 CURVE SMOOTH",
"1020 923 OFFCURVE",
"874 1084 OFFCURVE",
"657 1084 CURVE SMOOTH",
"303 1084 OFFCURVE",
"35 778 OFFCURVE",
"35 414 CURVE SMOOTH",
"35 130 OFFCURVE",
"186 -26 OFFCURVE",
"425 -26 CURVE SMOOTH"
);
},
{
closed = 1;
nodes = (
"1479 1563 LINE",
"1075 1563 LINE",
"742 0 LINE",
"1146 0 LINE"
);
}
);
width = 1377;
},
{
anchors = (
{
name = bottom;
position = "{450, -12}";
},
{
name = center;
position = "{1134, 1295}";
},
{
name = top;
position = "{802, 1563}";
},
{
name = topright;
position = "{1261, 1062}";
}
);
layerId = "2503C51C-5A6C-4B2C-A968-78FEA18C2585";
paths = (
{
closed = 1;
nodes = (
"710 -17 OFFCURVE",
"903 172 OFFCURVE",
"948 383 CURVE",
"919 383 LINE",
"877 186 OFFCURVE",
"686 11 OFFCURVE",
"450 11 CURVE SMOOTH",
"242 11 OFFCURVE",
"141 163 OFFCURVE",
"141 389 CURVE SMOOTH",
"141 739 OFFCURVE",
"329 1045 OFFCURVE",
"660 1045 CURVE SMOOTH",
"851 1045 OFFCURVE",
"988 910 OFFCURVE",
"988 742 CURVE SMOOTH",
"988 717 OFFCURVE",
"984 692 OFFCURVE",
"978 661 CURVE",
"1007 657 LINE",
"1007 659 OFFCURVE",
"1018 702 OFFCURVE",
"1018 747 CURVE SMOOTH",
"1018 927 OFFCURVE",
"873 1073 OFFCURVE",
"661 1073 CURVE SMOOTH",
"311 1073 OFFCURVE",
"109 760 OFFCURVE",
"109 387 CURVE SMOOTH",
"109 145 OFFCURVE",
"222 -17 OFFCURVE",
"448 -17 CURVE SMOOTH"
);
},
{
closed = 1;
nodes = (
"1200 1563 LINE",
"1170 1563 LINE",
"837 0 LINE",
"867 0 LINE"
);
}
);
width = 1185;
}
);
leftKerningGroup = o;
leftMetricsKey = o;
note = d;
rightKerningGroup = l;
unicode = 0064;
},
{
glyphname = eth;
lastChange = "2020-05-21 15:50:07 +0000";
layers = (
{
components = (
{
name = o;
}
);
layerId = "A1A0948C-E637-4A65-8CCC-05505AD98C44";
paths = (
{
closed = 1;
nodes = (
"680 1339 LINE",
"901 1509 LINE",
"874 1530 LINE",
"653 1360 LINE"
);
},
{
closed = 1;
nodes = (
"1118 533 LINE",
"1118 1182 OFFCURVE",
"871 1446 OFFCURVE",
"545 1554 CURVE",
"517 1530 LINE",
"835 1437 OFFCURVE",
"1087 1173 OFFCURVE",
"1087 533 CURVE"
);
}
);
width = 1334;
},
{
components = (
{
name = o;
}
);
layerId = "584F9D0D-8480-40C6-ABEA-8DD6EE64252D";
paths = (
{
closed = 1;
nodes = (
"609 1103 LINE",
"997 1468 LINE",
"782 1591 LINE",
"392 1222 LINE"
);
},
{
closed = 1;
nodes = (
"1258 530 LINE",
"1258 1179 OFFCURVE",
"918 1475 OFFCURVE",
"481 1576 CURVE",
"312 1394 LINE",
"652 1306 OFFCURVE",
"860 1173 OFFCURVE",
"862 530 CURVE"
);
}
);
width = 1368;
},
{
components = (
{
name = o;
}
);
layerId = "3FDD6C00-F7FD-4E85-84B0-0136AF7D7529";
paths = (
{
closed = 1;
nodes = (
"639 1103 LINE",
"1027 1468 LINE",
"812 1591 LINE",
"422 1222 LINE"
);
},
{
closed = 1;
nodes = (
"1266 627 LINE",
"1266 1192 OFFCURVE",
"948 1475 OFFCURVE",
"511 1576 CURVE",
"342 1394 LINE",
"682 1306 OFFCURVE",
"872 1172 OFFCURVE",
"872 643 CURVE"
);
}
);
width = 1378;
},
{
components = (
{
name = o;
}
);
layerId = "2503C51C-5A6C-4B2C-A968-78FEA18C2585";
paths = (
{
closed = 1;
nodes = (
"814 1339 LINE",
"1035 1509 LINE",
"1008 1530 LINE",
"787 1360 LINE"
);
},
{
closed = 1;
nodes = (
"1135 653 LINE",
"1135 1150 OFFCURVE",
"961 1479 OFFCURVE",
"715 1554 CURVE",
"692 1531 LINE",
"937 1456 OFFCURVE",
"1104 1131 OFFCURVE",
"1104 649 CURVE"
);
}
);
width = 1330;
}
);
leftKerningGroup = o;
leftMetricsKey = o;
rightKerningGroup = d;
rightMetricsKey = d;
unicode = 00F0;
},
{
glyphname = dcroat;
lastChange = "2020-05-15 16:19:24 +0000";
layers = (
{
components = (
{
name = d;
transform = "{1, 0, 0, 1, -101, 0}";
}
);
layerId = "A1A0948C-E637-4A65-8CCC-05505AD98C44";
paths = (
{
closed = 1;
nodes = (
"1123 1362 LINE",
"1123 1388 LINE",
"635 1388 LINE",
"635 1362 LINE"
);
}
);
width = 1095;
},
{
components = (
{
name = d;
transform = "{1, 0, 0, 1, -101, 0}";
}
);
layerId = "584F9D0D-8480-40C6-ABEA-8DD6EE64252D";
paths = (
{
closed = 1;
nodes = (
"1312 1187 LINE",
"1312 1432 LINE",
"411 1432 LINE",
"411 1187 LINE"
);
}
);
width = 1243;
},
{
components = (
{
name = d;
transform = "{1, 0, 0, 1, -87, 0}";
}
);
layerId = "3FDD6C00-F7FD-4E85-84B0-0136AF7D7529";
paths = (
{
closed = 1;
nodes = (
"1493 1187 LINE",
"1548 1432 LINE",
"648 1432 LINE",
"592 1187 LINE"
);
}
);
width = 1243;
},
{
components = (
{
name = d;
transform = "{1, 0, 0, 1, -82, 0}";
}
);
layerId = "2503C51C-5A6C-4B2C-A968-78FEA18C2585";
paths = (
{
closed = 1;
nodes = (
"1290 1362 LINE",
"1292 1388 LINE",
"804 1388 LINE",
"801 1362 LINE"
);
}
);
width = 1095;
}
);
leftKerningGroup = o;
rightKerningGroup = l;
unicode = 0111;
},
{
glyphname = e;
lastChange = "2020-05-21 15:04:38 +0000";
layers = (
{
anchors = (
{
name = bottom;
position = "{608, -12}";
},
{
name = ogonek;
position = "{657, -10}";
},
{
name = top;
position = "{596, 1075}";
}
);
layerId = "A1A0948C-E637-4A65-8CCC-05505AD98C44";
paths = (
{
closed = 1;
nodes = (
"1083 512 LINE",
"1083 521 OFFCURVE",
"1083 535 OFFCURVE",
"1083 544 CURVE SMOOTH",
"1083 828 OFFCURVE",
"898 1075 OFFCURVE",
"609 1075 CURVE SMOOTH",
"321 1075 OFFCURVE",
"104 847 OFFCURVE",
"104 527 CURVE SMOOTH",
"104 207 OFFCURVE",
"322 -17 OFFCURVE",
"608 -17 CURVE SMOOTH",
"907 -17 OFFCURVE",
"1056 202 OFFCURVE",
"1067 332 CURVE",
"1036 332 LINE",
"1024 220 OFFCURVE",
"892 11 OFFCURVE",
"608 11 CURVE SMOOTH",
"339 11 OFFCURVE",
"135 234 OFFCURVE",
"135 527 CURVE SMOOTH",
"135 813 OFFCURVE",
"333 1047 OFFCURVE",
"609 1047 CURVE SMOOTH",
"880 1047 OFFCURVE",
"1052 806 OFFCURVE",
"1052 554 CURVE SMOOTH",
"1052 548 OFFCURVE",
"1052 546 OFFCURVE",
"1052 538 CURVE",
"1065 542 LINE",
"127 542 LINE",
"127 512 LINE"
);
}
);
width = 1260;
},
{
anchors = (
{
name = bottom;
position = "{656, -17}";
},
{
name = ogonek;
position = "{808, 17}";
},
{
name = top;
position = "{653, 1084}";
}
);
layerId = "584F9D0D-8480-40C6-ABEA-8DD6EE64252D";
paths = (
{
closed = 1;
nodes = (
"1260 421 LINE",
"1262 438 OFFCURVE",
"1264 466 OFFCURVE",
"1264 506 CURVE SMOOTH",
"1264 861 OFFCURVE",
"1031 1084 OFFCURVE",
"655 1084 CURVE SMOOTH",
"290 1084 OFFCURVE",
"46 863 OFFCURVE",
"46 529 CURVE SMOOTH",
"46 202 OFFCURVE",
"280 -26 OFFCURVE",
"655 -26 CURVE SMOOTH",
"1016 -26 OFFCURVE",
"1230 148 OFFCURVE",
"1250 336 CURVE",
"852 336 LINE",
"840 295 OFFCURVE",
"775 262 OFFCURVE",
"676 262 CURVE SMOOTH",
"484 262 OFFCURVE",
"435 362 OFFCURVE",
"435 539 CURVE SMOOTH",
"435 707 OFFCURVE",
"517 800 OFFCURVE",
"660 800 CURVE SMOOTH",
"797 800 OFFCURVE",
"859 711 OFFCURVE",
"859 643 CURVE SMOOTH",
"859 633 OFFCURVE",
"860 619 OFFCURVE",
"860 609 CURVE",
"889 661 LINE",
"343 661 LINE",
"343 421 LINE"
);
}
);
width = 1322;
},
{
anchors = (
{
name = bottom;
position = "{540, -17}";
},
{
name = ogonek;
position = "{692, 17}";
},
{
name = top;
position = "{747, 1062}";
}
);
layerId = "3FDD6C00-F7FD-4E85-84B0-0136AF7D7529";
paths = (
{
closed = 1;
nodes = (
"1230 421 LINE",
"1250 477 OFFCURVE",
"1267 575 OFFCURVE",
"1267 641 CURVE SMOOTH",
"1267 914 OFFCURVE",
"1061 1083 OFFCURVE",
"744 1083 CURVE SMOOTH",
"343 1083 OFFCURVE",
"37 818 OFFCURVE",
"37 427 CURVE SMOOTH",
"37 158 OFFCURVE",
"209 -25 OFFCURVE",
"552 -25 CURVE SMOOTH",
"923 -25 OFFCURVE",
"1142 148 OFFCURVE",
"1202 336 CURVE",
"804 336 LINE",
"783 295 OFFCURVE",
"711 262 OFFCURVE",
"612 262 CURVE SMOOTH",
"462 262 OFFCURVE",
"422 315 OFFCURVE",
"422 415 CURVE SMOOTH",
"422 623 OFFCURVE",
"518 800 OFFCURVE",
"711 800 CURVE SMOOTH",
"831 800 OFFCURVE",
"879 732 OFFCURVE",
"879 669 CURVE SMOOTH",
"879 659 OFFCURVE",
"874 629 OFFCURVE",
"870 609 CURVE",
"910 661 LINE",
"364 661 LINE",
"313 421 LINE"
);
}
);
width = 1313;
},
{
anchors = (
{
name = bottom;
position = "{508, -12}";
},
{
name = ogonek;
position = "{557, -10}";
},
{
name = top;
position = "{723, 1075}";
}
);
layerId = "2503C51C-5A6C-4B2C-A968-78FEA18C2585";
paths = (
{
closed = 1;
nodes = (
"1088 512 LINE",
"1100 564 OFFCURVE",
"1106 613 OFFCURVE",
"1106 664 CURVE SMOOTH",
"1106 894 OFFCURVE",
"977 1075 OFFCURVE",
"730 1075 CURVE SMOOTH",
"383 1075 OFFCURVE",
"108 771 OFFCURVE",
"108 410 CURVE SMOOTH",
"108 163 OFFCURVE",
"248 -17 OFFCURVE",
"505 -17 CURVE SMOOTH",
"804 -17 OFFCURVE",
"995 202 OFFCURVE",
"1034 332 CURVE",
"1003 332 LINE",
"967 220 OFFCURVE",
"788 11 OFFCURVE",
"507 11 CURVE SMOOTH",
"256 11 OFFCURVE",
"139 190 OFFCURVE",
"139 416 CURVE SMOOTH",
"139 752 OFFCURVE",
"401 1047 OFFCURVE",
"728 1047 CURVE SMOOTH",
"962 1047 OFFCURVE",
"1075 869 OFFCURVE",
"1075 661 CURVE SMOOTH",
"1075 632 OFFCURVE",
"1069 566 OFFCURVE",
"1062 538 CURVE",
"1077 542 LINE",
"139 542 LINE",
"132 512 LINE"
);
}
);
width = 1261;
}
);
leftKerningGroup = o;
leftMetricsKey = o;
note = e;
rightKerningGroup = o;
rightMetricsKey = o;
unicode = 0065;
},
{
glyphname = f;
lastChange = "2020-05-21 15:08:47 +0000";
layers = (
{
anchors = (
{
name = bottom;
position = "{414, 0}";
},
{
name = top;
position = "{414, 1563}";
}
);
layerId = "A1A0948C-E637-4A65-8CCC-05505AD98C44";
paths = (
{
closed = 1;
nodes = (
"349 0 LINE",
"349 1034 LINE",
"653 1034 LINE",
"653 1062 LINE",
"349 1062 LINE",
"349 1230 LINE SMOOTH",
"349 1373 OFFCURVE",
"376 1550 OFFCURVE",
"584 1550 CURVE SMOOTH",
"623 1550 OFFCURVE",
"660 1542 OFFCURVE",
"677 1536 CURVE",
"677 1564 LINE",
"663 1570 OFFCURVE",
"627 1578 OFFCURVE",
"584 1578 CURVE SMOOTH",
"336 1578 OFFCURVE",
"318 1356 OFFCURVE",
"318 1230 CURVE SMOOTH",
"318 1062 LINE",
"65 1062 LINE",
"65 1034 LINE",
"318 1034 LINE",
"318 0 LINE"
);
}
);
width = 847;
},
{
anchors = (
{
name = bottom;
position = "{455, 0}";
},
{
name = top;
position = "{455, 1563}";
}
);
layerId = "584F9D0D-8480-40C6-ABEA-8DD6EE64252D";
paths = (
{
closed = 1;
nodes = (
"628 0 LINE",
"628 762 LINE",
"867 762 LINE",
"867 1062 LINE",
"628 1062 LINE",
"628 1089 LINE SMOOTH",
"628 1204 OFFCURVE",
"674 1267 OFFCURVE",
"811 1267 CURVE SMOOTH",
"860 1267 OFFCURVE",
"908 1257 OFFCURVE",
"924 1252 CURVE",
"924 1555 LINE",
"908 1562 OFFCURVE",
"867 1577 OFFCURVE",
"765 1577 CURVE SMOOTH",
"575 1577 OFFCURVE",
"226 1519 OFFCURVE",
"226 1093 CURVE SMOOTH",
"226 1062 LINE",
"2 1062 LINE",
"2 762 LINE",
"226 762 LINE",
"226 0 LINE"
);
}
);
width = 940;
},
{
anchors = (
{
name = bottom;
position = "{317, 0}";
},
{
name = top;
position = "{679, 1563}";
}
);
layerId = "3FDD6C00-F7FD-4E85-84B0-0136AF7D7529";
paths = (
{
closed = 1;
nodes = (
"517 0 LINE",
"679 762 LINE",
"918 762 LINE",
"982 1062 LINE",
"743 1062 LINE",
"749 1089 LINE SMOOTH",
"775 1204 OFFCURVE",
"833 1267 OFFCURVE",
"970 1267 CURVE SMOOTH",
"1019 1267 OFFCURVE",
"1065 1257 OFFCURVE",
"1080 1252 CURVE",
"1147 1557 LINE",
"1130 1563 OFFCURVE",
"1061 1577 OFFCURVE",
"987 1577 CURVE SMOOTH",
"774 1577 OFFCURVE",
"444 1518 OFFCURVE",
"348 1093 CURVE SMOOTH",
"341 1062 LINE",
"117 1062 LINE",
"53 762 LINE",
"277 762 LINE",
"115 0 LINE"
);
}
);
width = 951;
},
{
anchors = (
{
name = bottom;
position = "{216, 0}";
},
{
name = top;
position = "{628, 1563}";
}
);
layerId = "2503C51C-5A6C-4B2C-A968-78FEA18C2585";
paths = (
{
closed = 1;
nodes = (
"233 0 LINE",
"454 1034 LINE",
"752 1034 LINE",
"758 1062 LINE",
"459 1062 LINE",
"495 1230 LINE SMOOTH",
"529 1389 OFFCURVE",
"605 1550 OFFCURVE",
"795 1550 CURVE SMOOTH",
"833 1550 OFFCURVE",
"867 1542 OFFCURVE",
"883 1536 CURVE",
"888 1564 LINE",
"875 1570 OFFCURVE",
"842 1578 OFFCURVE",
"800 1578 CURVE SMOOTH",
"581 1578 OFFCURVE",
"501 1403 OFFCURVE",
"464 1230 CURVE SMOOTH",
"428 1062 LINE",
"179 1062 LINE",
"174 1034 LINE",
"422 1034 LINE",
"202 0 LINE"
);
}
);
width = 847;
}
);
leftKerningGroup = f;
leftMetricsKey = t;
note = f;
rightKerningGroup = f;
unicode = 0066;
},
{
glyphname = g;
lastChange = "2020-05-21 15:06:07 +0000";
layers = (
{
anchors = (
{
name = bottom;
position = "{563, -440}";
},
{
name = top;
position = "{556, 1075}";
}
);
layerId = "A1A0948C-E637-4A65-8CCC-05505AD98C44";
paths = (
{
closed = 1;
nodes = (
"373 34 LINE SMOOTH",
"246 43 OFFCURVE",
"195 88 OFFCURVE",
"195 150 CURVE SMOOTH",
"195 221 OFFCURVE",
"270 265 OFFCURVE",
"313 274 CURVE",
"284 295 LINE",
"238 286 OFFCURVE",
"164 231 OFFCURVE",
"164 150 CURVE SMOOTH",
"164 64 OFFCURVE",
"240 14 OFFCURVE",
"363 5 CURVE SMOOTH",
"769 -24 LINE SMOOTH",
"904 -34 OFFCURVE",
"1003 -78 OFFCURVE",
"1003 -191 CURVE SMOOTH",
"1003 -303 OFFCURVE",
"879 -419 OFFCURVE",
"559 -419 CURVE SMOOTH",
"282 -419 OFFCURVE",
"134 -327 OFFCURVE",
"134 -185 CURVE SMOOTH",
"134 -133 OFFCURVE",
"149 -92 OFFCURVE",
"163 -71 CURVE",
"134 -64 LINE",
"119 -88 OFFCURVE",
"103 -129 OFFCURVE",
"103 -187 CURVE SMOOTH",
"103 -333 OFFCURVE",
"240 -447 OFFCURVE",
"552 -447 CURVE SMOOTH",
"898 -447 OFFCURVE",
"1034 -327 OFFCURVE",
"1034 -191 CURVE SMOOTH",
"1034 -63 OFFCURVE",
"926 -6 OFFCURVE",
"779 5 CURVE SMOOTH"
);
},
{
closed = 1;
nodes = (
"956 782 LINE",
"964 774 LINE",
"943 896 OFFCURVE",
"816 1075 OFFCURVE",
"559 1075 CURVE SMOOTH",
"297 1075 OFFCURVE",
"125 872 OFFCURVE",
"125 636 CURVE SMOOTH",
"125 402 OFFCURVE",
"277 201 OFFCURVE",
"556 201 CURVE SMOOTH",
"826 201 OFFCURVE",
"987 396 OFFCURVE",
"987 634 CURVE SMOOTH",
"987 1062 LINE",
"956 1062 LINE"
);
},
{
closed = 1;
nodes = (
"301 229 OFFCURVE",
"156 412 OFFCURVE",
"156 636 CURVE SMOOTH",
"156 853 OFFCURVE",
"318 1047 OFFCURVE",
"558 1047 CURVE SMOOTH",
"810 1047 OFFCURVE",
"956 859 OFFCURVE",
"956 640 CURVE SMOOTH",
"956 408 OFFCURVE",
"812 229 OFFCURVE",
"556 229 CURVE SMOOTH"
);
}
);
width = 1163;
},
{
anchors = (
{
name = bottom;
position = "{625, -437}";
},
{
name = top;
position = "{602, 1084}";
}
);
layerId = "584F9D0D-8480-40C6-ABEA-8DD6EE64252D";
paths = (
{
closed = 1;
nodes = (
"501 208 LINE SMOOTH",
"407 218 OFFCURVE",
"376 242 OFFCURVE",
"376 272 CURVE SMOOTH",
"376 298 OFFCURVE",
"406 320 OFFCURVE",
"426 323 CURVE",
"252 416 LINE",
"196 398 OFFCURVE",
"61 308 OFFCURVE",
"61 186 CURVE SMOOTH",
"61 54 OFFCURVE",
"180 -10 OFFCURVE",
"337 -30 CURVE SMOOTH",
"738 -80 LINE SMOOTH",
"794 -87 OFFCURVE",
"852 -100 OFFCURVE",
"852 -142 CURVE SMOOTH",
"852 -189 OFFCURVE",
"753 -220 OFFCURVE",
"622 -220 CURVE SMOOTH",
"491 -220 OFFCURVE",
"380 -190 OFFCURVE",
"380 -143 CURVE SMOOTH",
"380 -121 OFFCURVE",
"387 -108 OFFCURVE",
"391 -103 CURVE",
"30 -51 LINE",
"11 -80 OFFCURVE",
"0 -120 OFFCURVE",
"0 -165 CURVE SMOOTH",
"0 -345 OFFCURVE",
"232 -463 OFFCURVE",
"613 -463 CURVE SMOOTH",
"991 -463 OFFCURVE",
"1226 -345 OFFCURVE",
"1226 -117 CURVE SMOOTH",
"1226 78 OFFCURVE",
"1086 148 OFFCURVE",
"874 170 CURVE SMOOTH"
);
},
{
closed = 1;
nodes = (
"930 820 LINE",
"982 842 LINE",
"982 987 OFFCURVE",
"790 1084 OFFCURVE",
"590 1084 CURVE SMOOTH",
"294 1084 OFFCURVE",
"65 925 OFFCURVE",
"65 669 CURVE SMOOTH",
"65 414 OFFCURVE",
"285 270 OFFCURVE",
"624 270 CURVE SMOOTH",
"945 270 OFFCURVE",
"1078 429 OFFCURVE",
"1159 660 CURVE SMOOTH",
"1300 1062 LINE",
"951 1062 LINE"
);
},
{
closed = 1;
nodes = (
"531 548 OFFCURVE",
"459 590 OFFCURVE",
"459 671 CURVE SMOOTH",
"459 754 OFFCURVE",
"532 797 OFFCURVE",
"622 797 CURVE SMOOTH",
"713 797 OFFCURVE",
"784 754 OFFCURVE",
"784 673 CURVE SMOOTH",
"784 592 OFFCURVE",
"714 548 OFFCURVE",
"622 548 CURVE SMOOTH"
);
}
);
width = 1300;
},
{
anchors = (
{
name = bottom;
position = "{393, -437}";
},
{
name = top;
position = "{705, 1084}";
}
);
layerId = "3FDD6C00-F7FD-4E85-84B0-0136AF7D7529";
paths = (
{
closed = 1;
nodes = (
"433 208 LINE SMOOTH",
"350 217 OFFCURVE",
"321 237 OFFCURVE",
"321 263 CURVE SMOOTH",
"321 292 OFFCURVE",
"356 319 OFFCURVE",
"383 323 CURVE",
"228 416 LINE",
"168 398 OFFCURVE",
"-12 307 OFFCURVE",
"-12 157 CURVE SMOOTH",
"-12 51 OFFCURVE",
"90 -11 OFFCURVE",
"239 -30 CURVE SMOOTH",
"629 -80 LINE SMOOTH",
"677 -86 OFFCURVE",
"711 -97 OFFCURVE",
"711 -130 CURVE SMOOTH",
"711 -199 OFFCURVE",
"563 -220 OFFCURVE",
"463 -220 CURVE SMOOTH",
"332 -220 OFFCURVE",
"228 -190 OFFCURVE",
"238 -143 CURVE SMOOTH",
"242 -121 OFFCURVE",
"252 -108 OFFCURVE",
"257 -103 CURVE",
"-93 -51 LINE",
"-127 -91 OFFCURVE",
"-151 -154 OFFCURVE",
"-151 -206 CURVE SMOOTH",
"-151 -363 OFFCURVE",
"52 -463 OFFCURVE",
"403 -463 CURVE SMOOTH",
"752 -463 OFFCURVE",
"1091 -371 OFFCURVE",
"1091 -69 CURVE SMOOTH",
"1091 80 OFFCURVE",
"989 150 OFFCURVE",
"798 170 CURVE SMOOTH"
);
},
{
closed = 1;
nodes = (
"992 820 LINE",
"1049 842 LINE",
"1049 1021 OFFCURVE",
"854 1084 OFFCURVE",
"668 1084 CURVE SMOOTH",
"369 1084 OFFCURVE",
"93 914 OFFCURVE",
"93 614 CURVE SMOOTH",
"93 408 OFFCURVE",
"277 270 OFFCURVE",
"589 270 CURVE SMOOTH",
"910 270 OFFCURVE",
"1057 429 OFFCURVE",
"1187 660 CURVE SMOOTH",
"1414 1062 LINE",
"1065 1062 LINE"
);
},
{
closed = 1;
nodes = (
"546 548 OFFCURVE",
"487 581 OFFCURVE",
"487 645 CURVE SMOOTH",
"487 737 OFFCURVE",
"574 797 OFFCURVE",
"679 797 CURVE SMOOTH",
"760 797 OFFCURVE",
"818 763 OFFCURVE",
"818 699 CURVE SMOOTH",
"818 607 OFFCURVE",
"731 548 OFFCURVE",
"626 548 CURVE SMOOTH"
);
}
);
width = 1300;
},
{
anchors = (
{
name = bottom;
position = "{365, -440}";
},
{
name = top;
position = "{681, 1075}";
}
);
layerId = "2503C51C-5A6C-4B2C-A968-78FEA18C2585";
paths = (
{
closed = 1;
nodes = (
"261 34 LINE SMOOTH",
"144 42 OFFCURVE",
"117 84 OFFCURVE",
"117 134 CURVE SMOOTH",
"117 219 OFFCURVE",
"219 262 OFFCURVE",
"265 271 CURVE",
"237 295 LINE",
"188 286 OFFCURVE",
"86 228 OFFCURVE",
"86 132 CURVE SMOOTH",
"86 60 OFFCURVE",
"141 13 OFFCURVE",
"255 5 CURVE SMOOTH",
"654 -24 LINE SMOOTH",
"773 -33 OFFCURVE",
"857 -69 OFFCURVE",
"857 -156 CURVE SMOOTH",
"857 -333 OFFCURVE",
"608 -419 OFFCURVE",
"357 -419 CURVE SMOOTH",
"85 -419 OFFCURVE",
"-25 -362 OFFCURVE",
"-25 -230 CURVE SMOOTH",
"-25 -156 OFFCURVE",
"20 -92 OFFCURVE",
"38 -71 CURVE",
"11 -64 LINE",
"-10 -89 OFFCURVE",
"-56 -153 OFFCURVE",
"-56 -235 CURVE SMOOTH",
"-56 -369 OFFCURVE",
"51 -447 OFFCURVE",
"357 -447 CURVE SMOOTH",
"630 -447 OFFCURVE",
"888 -357 OFFCURVE",
"888 -153 CURVE SMOOTH",
"888 -51 OFFCURVE",
"790 -4 OFFCURVE",
"661 5 CURVE SMOOTH"
);
},
{
closed = 1;
nodes = (
"1013 782 LINE",
"1019 774 LINE",
"1024 896 OFFCURVE",
"926 1075 OFFCURVE",
"671 1075 CURVE SMOOTH",
"387 1075 OFFCURVE",
"148 833 OFFCURVE",
"148 540 CURVE SMOOTH",
"148 357 OFFCURVE",
"242 201 OFFCURVE",
"495 201 CURVE SMOOTH",
"765 201 OFFCURVE",
"961 396 OFFCURVE",
"1012 634 CURVE SMOOTH",
"1103 1062 LINE",
"1072 1062 LINE"
);
},
{
closed = 1;
nodes = (
"263 229 OFFCURVE",
"180 370 OFFCURVE",
"180 544 CURVE SMOOTH",
"180 813 OFFCURVE",
"407 1047 OFFCURVE",
"671 1047 CURVE SMOOTH",
"885 1047 OFFCURVE",
"993 911 OFFCURVE",
"993 737 CURVE SMOOTH",
"993 463 OFFCURVE",
"776 229 OFFCURVE",
"495 229 CURVE SMOOTH"
);
}
);
width = 1163;
}
);
leftKerningGroup = g;
note = g;
rightKerningGroup = g;
unicode = 0067;
},
{
glyphname = g.ss01;
lastChange = "2020-05-21 17:06:00 +0000";
layers = (
{
anchors = (
{
name = bottom;
position = "{530, -437}";
},
{
name = top;
position = "{530, 1062}";
}
);
components = (
{
name = a.ss01;
}
);
layerId = "A1A0948C-E637-4A65-8CCC-05505AD98C44";
paths = (
{
closed = 1;
nodes = (
"947 0 LINE",
"947 -318 OFFCURVE",
"761 -419 OFFCURVE",
"554 -419 CURVE SMOOTH",
"347 -419 OFFCURVE",
"162 -314 OFFCURVE",
"162 -104 CURVE",
"162 -102 OFFCURVE",
"162 -99 OFFCURVE",
"162 -97 CURVE",
"131 -97 LINE",
"131 -99 OFFCURVE",
"131 -102 OFFCURVE",
"131 -104 CURVE",
"131 -344 OFFCURVE",
"337 -447 OFFCURVE",
"554 -447 CURVE SMOOTH",
"771 -447 OFFCURVE",
"978 -340 OFFCURVE",
"978 0 CURVE"
);
}
);
width = 1207;
},
{
anchors = (
{
name = bottom;
position = "{664, -437}";
},
{
name = top;
position = "{664, 1062}";
}
);
components = (
{
name = a.ss01;
}
);
layerId = "584F9D0D-8480-40C6-ABEA-8DD6EE64252D";
paths = (
{
closed = 1;
nodes = (
"872 0 LINE",
"872 -115 OFFCURVE",
"810 -180 OFFCURVE",
"676 -180 CURVE SMOOTH",
"562 -180 OFFCURVE",
"495 -132 OFFCURVE",
"495 -85 CURVE",
"495 -80 OFFCURVE",
"495 -76 OFFCURVE",
"495 -71 CURVE",
"92 -71 LINE",
"92 -76 OFFCURVE",
"92 -80 OFFCURVE",
"92 -85 CURVE",
"92 -364 OFFCURVE",
"378 -457 OFFCURVE",
"667 -457 CURVE SMOOTH",
"956 -457 OFFCURVE",
"1275 -359 OFFCURVE",
"1275 0 CURVE"
);
}
);
width = 1399;
},
{
anchors = (
{
name = bottom;
position = "{451, -437}";
},
{
name = top;
position = "{770, 1062}";
}
);
components = (
{
name = a.ss01;
}
);
layerId = "3FDD6C00-F7FD-4E85-84B0-0136AF7D7529";
paths = (
{
closed = 1;
nodes = (
"755 0 LINE",
"730 -115 OFFCURVE",
"654 -180 OFFCURVE",
"520 -180 CURVE SMOOTH",
"415 -180 OFFCURVE",
"359 -139 OFFCURVE",
"359 -96 CURVE SMOOTH",
"359 -86 OFFCURVE",
"361 -76 OFFCURVE",
"362 -71 CURVE",
"-41 -71 LINE",
"-46 -94 OFFCURVE",
"-51 -122 OFFCURVE",
"-51 -157 CURVE SMOOTH",
"-51 -380 OFFCURVE",
"208 -457 OFFCURVE",
"471 -457 CURVE SMOOTH",
"760 -457 OFFCURVE",
"1081 -359 OFFCURVE",
"1158 0 CURVE"
);
}
);
width = 1404;
},
{
anchors = (
{
name = bottom;
position = "{342, -437}";
},
{
name = top;
position = "{661, 1062}";
}
);
components = (
{
name = a.ss01;
}
);
layerId = "2503C51C-5A6C-4B2C-A968-78FEA18C2585";
paths = (
{
closed = 1;
nodes = (
"848 0 LINE",
"780 -318 OFFCURVE",
"572 -419 OFFCURVE",
"365 -419 CURVE SMOOTH",
"181 -419 OFFCURVE",
"33 -336 OFFCURVE",
"33 -170 CURVE SMOOTH",
"33 -133 OFFCURVE",
"39 -106 OFFCURVE",
"42 -97 CURVE",
"11 -97 LINE",
"8 -105 OFFCURVE",
"1 -134 OFFCURVE",
"1 -177 CURVE SMOOTH",
"1 -365 OFFCURVE",
"178 -447 OFFCURVE",
"372 -447 CURVE SMOOTH",
"589 -447 OFFCURVE",
"806 -340 OFFCURVE",
"879 0 CURVE"
);
}
);
width = 1234;
}
);
leftKerningGroup = o;
leftMetricsKey = a;
rightKerningGroup = g;
rightMetricsKey = u;
},
{
glyphname = h;
lastChange = "2020-05-21 15:07:33 +0000";
layers = (
{
anchors = (
{
name = bottom;
position = "{571, 0}";
},
{
name = center;
position = "{171, 1295}";
},
{
name = top;
position = "{172, 1542}";
}
);
layerId = "A1A0948C-E637-4A65-8CCC-05505AD98C44";
paths = (
{
closed = 1;
nodes = (
"930 0 LINE",
"930 400 LINE SMOOTH",
"930 476 OFFCURVE",
"930 569 OFFCURVE",
"930 641 CURVE SMOOTH",
"930 911 OFFCURVE",
"843 1075 OFFCURVE",
"592 1075 CURVE SMOOTH",
"331 1075 OFFCURVE",
"158 887 OFFCURVE",
"158 699 CURVE",
"188 693 LINE",
"188 870 OFFCURVE",
"364 1047 OFFCURVE",
"591 1047 CURVE SMOOTH",
"813 1047 OFFCURVE",
"900 897 OFFCURVE",
"900 652 CURVE SMOOTH",
"900 582 OFFCURVE",
"900 481 OFFCURVE",
"900 413 CURVE SMOOTH",
"900 0 LINE"
);
},
{
closed = 1;
nodes = (
"188 0 LINE",
"188 1563 LINE",
"158 1563 LINE",
"158 0 LINE"
);
}
);
width = 1161;
},
{
anchors = (
{
name = bottom;
position = "{633, 0}";
},
{
name = center;
position = "{277, 1298}";
},
{
name = top;
position = "{282, 1563}";
}
);
layerId = "584F9D0D-8480-40C6-ABEA-8DD6EE64252D";
paths = (
{
closed = 1;
nodes = (
"1216 0 LINE",
"1216 340 LINE",
"1216 485 OFFCURVE",
"1216 583 OFFCURVE",
"1216 651 CURVE",
"1216 924 OFFCURVE",
"1103 1084 OFFCURVE",
"840 1084 CURVE SMOOTH",
"574 1084 OFFCURVE",
"399 903 OFFCURVE",
"399 612 CURVE",
"477 532 LINE",
"477 670 OFFCURVE",
"525 751 OFFCURVE",
"654 751 CURVE SMOOTH",
"786 751 OFFCURVE",
"813 667 OFFCURVE",
"813 532 CURVE",
"813 496 OFFCURVE",
"813 397 OFFCURVE",
"813 366 CURVE",
"813 0 LINE"
);
},
{
closed = 1;
nodes = (
"477 0 LINE",
"477 1563 LINE",
"74 1563 LINE",
"74 0 LINE"
);
}
);
width = 1286;
},
{
anchors = (
{
name = bottom;
position = "{515, 0}";
},
{
name = center;
position = "{427, 1298}";
},
{
name = top;
position = "{495, 1563}";
}
);
layerId = "3FDD6C00-F7FD-4E85-84B0-0136AF7D7529";
paths = (
{
closed = 1;
nodes = (
"1100 0 LINE",
"1206 497 LINE",
"1237 642 OFFCURVE",
"1257 740 OFFCURVE",
"1257 808 CURVE SMOOTH",
"1257 921 OFFCURVE",
"1216 1084 OFFCURVE",
"952 1084 CURVE SMOOTH",
"686 1084 OFFCURVE",
"475 903 OFFCURVE",
"413 612 CURVE",
"473 532 LINE",
"502 670 OFFCURVE",
"568 751 OFFCURVE",
"697 751 CURVE SMOOTH",
"800 751 OFFCURVE",
"823 702 OFFCURVE",
"823 641 CURVE SMOOTH",
"823 605 OFFCURVE",
"804 506 OFFCURVE",
"797 475 CURVE",
"697 0 LINE"
);
},
{
closed = 1;
nodes = (
"361 0 LINE",
"693 1563 LINE",
"290 1563 LINE",
"-42 0 LINE"
);
}
);
width = 1286;
},
{
anchors = (
{
name = bottom;
position = "{463, 0}";
},
{
name = center;
position = "{332, 1295}";
},
{
name = top;
position = "{386, 1546}";
}
);
layerId = "2503C51C-5A6C-4B2C-A968-78FEA18C2585";
paths = (
{
closed = 1;
nodes = (
"814 0 LINE",
"935 572 LINE",
"951 648 OFFCURVE",
"970 740 OFFCURVE",
"970 812 CURVE SMOOTH",
"970 893 OFFCURVE",
"963 1075 OFFCURVE",
"704 1075 CURVE SMOOTH",
"443 1075 OFFCURVE",
"231 887 OFFCURVE",
"191 699 CURVE",
"219 693 LINE",
"257 870 OFFCURVE",
"475 1047 OFFCURVE",
"702 1047 CURVE SMOOTH",
"925 1047 OFFCURVE",
"938 888 OFFCURVE",
"938 812 CURVE SMOOTH",
"938 742 OFFCURVE",
"921 642 OFFCURVE",
"906 573 CURVE",
"784 0 LINE"
);
},
{
closed = 1;
nodes = (
"72 0 LINE",
"404 1563 LINE",
"374 1563 LINE",
"42 0 LINE"
);
}
);
width = 1161;
}
);
leftKerningGroup = h;
note = h;
rightKerningGroup = n;
unicode = 0068;
},
{
glyphname = hbar;
lastChange = "2020-05-21 00:40:29 +0000";
layers = (
{
components = (
{
name = h;
}
);
layerId = "A1A0948C-E637-4A65-8CCC-05505AD98C44";
paths = (
{
closed = 1;
nodes = (
"450 1362 LINE",
"450 1388 LINE",
"-41 1388 LINE",
"-41 1362 LINE"
);
}
);
width = 1161;
},
{
components = (
{
name = h;
}
);
layerId = "584F9D0D-8480-40C6-ABEA-8DD6EE64252D";
paths = (
{
closed = 1;
nodes = (
"862 1187 LINE",
"862 1432 LINE",
"-4 1432 LINE",
"-4 1187 LINE"
);
}
);
width = 1286;
},
{
components = (
{
name = h;
}
);
layerId = "3FDD6C00-F7FD-4E85-84B0-0136AF7D7529";
paths = (
{
closed = 1;
nodes = (
"994 1187 LINE",
"1046 1432 LINE",
"180 1432 LINE",
"128 1187 LINE"
);
}
);
width = 1286;
},
{
components = (
{
name = h;
}
);
layerId = "2503C51C-5A6C-4B2C-A968-78FEA18C2585";
paths = (
{
closed = 1;
nodes = (
"620 1362 LINE",
"626 1388 LINE",
"135 1388 LINE",
"130 1362 LINE"
);
}
);
width = 1161;
}
);
leftKerningGroup = h;
rightKerningGroup = n;
unicode = 0127;
},
{
glyphname = i;
lastChange = "2020-05-21 15:09:59 +0000";
layers = (
{
anchors = (
{
name = bottom;
position = "{226, 0}";
}
);
layerId = "A1A0948C-E637-4A65-8CCC-05505AD98C44";
paths = (
{
closed = 1;
nodes = (
"242 0 LINE",
"242 1062 LINE",
"212 1062 LINE",
"212 0 LINE"
);
},
{
closed = 1;
nodes = (
"254 1377 OFFCURVE",
"277 1400 OFFCURVE",
"277 1429 CURVE SMOOTH",
"277 1457 OFFCURVE",
"254 1480 OFFCURVE",
"226 1480 CURVE SMOOTH",
"197 1480 OFFCURVE",
"174 1457 OFFCURVE",
"174 1429 CURVE SMOOTH",
"174 1400 OFFCURVE",
"197 1377 OFFCURVE",
"226 1377 CURVE SMOOTH"
);
}
);
width = 481;
},
{
anchors = (
{
name = bottom;
position = "{346, 0}";
}
);
layerId = "584F9D0D-8480-40C6-ABEA-8DD6EE64252D";
paths = (
{
closed = 1;
nodes = (
"548 0 LINE",
"548 1062 LINE",
"149 1062 LINE",
"149 0 LINE"
);
},
{
closed = 1;
nodes = (
"475 1154 OFFCURVE",
"586 1222 OFFCURVE",
"586 1344 CURVE SMOOTH",
"586 1467 OFFCURVE",
"475 1534 OFFCURVE",
"348 1534 CURVE SMOOTH",
"220 1534 OFFCURVE",
"110 1467 OFFCURVE",
"110 1344 CURVE SMOOTH",
"110 1222 OFFCURVE",
"220 1154 OFFCURVE",
"348 1154 CURVE SMOOTH"
);
}
);
width = 707;
},
{
anchors = (
{
name = bottom;
position = "{230, 0}";
}
);
layerId = "3FDD6C00-F7FD-4E85-84B0-0136AF7D7529";
paths = (
{
closed = 1;
nodes = (
"431 0 LINE",
"656 1062 LINE",
"255 1062 LINE",
"30 0 LINE"
);
},
{
closed = 1;
nodes = (
"621 1154 OFFCURVE",
"761 1234 OFFCURVE",
"761 1375 CURVE SMOOTH",
"761 1478 OFFCURVE",
"677 1534 OFFCURVE",
"561 1534 CURVE SMOOTH",
"416 1534 OFFCURVE",
"280 1450 OFFCURVE",
"280 1311 CURVE SMOOTH",
"280 1210 OFFCURVE",
"365 1154 OFFCURVE",
"481 1154 CURVE SMOOTH"
);
}
);
width = 707;
},
{
anchors = (
{
name = bottom;
position = "{99, 0}";
}
);
layerId = "2503C51C-5A6C-4B2C-A968-78FEA18C2585";
paths = (
{
closed = 1;
nodes = (
"114 0 LINE",
"339 1062 LINE",
"309 1062 LINE",
"84 0 LINE"
);
},
{
closed = 1;
nodes = (
"433 1377 OFFCURVE",
"456 1400 OFFCURVE",
"456 1429 CURVE SMOOTH",
"456 1457 OFFCURVE",
"433 1480 OFFCURVE",
"405 1480 CURVE SMOOTH",
"376 1480 OFFCURVE",
"353 1457 OFFCURVE",
"353 1429 CURVE SMOOTH",
"353 1400 OFFCURVE",
"376 1377 OFFCURVE",
"405 1377 CURVE SMOOTH"
);
}
);
width = 481;
}
);
leftKerningGroup = i;
note = i;
rightKerningGroup = i;
unicode = 0069;
},
{
glyphname = idotless;
lastChange = "2020-05-15 16:19:24 +0000";
layers = (
{
anchors = (
{
name = bottom;
position = "{224, 0}";
},
{
name = ogonek;
position = "{240, 0}";
},
{
name = top;
position = "{224, 1062}";
}
);
layerId = "A1A0948C-E637-4A65-8CCC-05505AD98C44";
paths = (
{
closed = 1;
nodes = (
"239 0 LINE",
"239 1062 LINE",
"209 1062 LINE",
"209 0 LINE"
);
}
);
width = 509;
},
{
anchors = (
{
name = bottom;
position = "{352, 0}";
},
{
name = ogonek;
position = "{553, 0}";
},
{
name = top;
position = "{352, 1062}";
}
);
layerId = "584F9D0D-8480-40C6-ABEA-8DD6EE64252D";
paths = (
{
closed = 1;
nodes = (
"553 0 LINE",
"553 1062 LINE",
"151 1062 LINE",
"151 0 LINE"
);
}
);
width = 683;
},
{
anchors = (
{
name = bottom;
position = "{229.132, 0}";
},
{
name = ogonek;
position = "{437, 0}";
},
{
name = top;
position = "{454.868, 1062}";
}
);
layerId = "3FDD6C00-F7FD-4E85-84B0-0136AF7D7529";
paths = (
{
closed = 1;
nodes = (
"437 0 LINE",
"663 1062 LINE",
"260 1062 LINE",
"35 0 LINE"
);
}
);
width = 684;
},
{
anchors = (
{
name = bottom;
position = "{113, 0}";
},
{
name = ogonek;
position = "{129, 0}";
},
{
name = top;
position = "{338, 1062}";
}
);
layerId = "2503C51C-5A6C-4B2C-A968-78FEA18C2585";
paths = (
{
closed = 1;
nodes = (
"129 0 LINE",
"355 1062 LINE",
"323 1062 LINE",
"98 0 LINE"
);
}
);
width = 512;
}
);
leftKerningGroup = idotless;
rightKerningGroup = idotless;
unicode = 0131;
},
{
glyphname = j;
lastChange = "2020-05-21 15:10:48 +0000";
layers = (
{
layerId = "A1A0948C-E637-4A65-8CCC-05505AD98C44";
paths = (
{
closed = 1;
nodes = (
"266 -435 OFFCURVE",
"320 -277 OFFCURVE",
"320 -102 CURVE SMOOTH",
"320 1062 LINE",
"290 1062 LINE",
"290 -96 LINE SMOOTH",
"290 -237 OFFCURVE",
"254 -407 OFFCURVE",
"29 -407 CURVE SMOOTH",
"-13 -407 OFFCURVE",
"-51 -398 OFFCURVE",
"-69 -391 CURVE",
"-69 -422 LINE",
"-53 -428 OFFCURVE",
"-16 -435 OFFCURVE",
"29 -435 CURVE SMOOTH"
);
},
{
closed = 1;
nodes = (
"337 1377 OFFCURVE",
"360 1400 OFFCURVE",
"360 1429 CURVE SMOOTH",
"360 1457 OFFCURVE",
"337 1480 OFFCURVE",
"309 1480 CURVE SMOOTH",
"280 1480 OFFCURVE",
"257 1457 OFFCURVE",
"257 1429 CURVE SMOOTH",
"257 1400 OFFCURVE",
"280 1377 OFFCURVE",
"309 1377 CURVE SMOOTH"
);
}
);
width = 589;
},
{
layerId = "584F9D0D-8480-40C6-ABEA-8DD6EE64252D";
paths = (
{
closed = 1;
nodes = (
"472 -464 OFFCURVE",
"553 -264 OFFCURVE",
"553 -89 CURVE SMOOTH",
"553 1062 LINE",
"151 1062 LINE",
"151 -81 LINE SMOOTH",
"151 -121 OFFCURVE",
"114 -173 OFFCURVE",
"-1 -173 CURVE SMOOTH",
"-43 -173 OFFCURVE",
"-94 -168 OFFCURVE",
"-121 -165 CURVE",
"-121 -460 LINE",
"-93 -462 OFFCURVE",
"-41 -464 OFFCURVE",
"-1 -464 CURVE SMOOTH"
);
},
{
closed = 1;
nodes = (
"482 1154 OFFCURVE",
"593 1222 OFFCURVE",
"593 1344 CURVE SMOOTH",
"593 1467 OFFCURVE",
"482 1534 OFFCURVE",
"355 1534 CURVE SMOOTH",
"227 1534 OFFCURVE",
"117 1467 OFFCURVE",
"117 1344 CURVE SMOOTH",
"117 1222 OFFCURVE",
"227 1154 OFFCURVE",
"355 1154 CURVE SMOOTH"
);
}
);
width = 678;
},
{
layerId = "3FDD6C00-F7FD-4E85-84B0-0136AF7D7529";
paths = (
{
closed = 1;
nodes = (
"252 -435 OFFCURVE",
"372 -235 OFFCURVE",
"409 -60 CURVE SMOOTH",
"648 1062 LINE",
"244 1062 LINE",
"6 -52 LINE SMOOTH",
"-5 -103 OFFCURVE",
"-52 -144 OFFCURVE",
"-148 -144 CURVE SMOOTH",
"-187 -144 OFFCURVE",
"-233 -140 OFFCURVE",
"-258 -136 CURVE",
"-316 -431 LINE",
"-289 -433 OFFCURVE",
"-241 -435 OFFCURVE",
"-204 -435 CURVE SMOOTH"
);
},
{
closed = 1;
nodes = (
"625 1154 OFFCURVE",
"765 1234 OFFCURVE",
"765 1375 CURVE SMOOTH",
"765 1478 OFFCURVE",
"681 1534 OFFCURVE",
"565 1534 CURVE SMOOTH",
"420 1534 OFFCURVE",
"284 1450 OFFCURVE",
"284 1311 CURVE SMOOTH",
"284 1210 OFFCURVE",
"369 1154 OFFCURVE",
"485 1154 CURVE SMOOTH"
);
}
);
width = 678;
},
{
layerId = "2503C51C-5A6C-4B2C-A968-78FEA18C2585";
paths = (
{
closed = 1;
nodes = (
"37 -435 OFFCURVE",
"114 -276 OFFCURVE",
"151 -103 CURVE SMOOTH",
"399 1062 LINE",
"368 1062 LINE",
"122 -94 LINE SMOOTH",
"92 -236 OFFCURVE",
"23 -407 OFFCURVE",
"-181 -407 CURVE SMOOTH",
"-219 -407 OFFCURVE",
"-254 -399 OFFCURVE",
"-269 -393 CURVE",
"-272 -422 LINE",
"-259 -428 OFFCURVE",
"-226 -435 OFFCURVE",
"-184 -435 CURVE SMOOTH"
);
},
{
closed = 1;
nodes = (
"494 1377 OFFCURVE",
"517 1400 OFFCURVE",
"517 1429 CURVE SMOOTH",
"517 1457 OFFCURVE",
"494 1480 OFFCURVE",
"466 1480 CURVE SMOOTH",
"437 1480 OFFCURVE",
"414 1457 OFFCURVE",
"414 1429 CURVE SMOOTH",
"414 1400 OFFCURVE",
"437 1377 OFFCURVE",
"466 1377 CURVE SMOOTH"
);
}
);
width = 589;
}
);
leftKerningGroup = j;
note = j;
rightKerningGroup = j;
unicode = 006A;
},
{
glyphname = jdotless;
lastChange = "2020-05-21 15:31:00 +0000";
layers = (
{
anchors = (
{
name = bottom;
position = "{260, -437}";
},
{
name = top;
position = "{305, 1062}";
}
);
layerId = "A1A0948C-E637-4A65-8CCC-05505AD98C44";
paths = (
{
closed = 1;
nodes = (
"266 -435 OFFCURVE",
"319 -278 OFFCURVE",
"321 -103 CURVE",
"321 1062 LINE",
"290 1062 LINE",
"290 -96 LINE SMOOTH",
"290 -237 OFFCURVE",
"254 -407 OFFCURVE",
"29 -407 CURVE SMOOTH",
"-13 -407 OFFCURVE",
"-51 -398 OFFCURVE",
"-69 -391 CURVE",
"-69 -422 LINE",
"-53 -428 OFFCURVE",
"-16 -435 OFFCURVE",
"29 -435 CURVE SMOOTH"
);
}
);
width = 550;
},
{
anchors = (
{
name = bottom;
position = "{319, -437}";
},
{
name = top;
position = "{349, 1062}";
}
);
layerId = "584F9D0D-8480-40C6-ABEA-8DD6EE64252D";
paths = (
{
closed = 1;
nodes = (
"472 -464 OFFCURVE",
"551 -263 OFFCURVE",
"553 -88 CURVE",
"553 1062 LINE",
"151 1062 LINE",
"151 -81 LINE SMOOTH",
"151 -121 OFFCURVE",
"114 -173 OFFCURVE",
"-1 -173 CURVE SMOOTH",
"-43 -173 OFFCURVE",
"-94 -168 OFFCURVE",
"-121 -165 CURVE",
"-121 -460 LINE",
"-93 -462 OFFCURVE",
"-41 -464 OFFCURVE",
"-1 -464 CURVE SMOOTH"
);
}
);
width = 638;
},
{
anchors = (
{
name = bottom;
position = "{54, -437}";
},
{
name = top;
position = "{384, 1062}";
}
);
layerId = "2503C51C-5A6C-4B2C-A968-78FEA18C2585";
paths = (
{
closed = 1;
nodes = (
"37 -435 OFFCURVE",
"115 -276 OFFCURVE",
"152 -103 CURVE SMOOTH",
"400 1062 LINE",
"368 1062 LINE",
"122 -94 LINE SMOOTH",
"92 -236 OFFCURVE",
"23 -407 OFFCURVE",
"-181 -407 CURVE SMOOTH",
"-219 -407 OFFCURVE",
"-254 -399 OFFCURVE",
"-269 -393 CURVE",
"-272 -422 LINE",
"-259 -428 OFFCURVE",
"-226 -435 OFFCURVE",
"-184 -435 CURVE"
);
}
);
width = 549;
},
{
anchors = (
{
name = bottom;
position = "{118, -437}";
},
{
name = top;
position = "{447, 1062}";
}
);
layerId = "3FDD6C00-F7FD-4E85-84B0-0136AF7D7529";
paths = (
{
closed = 1;
nodes = (
"252 -435 OFFCURVE",
"369 -234 OFFCURVE",
"408 -59 CURVE",
"648 1062 LINE",
"244 1062 LINE",
"6 -52 LINE SMOOTH",
"-5 -103 OFFCURVE",
"-52 -144 OFFCURVE",
"-148 -144 CURVE SMOOTH",
"-187 -144 OFFCURVE",
"-233 -140 OFFCURVE",
"-258 -136 CURVE",
"-316 -431 LINE",
"-289 -433 OFFCURVE",
"-241 -435 OFFCURVE",
"-204 -435 CURVE SMOOTH"
);
}
);
width = 623;
}
);
leftKerningGroup = j;
leftMetricsKey = j;
rightKerningGroup = j;
rightMetricsKey = j;
unicode = 0237;
},
{
glyphname = k;
lastChange = "2020-05-21 15:37:34 +0000";
layers = (
{
anchors = (
{
name = bottom;
position = "{488, 0}";
},
{
name = top;
position = "{498, 1563}";
}
);
layerId = "A1A0948C-E637-4A65-8CCC-05505AD98C44";
paths = (
{
closed = 1;
nodes = (
"188 0 LINE",
"188 531 LINE",
"176 507 LINE",
"327 627 LINE",
"301 640 LINE",
"841 0 LINE",
"879 0 LINE",
"330 653 LINE",
"329 630 LINE",
"861 1062 LINE",
"818 1062 LINE",
"179 544 LINE",
"188 542 LINE",
"188 1563 LINE",
"158 1563 LINE",
"158 0 LINE"
);
}
);
width = 1000;
},
{
anchors = (
{
name = bottom;
position = "{616, 0}";
},
{
name = top;
position = "{626, 1563}";
}
);
layerId = "584F9D0D-8480-40C6-ABEA-8DD6EE64252D";
paths = (
{
closed = 1;
nodes = (
"456 0 LINE",
"456 514 LINE",
"409 365 LINE",
"596 520 LINE",
"485 505 LINE",
"811 0 LINE",
"1232 0 LINE",
"730 734 LINE",
"673 587 LINE",
"1250 1062 LINE",
"763 1062 LINE",
"367 738 LINE",
"456 710 LINE",
"456 1563 LINE",
"74 1563 LINE",
"74 0 LINE"
);
}
);
width = 1255;
},
{
anchors = (
{
name = bottom;
position = "{505, 0}";
},
{
name = top;
position = "{847, 1563}";
}
);
layerId = "3FDD6C00-F7FD-4E85-84B0-0136AF7D7529";
paths = (
{
closed = 1;
nodes = (
"340 0 LINE",
"449 514 LINE",
"373 365 LINE",
"589 520 LINE",
"488 505 LINE",
"692 0 LINE",
"1100 0 LINE",
"766 734 LINE",
"680 587 LINE",
"1344 1062 LINE",
"850 1062 LINE",
"382 738 LINE",
"488 710 LINE",
"672 1563 LINE",
"290 1563 LINE",
"-42 0 LINE"
);
}
);
width = 1265;
},
{
anchors = (
{
name = bottom;
position = "{367, 0}";
},
{
name = top;
position = "{709, 1563}";
}
);
layerId = "2503C51C-5A6C-4B2C-A968-78FEA18C2585";
paths = (
{
closed = 1;
nodes = (
"72 0 LINE",
"185 531 LINE",
"169 507 LINE",
"342 627 LINE",
"330 630 LINE",
"712 0 LINE",
"748 0 LINE",
"352 653 LINE",
"344 630 LINE",
"956 1062 LINE",
"908 1062 LINE",
"174 549 LINE",
"187 542 LINE",
"404 1563 LINE",
"374 1563 LINE",
"42 0 LINE"
);
}
);
width = 1000;
}
);
leftKerningGroup = h;
leftMetricsKey = h;
note = k;
rightKerningGroup = k;
unicode = 006B;
},
{
glyphname = kgreenlandic;
lastChange = "2020-05-18 15:25:20 +0000";
layers = (
{
anchors = (
{
name = bottom;
position = "{430, 0}";
},
{
name = top;
position = "{430, 1062}";
}
);
layerId = "A1A0948C-E637-4A65-8CCC-05505AD98C44";
paths = (
{
closed = 1;
nodes = (
"681 1062 LINE",
"644 1062 LINE",
"174 447 LINE",
"188 446 LINE",
"188 1062 LINE",
"158 1062 LINE",
"158 0 LINE",
"188 0 LINE",
"188 433 LINE",
"181 412 LINE",
"294 555 LINE",
"267 559 LINE",
"676 0 LINE",
"715 0 LINE",
"292 579 LINE",
"299 560 LINE"
);
}
);
width = 836;
},
{
anchors = (
{
name = bottom;
position = "{591, 0}";
},
{
name = top;
position = "{591, 1062}";
}
);
layerId = "584F9D0D-8480-40C6-ABEA-8DD6EE64252D";
paths = (
{
closed = 1;
nodes = (
"1116 1062 LINE",
"701 1062 LINE",
"401 554 LINE",
"455 532 LINE",
"455 1062 LINE",
"74 1062 LINE",
"74 0 LINE",
"455 0 LINE",
"455 400 LINE",
"428 163 LINE",
"641 443 LINE",
"410 500 LINE",
"690 0 LINE",
"1116 0 LINE",
"682 722 LINE",
"714 500 LINE"
);
}
);
width = 1121;
},
{
anchors = (
{
name = bottom;
position = "{313, 0}";
},
{
name = top;
position = "{539, 1062}";
}
);
layerId = "2503C51C-5A6C-4B2C-A968-78FEA18C2585";
paths = (
{
closed = 1;
nodes = (
"791 1062 LINE",
"750 1062 LINE",
"149 447 LINE",
"167 446 LINE",
"298 1062 LINE",
"268 1062 LINE",
"42 0 LINE",
"72 0 LINE",
"164 433 LINE",
"153 412 LINE",
"296 555 LINE",
"276 559 LINE",
"564 0 LINE",
"599 0 LINE",
"299 579 LINE",
"302 560 LINE"
);
}
);
width = 851;
},
{
anchors = (
{
name = bottom;
position = "{466, 0}";
},
{
name = top;
position = "{692, 1062}";
}
);
layerId = "3FDD6C00-F7FD-4E85-84B0-0136AF7D7529";
paths = (
{
closed = 1;
nodes = (
"1236 1062 LINE",
"801 1062 LINE",
"393 554 LINE",
"452 532 LINE",
"565 1062 LINE",
"184 1062 LINE",
"-42 0 LINE",
"339 0 LINE",
"424 400 LINE",
"357 163 LINE",
"629 443 LINE",
"430 500 LINE",
"604 0 LINE",
"1000 0 LINE",
"720 722 LINE",
"714 500 LINE"
);
}
);
width = 1157;
}
);
leftKerningGroup = h;
leftMetricsKey = h;
rightKerningGroup = k;
rightMetricsKey = k;
unicode = 0138;
},
{
glyphname = l;
lastChange = "2020-05-21 15:11:44 +0000";
layers = (
{
anchors = (
{
name = bottom;
position = "{252, 0}";
},
{
name = center;
position = "{172, 767}";
},
{
name = top;
position = "{168, 1563}";
},
{
name = topright;
position = "{313, 1391}";
}
);
layerId = "A1A0948C-E637-4A65-8CCC-05505AD98C44";
paths = (
{
closed = 1;
nodes = (
"353 -7 OFFCURVE",
"385 -3 OFFCURVE",
"400 0 CURVE",
"400 28 LINE",
"385 25 OFFCURVE",
"353 21 OFFCURVE",
"321 21 CURVE SMOOTH",
"261 21 OFFCURVE",
"188 42 OFFCURVE",
"188 186 CURVE SMOOTH",
"188 203 OFFCURVE",
"188 222 OFFCURVE",
"188 244 CURVE SMOOTH",
"188 1563 LINE",
"158 1563 LINE",
"158 252 LINE SMOOTH",
"158 228 OFFCURVE",
"158 207 OFFCURVE",
"158 188 CURVE SMOOTH",
"158 9 OFFCURVE",
"252 -7 OFFCURVE",
"320 -7 CURVE SMOOTH"
);
}
);
width = 503;
},
{
anchors = (
{
name = bottom;
position = "{382, -20}";
},
{
name = center;
position = "{362, 767}";
},
{
name = top;
position = "{273, 1563}";
},
{
name = topright;
position = "{511, 1082}";
}
);
layerId = "584F9D0D-8480-40C6-ABEA-8DD6EE64252D";
paths = (
{
closed = 1;
nodes = (
"568 -26 OFFCURVE",
"645 -10 OFFCURVE",
"684 1 CURVE",
"684 293 LINE",
"657 281 OFFCURVE",
"615 271 OFFCURVE",
"570 271 CURVE SMOOTH",
"498 271 OFFCURVE",
"478 297 OFFCURVE",
"478 388 CURVE SMOOTH",
"478 400 OFFCURVE",
"478 414 OFFCURVE",
"478 430 CURVE SMOOTH",
"478 1563 LINE",
"74 1563 LINE",
"74 415 LINE SMOOTH",
"74 382 OFFCURVE",
"74 353 OFFCURVE",
"74 326 CURVE SMOOTH",
"74 8 OFFCURVE",
"298 -26 OFFCURVE",
"489 -26 CURVE SMOOTH"
);
}
);
width = 724;
},
{
anchors = (
{
name = bottom;
position = "{307, -20}";
},
{
name = center;
position = "{412, 767}";
},
{
name = top;
position = "{498, 1563}";
},
{
name = topright;
position = "{586, 1082}";
}
);
layerId = "3FDD6C00-F7FD-4E85-84B0-0136AF7D7529";
paths = (
{
closed = 1;
nodes = (
"461 -26 OFFCURVE",
"530 -11 OFFCURVE",
"571 1 CURVE",
"633 293 LINE",
"604 281 OFFCURVE",
"560 271 OFFCURVE",
"515 271 CURVE SMOOTH",
"462 271 OFFCURVE",
"435 282 OFFCURVE",
"435 317 CURVE SMOOTH",
"435 343 OFFCURVE",
"438 359 OFFCURVE",
"453 430 CURVE SMOOTH",
"697 1563 LINE",
"293 1563 LINE",
"46 415 LINE SMOOTH",
"29 334 OFFCURVE",
"19 282 OFFCURVE",
"19 228 CURVE SMOOTH",
"19 2 OFFCURVE",
"213 -26 OFFCURVE",
"362 -26 CURVE SMOOTH"
);
}
);
width = 724;
},
{
anchors = (
{
name = bottom;
position = "{139, 0}";
},
{
name = center;
position = "{302, 767}";
},
{
name = top;
position = "{390, 1563}";
},
{
name = topright;
position = "{494, 1391}";
}
);
layerId = "2503C51C-5A6C-4B2C-A968-78FEA18C2585";
paths = (
{
closed = 1;
nodes = (
"235 -7 OFFCURVE",
"268 -3 OFFCURVE",
"284 0 CURVE",
"290 28 LINE",
"274 25 OFFCURVE",
"241 21 OFFCURVE",
"209 21 CURVE SMOOTH",
"161 21 OFFCURVE",
"102 34 OFFCURVE",
"102 114 CURVE SMOOTH",
"102 143 OFFCURVE",
"106 164 OFFCURVE",
"111 186 CURVE SMOOTH",
"404 1563 LINE",
"374 1563 LINE",
"82 188 LINE SMOOTH",
"77 164 OFFCURVE",
"73 143 OFFCURVE",
"73 114 CURVE SMOOTH",
"73 5 OFFCURVE",
"147 -7 OFFCURVE",
"202 -7 CURVE SMOOTH"
);
}
);
width = 503;
}
);
leftKerningGroup = h;
leftMetricsKey = h;
rightKerningGroup = l;
unicode = 006C;
},
{
glyphname = l.ss01;
lastChange = "2020-05-19 14:59:23 +0000";
layers = (
{
anchors = (
{
name = bottom;
position = "{171, 0}";
},
{
name = center;
position = "{171, 782}";
},
{
name = top;
position = "{171, 1563}";
},
{
name = topright;
position = "{332, 1563}";
}
);
layerId = "A1A0948C-E637-4A65-8CCC-05505AD98C44";
paths = (
{
closed = 1;
nodes = (
"158 1563 LINE",
"158 0 LINE",
"188 0 LINE",
"188 1563 LINE"
);
}
);
width = 404;
},
{
anchors = (
{
name = bottom;
position = "{267, 0}";
},
{
name = center;
position = "{267, 782}";
},
{
name = top;
position = "{267, 1563}";
},
{
name = topright;
position = "{578, 1563}";
}
);
layerId = "584F9D0D-8480-40C6-ABEA-8DD6EE64252D";
paths = (
{
closed = 1;
nodes = (
"74 1563 LINE",
"74 0 LINE",
"471 0 LINE",
"471 1563 LINE"
);
}
);
width = 591;
},
{
anchors = (
{
name = bottom;
position = "{153, 0}";
},
{
name = center;
position = "{319, 782}";
},
{
name = top;
position = "{485, 1563}";
},
{
name = topright;
position = "{798, 1563}";
}
);
layerId = "3FDD6C00-F7FD-4E85-84B0-0136AF7D7529";
paths = (
{
closed = 1;
nodes = (
"290 1563 LINE",
"-42 0 LINE",
"359 0 LINE",
"691 1563 LINE"
);
}
);
width = 592;
},
{
anchors = (
{
name = bottom;
position = "{56, 0}";
},
{
name = center;
position = "{222, 782}";
},
{
name = top;
position = "{388, 1563}";
},
{
name = topright;
position = "{552, 1563}";
}
);
layerId = "2503C51C-5A6C-4B2C-A968-78FEA18C2585";
paths = (
{
closed = 1;
nodes = (
"374 1563 LINE",
"42 0 LINE",
"72 0 LINE",
"404 1563 LINE"
);
}
);
width = 431;
}
);
leftKerningGroup = h;
leftMetricsKey = h;
note = l;
},
{
glyphname = lslash;
lastChange = "2020-05-21 00:34:04 +0000";
layers = (
{
components = (
{
name = l;
}
);
layerId = "A1A0948C-E637-4A65-8CCC-05505AD98C44";
paths = (
{
closed = 1;
nodes = (
"7 774 LINE",
"364 1038 LINE",
"342 1062 LINE",
"-15 798 LINE"
);
}
);
width = 404;
},
{
components = (
{
name = l;
}
);
layerId = "584F9D0D-8480-40C6-ABEA-8DD6EE64252D";
paths = (
{
closed = 1;
nodes = (
"-9 575 LINE",
"650 878 LINE",
"552 1086 LINE",
"-107 782 LINE"
);
}
);
width = 591;
},
{
components = (
{
name = l;
}
);
layerId = "3FDD6C00-F7FD-4E85-84B0-0136AF7D7529";
paths = (
{
closed = 1;
nodes = (
"0 575 LINE",
"723 878 LINE",
"669 1086 LINE",
"-54 782 LINE"
);
}
);
width = 592;
},
{
components = (
{
name = l;
}
);
layerId = "2503C51C-5A6C-4B2C-A968-78FEA18C2585";
paths = (
{
closed = 1;
nodes = (
"56 774 LINE",
"470 1038 LINE",
"453 1062 LINE",
"39 798 LINE"
);
}
);
width = 431;
}
);
leftKerningGroup = lslash;
rightKerningGroup = lslash;
unicode = 0142;
},
{
glyphname = m;
lastChange = "2020-05-21 15:12:35 +0000";
layers = (
{
anchors = (
{
name = bottom;
position = "{819, 0}";
},
{
name = top;
position = "{837, 1075}";
}
);
layerId = "A1A0948C-E637-4A65-8CCC-05505AD98C44";
paths = (
{
closed = 1;
nodes = (
"831 0 LINE",
"831 523 LINE SMOOTH",
"831 602 OFFCURVE",
"831 673 OFFCURVE",
"831 723 CURVE SMOOTH",
"831 945 OFFCURVE",
"756 1075 OFFCURVE",
"537 1075 CURVE SMOOTH",
"297 1075 OFFCURVE",
"160 879 OFFCURVE",
"160 671 CURVE",
"188 662 LINE",
"188 788 OFFCURVE",
"269 1047 OFFCURVE",
"538 1047 CURVE SMOOTH",
"789 1047 OFFCURVE",
"801 822 OFFCURVE",
"801 719 CURVE SMOOTH",
"801 677 OFFCURVE",
"801 614 OFFCURVE",
"801 526 CURVE SMOOTH",
"801 0 LINE"
);
},
{
closed = 1;
nodes = (
"188 0 LINE",
"188 1062 LINE",
"158 1062 LINE",
"158 0 LINE"
);
},
{
closed = 1;
nodes = (
"1473 0 LINE",
"1473 551 LINE SMOOTH",
"1473 624 OFFCURVE",
"1473 699 OFFCURVE",
"1473 750 CURVE SMOOTH",
"1473 970 OFFCURVE",
"1372 1075 OFFCURVE",
"1173 1075 CURVE SMOOTH",
"931 1075 OFFCURVE",
"803 881 OFFCURVE",
"803 692 CURVE",
"831 687 LINE",
"831 787 OFFCURVE",
"901 1047 OFFCURVE",
"1174 1047 CURVE SMOOTH",
"1441 1047 OFFCURVE",
"1443 818 OFFCURVE",
"1443 726 CURVE SMOOTH",
"1443 681 OFFCURVE",
"1443 627 OFFCURVE",
"1443 528 CURVE SMOOTH",
"1443 0 LINE"
);
}
);
width = 1698;
},
{
anchors = (
{
name = bottom;
position = "{956, 0}";
},
{
name = top;
position = "{982, 1084}";
}
);
layerId = "584F9D0D-8480-40C6-ABEA-8DD6EE64252D";
paths = (
{
closed = 1;
nodes = (
"1144 0 LINE",
"1144 330 LINE",
"1144 485 OFFCURVE",
"1144 591 OFFCURVE",
"1144 651 CURVE SMOOTH",
"1144 878 OFFCURVE",
"1083 1084 OFFCURVE",
"803 1084 CURVE SMOOTH",
"550 1084 OFFCURVE",
"400 903 OFFCURVE",
"400 612 CURVE",
"477 522 LINE",
"477 659 OFFCURVE",
"525 751 OFFCURVE",
"619 751 CURVE SMOOTH",
"730 751 OFFCURVE",
"744 650 OFFCURVE",
"744 542 CURVE SMOOTH",
"744 504 OFFCURVE",
"744 447 OFFCURVE",
"744 373 CURVE",
"744 0 LINE"
);
},
{
closed = 1;
nodes = (
"477 0 LINE",
"477 1062 LINE",
"74 1062 LINE",
"74 0 LINE"
);
},
{
closed = 1;
nodes = (
"1812 0 LINE",
"1812 333 LINE",
"1812 489 OFFCURVE",
"1812 588 OFFCURVE",
"1812 651 CURVE SMOOTH",
"1812 878 OFFCURVE",
"1748 1084 OFFCURVE",
"1469 1084 CURVE SMOOTH",
"1216 1084 OFFCURVE",
"1067 903 OFFCURVE",
"1067 612 CURVE",
"1144 522 LINE",
"1144 659 OFFCURVE",
"1191 751 OFFCURVE",
"1285 751 CURVE SMOOTH",
"1390 751 OFFCURVE",
"1409 666 OFFCURVE",
"1409 542 CURVE SMOOTH",
"1409 505 OFFCURVE",
"1409 446 OFFCURVE",
"1409 371 CURVE",
"1409 0 LINE"
);
}
);
width = 1887;
},
{
anchors = (
{
name = bottom;
position = "{846, 0}";
},
{
name = top;
position = "{1094, 1084}";
}
);
layerId = "3FDD6C00-F7FD-4E85-84B0-0136AF7D7529";
paths = (
{
closed = 1;
nodes = (
"1029 0 LINE",
"1099 330 LINE",
"1154 587 OFFCURVE",
"1179 707 OFFCURVE",
"1179 801 CURVE SMOOTH",
"1179 957 OFFCURVE",
"1112 1084 OFFCURVE",
"896 1084 CURVE SMOOTH",
"643 1084 OFFCURVE",
"477 903 OFFCURVE",
"415 612 CURVE",
"472 522 LINE",
"501 659 OFFCURVE",
"570 751 OFFCURVE",
"664 751 CURVE SMOOTH",
"736 751 OFFCURVE",
"754 708 OFFCURVE",
"754 648 CURVE SMOOTH",
"754 597 OFFCURVE",
"739 513 OFFCURVE",
"708 370 CURVE",
"629 0 LINE"
);
},
{
closed = 1;
nodes = (
"362 0 LINE",
"588 1062 LINE",
"185 1062 LINE",
"-41 0 LINE"
);
},
{
closed = 1;
nodes = (
"1697 0 LINE",
"1772 333 LINE",
"1826 590 OFFCURVE",
"1846 697 OFFCURVE",
"1846 798 CURVE SMOOTH",
"1846 956 OFFCURVE",
"1778 1084 OFFCURVE",
"1562 1084 CURVE SMOOTH",
"1309 1084 OFFCURVE",
"1144 903 OFFCURVE",
"1082 612 CURVE",
"1139 522 LINE",
"1168 659 OFFCURVE",
"1236 751 OFFCURVE",
"1330 751 CURVE SMOOTH",
"1400 751 OFFCURVE",
"1421 713 OFFCURVE",
"1421 651 CURVE SMOOTH",
"1421 602 OFFCURVE",
"1405 522 OFFCURVE",
"1373 371 CURVE",
"1294 0 LINE"
);
}
);
width = 1888;
},
{
anchors = (
{
name = bottom;
position = "{701, 0}";
},
{
name = top;
position = "{942, 1075}";
}
);
layerId = "2503C51C-5A6C-4B2C-A968-78FEA18C2585";
paths = (
{
closed = 1;
nodes = (
"717 0 LINE",
"856 653 LINE SMOOTH",
"873 732 OFFCURVE",
"887 803 OFFCURVE",
"887 853 CURVE SMOOTH",
"887 994 OFFCURVE",
"815 1075 OFFCURVE",
"643 1075 CURVE SMOOTH",
"403 1075 OFFCURVE",
"233 881 OFFCURVE",
"188 673 CURVE",
"214 662 LINE",
"240 788 OFFCURVE",
"377 1047 OFFCURVE",
"646 1047 CURVE SMOOTH",
"815 1047 OFFCURVE",
"856 944 OFFCURVE",
"856 846 CURVE SMOOTH",
"856 804 OFFCURVE",
"845 741 OFFCURVE",
"826 653 CURVE SMOOTH",
"687 0 LINE"
);
},
{
closed = 1;
nodes = (
"74 0 LINE",
"300 1062 LINE",
"270 1062 LINE",
"44 0 LINE"
);
},
{
closed = 1;
nodes = (
"1359 0 LINE",
"1498 653 LINE SMOOTH",
"1514 726 OFFCURVE",
"1528 791 OFFCURVE",
"1528 852 CURVE SMOOTH",
"1528 1002 OFFCURVE",
"1444 1075 OFFCURVE",
"1279 1075 CURVE SMOOTH",
"1037 1075 OFFCURVE",
"877 883 OFFCURVE",
"837 694 CURVE",
"863 687 LINE",
"884 787 OFFCURVE",
"1009 1047 OFFCURVE",
"1282 1047 CURVE SMOOTH",
"1459 1047 OFFCURVE",
"1496 945 OFFCURVE",
"1496 851 CURVE SMOOTH",
"1496 806 OFFCURVE",
"1489 752 OFFCURVE",
"1468 653 CURVE SMOOTH",
"1329 0 LINE"
);
}
);
width = 1698;
}
);
leftKerningGroup = n;
leftMetricsKey = n;
note = m;
rightKerningGroup = n;
rightMetricsKey = n;
unicode = 006D;
},
{
glyphname = n;
lastChange = "2020-05-21 15:13:04 +0000";
layers = (
{
anchors = (
{
name = bottom;
position = "{557, 0}";
},
{
name = top;
position = "{579, 1075}";
}
);
layerId = "A1A0948C-E637-4A65-8CCC-05505AD98C44";
paths = (
{
closed = 1;
nodes = (
"928 0 LINE",
"928 563 LINE SMOOTH",
"928 596 OFFCURVE",
"928 657 OFFCURVE",
"928 707 CURVE SMOOTH",
"928 947 OFFCURVE",
"817 1075 OFFCURVE",
"586 1075 CURVE SMOOTH",
"383 1075 OFFCURVE",
"159 927 OFFCURVE",
"159 701 CURVE",
"188 690 LINE",
"188 898 OFFCURVE",
"392 1047 OFFCURVE",
"589 1047 CURVE SMOOTH",
"812 1047 OFFCURVE",
"898 906 OFFCURVE",
"898 707 CURVE SMOOTH",
"898 668 OFFCURVE",
"898 639 OFFCURVE",
"898 566 CURVE SMOOTH",
"898 0 LINE"
);
},
{
closed = 1;
nodes = (
"188 0 LINE",
"188 1062 LINE",
"158 1062 LINE",
"158 0 LINE"
);
}
);
width = 1153;
},
{
anchors = (
{
name = bottom;
position = "{631, 0}";
},
{
name = top;
position = "{658, 1084}";
}
);
layerId = "584F9D0D-8480-40C6-ABEA-8DD6EE64252D";
paths = (
{
closed = 1;
nodes = (
"1216 0 LINE",
"1216 375 LINE SMOOTH",
"1216 480 OFFCURVE",
"1216 577 OFFCURVE",
"1216 651 CURVE SMOOTH",
"1216 903 OFFCURVE",
"1120 1084 OFFCURVE",
"849 1084 CURVE SMOOTH",
"593 1084 OFFCURVE",
"399 903 OFFCURVE",
"399 612 CURVE",
"477 532 LINE",
"477 669 OFFCURVE",
"527 751 OFFCURVE",
"654 751 CURVE SMOOTH",
"799 751 OFFCURVE",
"813 641 OFFCURVE",
"813 532 CURVE SMOOTH",
"813 501 OFFCURVE",
"813 455 OFFCURVE",
"813 413 CURVE SMOOTH",
"813 0 LINE"
);
},
{
closed = 1;
nodes = (
"477 0 LINE",
"477 1062 LINE",
"74 1062 LINE",
"74 0 LINE"
);
}
);
width = 1291;
},
{
anchors = (
{
name = bottom;
position = "{528, 0}";
},
{
name = top;
position = "{771, 1084}";
}
);
layerId = "3FDD6C00-F7FD-4E85-84B0-0136AF7D7529";
paths = (
{
closed = 1;
nodes = (
"1101 0 LINE",
"1183 375 LINE SMOOTH",
"1227 577 OFFCURVE",
"1254 704 OFFCURVE",
"1254 793 CURVE SMOOTH",
"1254 969 OFFCURVE",
"1163 1084 OFFCURVE",
"945 1084 CURVE SMOOTH",
"689 1084 OFFCURVE",
"476 903 OFFCURVE",
"414 612 CURVE",
"474 532 LINE",
"503 669 OFFCURVE",
"572 751 OFFCURVE",
"699 751 CURVE SMOOTH",
"797 751 OFFCURVE",
"824 700 OFFCURVE",
"824 634 CURVE SMOOTH",
"824 588 OFFCURVE",
"812 523 OFFCURVE",
"788 413 CURVE SMOOTH",
"698 0 LINE"
);
},
{
closed = 1;
nodes = (
"362 0 LINE",
"588 1062 LINE",
"185 1062 LINE",
"-41 0 LINE"
);
}
);
width = 1291;
},
{
anchors = (
{
name = bottom;
position = "{444, 0}";
},
{
name = top;
position = "{704, 1075}";
}
);
layerId = "2503C51C-5A6C-4B2C-A968-78FEA18C2585";
paths = (
{
closed = 1;
nodes = (
"814 0 LINE",
"959 684 LINE SMOOTH",
"966 717 OFFCURVE",
"978 778 OFFCURVE",
"978 828 CURVE SMOOTH",
"978 989 OFFCURVE",
"885 1075 OFFCURVE",
"697 1075 CURVE SMOOTH",
"494 1075 OFFCURVE",
"247 935 OFFCURVE",
"194 701 CURVE",
"220 690 LINE",
"264 898 OFFCURVE",
"498 1047 OFFCURVE",
"695 1047 CURVE SMOOTH",
"873 1047 OFFCURVE",
"947 964 OFFCURVE",
"947 825 CURVE SMOOTH",
"947 786 OFFCURVE",
"944 757 OFFCURVE",
"929 684 CURVE SMOOTH",
"784 0 LINE"
);
},
{
closed = 1;
nodes = (
"74 0 LINE",
"300 1062 LINE",
"270 1062 LINE",
"44 0 LINE"
);
}
);
width = 1153;
}
);
leftKerningGroup = n;
note = n;
rightKerningGroup = n;
unicode = 006E;
},
{
glyphname = eng;
lastChange = "2020-05-18 15:26:56 +0000";
layers = (
{
components = (
{
name = n;
}
);
layerId = "A1A0948C-E637-4A65-8CCC-05505AD98C44";
paths = (
{
closed = 1;
nodes = (
"898 -96 LINE SMOOTH",
"898 -236 OFFCURVE",
"859 -407 OFFCURVE",
"635 -407 CURVE SMOOTH",
"594 -407 OFFCURVE",
"555 -399 OFFCURVE",
"537 -393 CURVE",
"537 -422 LINE",
"553 -428 OFFCURVE",
"590 -435 OFFCURVE",
"635 -435 CURVE SMOOTH",
"906 -435 OFFCURVE",
"928 -224 OFFCURVE",
"928 -96 CURVE SMOOTH",
"928 0 LINE",
"898 0 LINE"
);
}
);
width = 1153;
},
{
components = (
{
name = n;
}
);
layerId = "584F9D0D-8480-40C6-ABEA-8DD6EE64252D";
paths = (
{
closed = 1;
nodes = (
"793 -9 LINE SMOOTH",
"793 -92 OFFCURVE",
"766 -144 OFFCURVE",
"661 -144 CURVE SMOOTH",
"617 -144 OFFCURVE",
"579 -141 OFFCURVE",
"563 -138 CURVE",
"563 -428 LINE",
"579 -431 OFFCURVE",
"616 -435 OFFCURVE",
"661 -435 CURVE SMOOTH",
"1084 -435 OFFCURVE",
"1196 -186 OFFCURVE",
"1196 -9 CURVE SMOOTH",
"1196 0 LINE",
"793 0 LINE"
);
}
);
width = 1291;
},
{
components = (
{
name = n;
}
);
layerId = "3FDD6C00-F7FD-4E85-84B0-0136AF7D7529";
paths = (
{
closed = 1;
nodes = (
"675 -13 LINE SMOOTH",
"653 -109 OFFCURVE",
"598 -144 OFFCURVE",
"508 -144 CURVE SMOOTH",
"465 -144 OFFCURVE",
"428 -141 OFFCURVE",
"412 -138 CURVE",
"360 -428 LINE",
"375 -431 OFFCURVE",
"411 -435 OFFCURVE",
"456 -435 CURVE SMOOTH",
"870 -435 OFFCURVE",
"1040 -191 OFFCURVE",
"1078 -14 CURVE SMOOTH",
"1081 0 LINE",
"678 0 LINE"
);
}
);
width = 1291;
},
{
components = (
{
name = n;
}
);
layerId = "2503C51C-5A6C-4B2C-A968-78FEA18C2585";
paths = (
{
closed = 1;
nodes = (
"763 -94 LINE SMOOTH",
"732 -234 OFFCURVE",
"659 -407 OFFCURVE",
"438 -407 CURVE SMOOTH",
"400 -407 OFFCURVE",
"363 -401 OFFCURVE",
"345 -396 CURVE",
"341 -422 LINE",
"356 -428 OFFCURVE",
"392 -435 OFFCURVE",
"437 -435 CURVE SMOOTH",
"681 -435 OFFCURVE",
"758 -261 OFFCURVE",
"793 -98 CURVE SMOOTH",
"814 0 LINE",
"784 0 LINE"
);
}
);
width = 1153;
}
);
leftKerningGroup = n;
leftMetricsKey = n;
rightKerningGroup = n;
rightMetricsKey = n;
unicode = 014B;
},
{
glyphname = o;
lastChange = "2020-05-21 15:14:12 +0000";
layers = (
{
anchors = (
{
name = bottom;
position = "{611, -16}";
},
{
name = center;
position = "{613, 531}";
},
{
name = ogonek;
position = "{701, -2}";
},
{
name = top;
position = "{613, 1062}";
},
{
name = topright;
position = "{963, 842}";
}
);
layerId = "A1A0948C-E637-4A65-8CCC-05505AD98C44";
paths = (
{
closed = 1;
nodes = (
"907 -15 OFFCURVE",
"1118 222 OFFCURVE",
"1118 533 CURVE SMOOTH",
"1118 844 OFFCURVE",
"907 1073 OFFCURVE",
"611 1073 CURVE SMOOTH",
"315 1073 OFFCURVE",
"104 844 OFFCURVE",
"104 533 CURVE SMOOTH",
"104 222 OFFCURVE",
"315 -15 OFFCURVE",
"611 -15 CURVE SMOOTH"
);
},
{
closed = 1;
nodes = (
"334 13 OFFCURVE",
"135 243 OFFCURVE",
"135 533 CURVE SMOOTH",
"135 823 OFFCURVE",
"334 1045 OFFCURVE",
"611 1045 CURVE SMOOTH",
"888 1045 OFFCURVE",
"1087 823 OFFCURVE",
"1087 533 CURVE SMOOTH",
"1087 243 OFFCURVE",
"888 13 OFFCURVE",
"611 13 CURVE SMOOTH"
);
}
);
width = 1295;
},
{
anchors = (
{
name = bottom;
position = "{652, -25}";
},
{
name = center;
position = "{652, 531}";
},
{
name = ogonek;
position = "{749, 10}";
},
{
name = top;
position = "{652, 1083}";
},
{
name = topright;
position = "{1011, 772}";
}
);
layerId = "584F9D0D-8480-40C6-ABEA-8DD6EE64252D";
paths = (
{
closed = 1;
nodes = (
"1012 -26 OFFCURVE",
"1258 200 OFFCURVE",
"1258 530 CURVE SMOOTH",
"1258 860 OFFCURVE",
"1012 1084 OFFCURVE",
"652 1084 CURVE SMOOTH",
"292 1084 OFFCURVE",
"46 860 OFFCURVE",
"46 530 CURVE SMOOTH",
"46 200 OFFCURVE",
"292 -26 OFFCURVE",
"652 -26 CURVE SMOOTH"
);
},
{
closed = 1;
nodes = (
"529 280 OFFCURVE",
"451 378 OFFCURVE",
"451 530 CURVE SMOOTH",
"451 682 OFFCURVE",
"529 778 OFFCURVE",
"652 778 CURVE SMOOTH",
"775 778 OFFCURVE",
"853 682 OFFCURVE",
"853 530 CURVE SMOOTH",
"853 378 OFFCURVE",
"775 280 OFFCURVE",
"652 280 CURVE SMOOTH"
);
}
);
width = 1316;
},
{
anchors = (
{
name = bottom;
position = "{556, -25}";
},
{
name = center;
position = "{633, 531}";
},
{
name = ogonek;
position = "{663, 10}";
},
{
name = top;
position = "{746, 1084}";
},
{
name = topright;
position = "{1048, 772}";
}
);
layerId = "3FDD6C00-F7FD-4E85-84B0-0136AF7D7529";
paths = (
{
closed = 1;
nodes = (
"955 -26 OFFCURVE",
"1266 241 OFFCURVE",
"1266 627 CURVE SMOOTH",
"1266 901 OFFCURVE",
"1060 1084 OFFCURVE",
"738 1084 CURVE SMOOTH",
"348 1084 OFFCURVE",
"38 819 OFFCURVE",
"38 433 CURVE SMOOTH",
"38 159 OFFCURVE",
"244 -26 OFFCURVE",
"566 -26 CURVE SMOOTH"
);
},
{
closed = 1;
nodes = (
"495 280 OFFCURVE",
"446 349 OFFCURVE",
"446 462 CURVE SMOOTH",
"446 634 OFFCURVE",
"545 778 OFFCURVE",
"705 778 CURVE SMOOTH",
"808 778 OFFCURVE",
"859 710 OFFCURVE",
"859 599 CURVE SMOOTH",
"859 428 OFFCURVE",
"758 280 OFFCURVE",
"599 280 CURVE SMOOTH"
);
}
);
width = 1316;
},
{
anchors = (
{
name = bottom;
position = "{505, -16}";
},
{
name = center;
position = "{553, 531}";
},
{
name = ogonek;
position = "{611, -2}";
},
{
name = top;
position = "{737, 1075}";
},
{
name = topright;
position = "{1038, 842}";
}
);
layerId = "2503C51C-5A6C-4B2C-A968-78FEA18C2585";
paths = (
{
closed = 1;
nodes = (
"853 -17 OFFCURVE",
"1135 262 OFFCURVE",
"1135 657 CURVE SMOOTH",
"1135 893 OFFCURVE",
"989 1075 OFFCURVE",
"731 1075 CURVE SMOOTH",
"375 1075 OFFCURVE",
"108 777 OFFCURVE",
"108 406 CURVE SMOOTH",
"108 154 OFFCURVE",
"255 -17 OFFCURVE",
"511 -17 CURVE SMOOTH"
);
},
{
closed = 1;
nodes = (
"271 11 OFFCURVE",
"140 176 OFFCURVE",
"140 412 CURVE SMOOTH",
"140 760 OFFCURVE",
"394 1047 OFFCURVE",
"731 1047 CURVE SMOOTH",
"971 1047 OFFCURVE",
"1103 877 OFFCURVE",
"1103 650 CURVE SMOOTH",
"1103 272 OFFCURVE",
"833 11 OFFCURVE",
"511 11 CURVE SMOOTH"
);
}
);
width = 1295;
}
);
leftKerningGroup = o;
note = o;
rightKerningGroup = o;
unicode = 006F;
},
{
glyphname = oslash;
lastChange = "2020-05-19 15:09:38 +0000";
layers = (
{
components = (
{
name = o;
}
);
layerId = "A1A0948C-E637-4A65-8CCC-05505AD98C44";
paths = (
{
closed = 1;
nodes = (
"924 1082 LINE",
"891 1091 LINE",
"304 -13 LINE",
"339 -22 LINE"
);
}
);
width = 1295;
},
{
components = (
{
name = o;
}
);
layerId = "584F9D0D-8480-40C6-ABEA-8DD6EE64252D";
paths = (
{
closed = 1;
nodes = (
"1104 1078 LINE",
"955 1158 LINE",
"213 -28 LINE",
"357 -105 LINE"
);
}
);
width = 1316;
},
{
components = (
{
name = o;
}
);
layerId = "3FDD6C00-F7FD-4E85-84B0-0136AF7D7529";
paths = (
{
closed = 1;
nodes = (
"1205 1068 LINE",
"1075 1158 LINE",
"104 -28 LINE",
"230 -115 LINE"
);
}
);
width = 1316;
},
{
components = (
{
name = o;
}
);
layerId = "2503C51C-5A6C-4B2C-A968-78FEA18C2585";
paths = (
{
closed = 1;
nodes = (
"1039 1074 LINE",
"1013 1091 LINE",
"208 -13 LINE",
"238 -30 LINE"
);
}
);
width = 1295;
}
);
leftKerningGroup = o;
leftMetricsKey = o;
rightKerningGroup = o;
rightMetricsKey = o;
unicode = 00F8;
},
{
glyphname = p;
lastChange = "2020-05-21 15:15:12 +0000";
layers = (
{
anchors = (
{
name = bottom;
position = "{588, -17}";
},
{
name = top;
position = "{588, 1075}";
}
);
layerId = "A1A0948C-E637-4A65-8CCC-05505AD98C44";
paths = (
{
closed = 1;
nodes = (
"188 -437 LINE",
"188 1062 LINE",
"158 1062 LINE",
"158 -437 LINE"
);
},
{
closed = 1;
nodes = (
"847 -17 OFFCURVE",
"1022 181 OFFCURVE",
"1022 529 CURVE SMOOTH",
"1022 877 OFFCURVE",
"847 1075 OFFCURVE",
"588 1075 CURVE SMOOTH",
"348 1075 OFFCURVE",
"158 886 OFFCURVE",
"158 675 CURVE",
"188 675 LINE",
"188 872 OFFCURVE",
"372 1047 OFFCURVE",
"588 1047 CURVE SMOOTH",
"828 1047 OFFCURVE",
"991 858 OFFCURVE",
"991 529 CURVE SMOOTH",
"991 200 OFFCURVE",
"828 11 OFFCURVE",
"588 11 CURVE SMOOTH",
"372 11 OFFCURVE",
"188 186 OFFCURVE",
"188 383 CURVE SMOOTH",
"188 385 OFFCURVE",
"188 388 OFFCURVE",
"188 390 CURVE",
"158 390 LINE",
"158 388 OFFCURVE",
"158 385 OFFCURVE",
"158 383 CURVE SMOOTH",
"158 172 OFFCURVE",
"348 -17 OFFCURVE",
"588 -17 CURVE SMOOTH"
);
}
);
width = 1199;
},
{
anchors = (
{
name = bottom;
position = "{778, -26}";
},
{
name = top;
position = "{756, 1084}";
}
);
layerId = "584F9D0D-8480-40C6-ABEA-8DD6EE64252D";
paths = (
{
closed = 1;
nodes = (
"478 -437 LINE",
"478 1062 LINE",
"74 1062 LINE",
"74 -437 LINE"
);
},
{
closed = 1;
nodes = (
"1059 -26 OFFCURVE",
"1294 166 OFFCURVE",
"1294 538 CURVE SMOOTH",
"1294 890 OFFCURVE",
"1049 1084 OFFCURVE",
"792 1084 CURVE SMOOTH",
"537 1084 OFFCURVE",
"336 866 OFFCURVE",
"336 571 CURVE",
"478 561 LINE",
"478 694 OFFCURVE",
"582 757 OFFCURVE",
"676 757 CURVE SMOOTH",
"778 757 OFFCURVE",
"878 695 OFFCURVE",
"878 538 CURVE SMOOTH",
"878 381 OFFCURVE",
"777 314 OFFCURVE",
"676 314 CURVE SMOOTH",
"580 314 OFFCURVE",
"478 382 OFFCURVE",
"478 515 CURVE SMOOTH",
"478 519 OFFCURVE",
"478 524 OFFCURVE",
"478 528 CURVE",
"336 525 LINE",
"336 518 OFFCURVE",
"336 512 OFFCURVE",
"336 505 CURVE SMOOTH",
"336 210 OFFCURVE",
"537 -26 OFFCURVE",
"792 -26 CURVE SMOOTH"
);
}
);
width = 1352;
},
{
anchors = (
{
name = bottom;
position = "{686, -26}";
},
{
name = top;
position = "{907, 1084}";
}
);
layerId = "3FDD6C00-F7FD-4E85-84B0-0136AF7D7529";
paths = (
{
closed = 1;
nodes = (
"270 -437 LINE",
"588 1062 LINE",
"184 1062 LINE",
"-134 -437 LINE"
);
},
{
closed = 1;
nodes = (
"1058 -26 OFFCURVE",
"1295 252 OFFCURVE",
"1295 628 CURVE SMOOTH",
"1295 917 OFFCURVE",
"1126 1084 OFFCURVE",
"885 1084 CURVE SMOOTH",
"630 1084 OFFCURVE",
"405 866 OFFCURVE",
"342 571 CURVE",
"481 561 LINE",
"509 694 OFFCURVE",
"627 757 OFFCURVE",
"721 757 CURVE SMOOTH",
"815 757 OFFCURVE",
"878 706 OFFCURVE",
"878 593 CURVE SMOOTH",
"878 434 OFFCURVE",
"794 314 OFFCURVE",
"627 314 CURVE SMOOTH",
"543 314 OFFCURVE",
"467 366 OFFCURVE",
"467 467 CURVE SMOOTH",
"467 482 OFFCURVE",
"470 512 OFFCURVE",
"474 528 CURVE",
"332 525 LINE",
"323 501 OFFCURVE",
"315 457 OFFCURVE",
"315 386 CURVE SMOOTH",
"315 151 OFFCURVE",
"474 -26 OFFCURVE",
"693 -26 CURVE SMOOTH"
);
}
);
width = 1348;
},
{
anchors = (
{
name = bottom;
position = "{460, -17}";
},
{
name = top;
position = "{687, 1075}";
}
);
layerId = "2503C51C-5A6C-4B2C-A968-78FEA18C2585";
paths = (
{
closed = 1;
nodes = (
"-20 -437 LINE",
"298 1062 LINE",
"268 1062 LINE",
"-50 -437 LINE"
);
},
{
closed = 1;
nodes = (
"821 -17 OFFCURVE",
"1026 295 OFFCURVE",
"1026 664 CURVE SMOOTH",
"1026 920 OFFCURVE",
"924 1075 OFFCURVE",
"696 1075 CURVE SMOOTH",
"456 1075 OFFCURVE",
"232 886 OFFCURVE",
"187 675 CURVE",
"215 675 LINE",
"257 872 OFFCURVE",
"480 1047 OFFCURVE",
"696 1047 CURVE SMOOTH",
"905 1047 OFFCURVE",
"995 902 OFFCURVE",
"995 663 CURVE SMOOTH",
"995 317 OFFCURVE",
"804 11 OFFCURVE",
"476 11 CURVE SMOOTH",
"285 11 OFFCURVE",
"148 148 OFFCURVE",
"148 316 CURVE SMOOTH",
"148 347 OFFCURVE",
"155 388 OFFCURVE",
"155 390 CURVE",
"126 390 LINE",
"126 389 OFFCURVE",
"117 344 OFFCURVE",
"117 311 CURVE SMOOTH",
"117 131 OFFCURVE",
"264 -17 OFFCURVE",
"476 -17 CURVE SMOOTH"
);
}
);
width = 1188;
}
);
leftKerningGroup = p;
leftMetricsKey = h;
note = p;
rightKerningGroup = o;
rightMetricsKey = o;
unicode = 0070;
},
{
glyphname = thorn;
lastChange = "2020-05-18 15:42:34 +0000";
layers = (
{
components = (
{
name = b;
transform = "{1, 0, 0, 1, 1, 0}";
}
);
layerId = "A1A0948C-E637-4A65-8CCC-05505AD98C44";
paths = (
{
closed = 1;
nodes = (
"158 755 LINE",
"158 -437 LINE",
"190 -437 LINE",
"190 755 LINE"
);
}
);
width = 1201;
},
{
components = (
{
name = b;
}
);
layerId = "584F9D0D-8480-40C6-ABEA-8DD6EE64252D";
paths = (
{
closed = 1;
nodes = (
"74 654 LINE",
"74 -437 LINE",
"478 -437 LINE",
"478 654 LINE"
);
}
);
width = 1352;
},
{
components = (
{
name = b;
transform = "{1, 0, 0, 1, 3, 0}";
}
);
layerId = "3FDD6C00-F7FD-4E85-84B0-0136AF7D7529";
paths = (
{
closed = 1;
nodes = (
"96 623 LINE",
"-135 -437 LINE",
"271 -437 LINE",
"527 748 LINE"
);
}
);
width = 1351;
},
{
components = (
{
name = b;
transform = "{1, 0, 0, 1, 5, 0}";
}
);
layerId = "2503C51C-5A6C-4B2C-A968-78FEA18C2585";
paths = (
{
closed = 1;
nodes = (
"211 761 LINE",
"-51 -437 LINE",
"-15 -437 LINE",
"252 812 LINE"
);
}
);
width = 1193;
}
);
leftKerningGroup = h;
leftMetricsKey = b;
note = thorn;
rightKerningGroup = o;
rightMetricsKey = b;
unicode = 00FE;
},
{
glyphname = q;
lastChange = "2020-05-21 15:31:00 +0000";
layers = (
{
anchors = (
{
name = bottom;
position = "{535, -17}";
},
{
name = top;
position = "{535, 1075}";
}
);
layerId = "A1A0948C-E637-4A65-8CCC-05505AD98C44";
paths = (
{
closed = 1;
nodes = (
"968 -437 LINE",
"968 1062 LINE",
"938 1062 LINE",
"938 -437 LINE"
);
},
{
closed = 1;
nodes = (
"767 -17 OFFCURVE",
"968 159 OFFCURVE",
"968 390 CURVE",
"938 390 LINE",
"938 179 OFFCURVE",
"750 11 OFFCURVE",
"538 11 CURVE SMOOTH",
"298 11 OFFCURVE",
"135 200 OFFCURVE",
"135 529 CURVE SMOOTH",
"135 858 OFFCURVE",
"298 1047 OFFCURVE",
"538 1047 CURVE SMOOTH",
"754 1047 OFFCURVE",
"938 872 OFFCURVE",
"938 675 CURVE SMOOTH",
"938 670 OFFCURVE",
"938 666 OFFCURVE",
"938 661 CURVE",
"968 657 LINE",
"968 663 OFFCURVE",
"968 669 OFFCURVE",
"968 675 CURVE SMOOTH",
"968 886 OFFCURVE",
"778 1075 OFFCURVE",
"538 1075 CURVE SMOOTH",
"279 1075 OFFCURVE",
"104 877 OFFCURVE",
"104 529 CURVE SMOOTH",
"104 181 OFFCURVE",
"279 -17 OFFCURVE",
"538 -17 CURVE SMOOTH"
);
}
);
width = 1184;
},
{
anchors = (
{
name = bottom;
position = "{530, -26}";
},
{
name = top;
position = "{538, 1084}";
}
);
layerId = "584F9D0D-8480-40C6-ABEA-8DD6EE64252D";
paths = (
{
closed = 1;
nodes = (
"1266 -437 LINE",
"1266 1062 LINE",
"862 1062 LINE",
"862 -437 LINE"
);
},
{
closed = 1;
nodes = (
"803 -26 OFFCURVE",
"1004 210 OFFCURVE",
"1004 505 CURVE",
"862 515 LINE",
"862 382 OFFCURVE",
"760 314 OFFCURVE",
"664 314 CURVE SMOOTH",
"563 314 OFFCURVE",
"462 381 OFFCURVE",
"462 538 CURVE SMOOTH",
"462 695 OFFCURVE",
"563 757 OFFCURVE",
"664 757 CURVE SMOOTH",
"758 757 OFFCURVE",
"862 694 OFFCURVE",
"862 561 CURVE SMOOTH",
"862 557 OFFCURVE",
"862 552 OFFCURVE",
"862 548 CURVE",
"1004 548 LINE",
"1004 556 OFFCURVE",
"1004 563 OFFCURVE",
"1004 571 CURVE SMOOTH",
"1004 866 OFFCURVE",
"803 1084 OFFCURVE",
"548 1084 CURVE SMOOTH",
"291 1084 OFFCURVE",
"46 890 OFFCURVE",
"46 538 CURVE SMOOTH",
"46 166 OFFCURVE",
"281 -26 OFFCURVE",
"548 -26 CURVE SMOOTH"
);
}
);
width = 1376;
},
{
anchors = (
{
name = bottom;
position = "{415, -26}";
},
{
name = top;
position = "{640, 1084}";
}
);
layerId = "3FDD6C00-F7FD-4E85-84B0-0136AF7D7529";
paths = (
{
closed = 1;
nodes = (
"1053 -437 LINE",
"1371 1062 LINE",
"967 1062 LINE",
"649 -437 LINE"
);
},
{
closed = 1;
nodes = (
"680 -26 OFFCURVE",
"929 210 OFFCURVE",
"992 505 CURVE",
"852 515 LINE",
"824 382 OFFCURVE",
"707 314 OFFCURVE",
"611 314 CURVE SMOOTH",
"520 314 OFFCURVE",
"454 375 OFFCURVE",
"454 487 CURVE SMOOTH",
"454 642 OFFCURVE",
"555 757 OFFCURVE",
"705 757 CURVE SMOOTH",
"787 757 OFFCURVE",
"867 709 OFFCURVE",
"867 608 CURVE SMOOTH",
"867 593 OFFCURVE",
"863 564 OFFCURVE",
"859 548 CURVE",
"1001 548 LINE",
"1012 591 OFFCURVE",
"1020 654 OFFCURVE",
"1020 697 CURVE SMOOTH",
"1020 923 OFFCURVE",
"874 1084 OFFCURVE",
"657 1084 CURVE SMOOTH",
"303 1084 OFFCURVE",
"35 778 OFFCURVE",
"35 414 CURVE SMOOTH",
"35 130 OFFCURVE",
"186 -26 OFFCURVE",
"425 -26 CURVE SMOOTH"
);
}
);
width = 1376;
},
{
anchors = (
{
name = bottom;
position = "{449, -17}";
},
{
name = top;
position = "{662, 1075}";
}
);
layerId = "2503C51C-5A6C-4B2C-A968-78FEA18C2585";
paths = (
{
closed = 1;
nodes = (
"775 -437 LINE",
"1093 1062 LINE",
"1063 1062 LINE",
"745 -437 LINE"
);
},
{
closed = 1;
nodes = (
"710 -17 OFFCURVE",
"904 173 OFFCURVE",
"949 384 CURVE",
"919 383 LINE",
"877 186 OFFCURVE",
"686 11 OFFCURVE",
"450 11 CURVE SMOOTH",
"242 11 OFFCURVE",
"141 163 OFFCURVE",
"141 389 CURVE SMOOTH",
"141 739 OFFCURVE",
"329 1047 OFFCURVE",
"660 1047 CURVE SMOOTH",
"851 1047 OFFCURVE",
"988 910 OFFCURVE",
"988 742 CURVE SMOOTH",
"988 717 OFFCURVE",
"984 692 OFFCURVE",
"978 661 CURVE",
"1006 657 LINE",
"1007 660 OFFCURVE",
"1018 702 OFFCURVE",
"1018 747 CURVE SMOOTH",
"1018 927 OFFCURVE",
"873 1075 OFFCURVE",
"661 1075 CURVE SMOOTH",
"311 1075 OFFCURVE",
"109 760 OFFCURVE",
"109 387 CURVE SMOOTH",
"109 145 OFFCURVE",
"222 -17 OFFCURVE",
"448 -17 CURVE SMOOTH"
);
}
);
width = 1185;
}
);
leftKerningGroup = o;
leftMetricsKey = o;
note = q;
rightKerningGroup = q;
rightMetricsKey = d;
unicode = 0071;
},
{
glyphname = r;
lastChange = "2020-05-21 15:18:00 +0000";
layers = (
{
anchors = (
{
name = bottom;
position = "{429, 0}";
},
{
name = top;
position = "{486, 1075}";
}
);
layerId = "A1A0948C-E637-4A65-8CCC-05505AD98C44";
paths = (
{
closed = 1;
nodes = (
"188 0 LINE",
"188 752 LINE",
"188 887 OFFCURVE",
"342 1047 OFFCURVE",
"567 1047 CURVE SMOOTH",
"651 1047 OFFCURVE",
"694 1030 OFFCURVE",
"708 1023 CURVE",
"722 1049 LINE",
"708 1056 OFFCURVE",
"653 1075 OFFCURVE",
"569 1075 CURVE SMOOTH",
"415 1075 OFFCURVE",
"245 998 OFFCURVE",
"184 859 CURVE",
"188 855 LINE",
"188 1062 LINE",
"158 1062 LINE",
"158 0 LINE"
);
}
);
width = 859;
},
{
anchors = (
{
name = bottom;
position = "{511, 0}";
},
{
name = top;
position = "{641, 1084}";
}
);
layerId = "584F9D0D-8480-40C6-ABEA-8DD6EE64252D";
paths = (
{
closed = 1;
nodes = (
"478 0 LINE",
"478 448 LINE",
"478 590 OFFCURVE",
"602 716 OFFCURVE",
"810 716 CURVE SMOOTH",
"869 716 OFFCURVE",
"913 697 OFFCURVE",
"925 690 CURVE",
"1000 1062 LINE",
"989 1068 OFFCURVE",
"946 1084 OFFCURVE",
"860 1084 CURVE SMOOTH",
"653 1084 OFFCURVE",
"489 949 OFFCURVE",
"449 723 CURVE",
"478 669 LINE",
"478 1062 LINE",
"74 1062 LINE",
"74 0 LINE"
);
}
);
width = 1020;
},
{
anchors = (
{
name = bottom;
position = "{389, 0}";
},
{
name = top;
position = "{704, 1084}";
}
);
layerId = "3FDD6C00-F7FD-4E85-84B0-0136AF7D7529";
paths = (
{
closed = 1;
nodes = (
"363 0 LINE",
"458 450 LINE",
"488 592 OFFCURVE",
"642 716 OFFCURVE",
"850 716 CURVE SMOOTH",
"909 716 OFFCURVE",
"949 697 OFFCURVE",
"959 690 CURVE",
"1110 1062 LINE",
"1101 1068 OFFCURVE",
"1063 1084 OFFCURVE",
"977 1084 CURVE SMOOTH",
"770 1084 OFFCURVE",
"575 949 OFFCURVE",
"487 723 CURVE",
"505 669 LINE",
"588 1062 LINE",
"184 1062 LINE",
"-41 0 LINE"
);
}
);
width = 1020;
},
{
anchors = (
{
name = bottom;
position = "{304, 0}";
},
{
name = top;
position = "{562, 1075}";
}
);
layerId = "2503C51C-5A6C-4B2C-A968-78FEA18C2585";
paths = (
{
closed = 1;
nodes = (
"72 0 LINE",
"232 752 LINE",
"261 887 OFFCURVE",
"455 1047 OFFCURVE",
"675 1047 CURVE SMOOTH",
"759 1047 OFFCURVE",
"796 1031 OFFCURVE",
"809 1023 CURVE",
"829 1049 LINE",
"814 1059 OFFCURVE",
"763 1075 OFFCURVE",
"679 1075 CURVE SMOOTH",
"525 1075 OFFCURVE",
"339 998 OFFCURVE",
"249 859 CURVE",
"254 855 LINE",
"298 1062 LINE",
"268 1062 LINE",
"42 0 LINE"
);
}
);
width = 857;
}
);
leftKerningGroup = n;
leftMetricsKey = h;
note = r;
rightKerningGroup = r;
unicode = 0072;
},
{
glyphname = s;
lastChange = "2020-05-21 15:18:53 +0000";
layers = (
{
anchors = (
{
name = bottom;
position = "{509, -12}";
},
{
name = top;
position = "{509, 1075}";
}
);
layerId = "A1A0948C-E637-4A65-8CCC-05505AD98C44";
paths = (
{
closed = 1;
nodes = (
"753 -17 OFFCURVE",
"911 86 OFFCURVE",
"911 256 CURVE SMOOTH",
"911 434 OFFCURVE",
"778 497 OFFCURVE",
"515 546 CURVE SMOOTH",
"300 586 OFFCURVE",
"154 642 OFFCURVE",
"154 807 CURVE SMOOTH",
"154 967 OFFCURVE",
"316 1047 OFFCURVE",
"509 1047 CURVE SMOOTH",
"694 1047 OFFCURVE",
"860 984 OFFCURVE",
"860 783 CURVE SMOOTH",
"860 776 OFFCURVE",
"860 766 OFFCURVE",
"860 759 CURVE",
"891 759 LINE",
"891 767 OFFCURVE",
"891 777 OFFCURVE",
"891 784 CURVE SMOOTH",
"891 994 OFFCURVE",
"718 1075 OFFCURVE",
"505 1075 CURVE SMOOTH",
"300 1075 OFFCURVE",
"123 980 OFFCURVE",
"123 808 CURVE SMOOTH",
"123 623 OFFCURVE",
"275 560 OFFCURVE",
"511 518 CURVE SMOOTH",
"748 476 OFFCURVE",
"880 421 OFFCURVE",
"880 256 CURVE SMOOTH",
"880 106 OFFCURVE",
"735 11 OFFCURVE",
"506 11 CURVE SMOOTH",
"277 11 OFFCURVE",
"145 104 OFFCURVE",
"136 259 CURVE SMOOTH",
"135 275 OFFCURVE",
"135 293 OFFCURVE",
"135 305 CURVE",
"104 305 LINE",
"104 293 OFFCURVE",
"104 276 OFFCURVE",
"105 261 CURVE SMOOTH",
"116 88 OFFCURVE",
"250 -17 OFFCURVE",
"508 -17 CURVE SMOOTH"
);
}
);
width = 1088;
},
{
anchors = (
{
name = bottom;
position = "{569, -17}";
},
{
name = top;
position = "{569, 1084}";
}
);
layerId = "584F9D0D-8480-40C6-ABEA-8DD6EE64252D";
paths = (
{
closed = 1;
nodes = (
"810 -26 OFFCURVE",
"1090 66 OFFCURVE",
"1090 335 CURVE SMOOTH",
"1090 585 OFFCURVE",
"789 643 OFFCURVE",
"638 665 CURVE SMOOTH",
"527 681 OFFCURVE",
"453 700 OFFCURVE",
"453 740 CURVE SMOOTH",
"453 785 OFFCURVE",
"527 796 OFFCURVE",
"568 796 CURVE SMOOTH",
"619 796 OFFCURVE",
"681 774 OFFCURVE",
"681 719 CURVE",
"681 716 OFFCURVE",
"681 712 OFFCURVE",
"681 709 CURVE",
"1076 709 LINE",
"1076 712 OFFCURVE",
"1076 716 OFFCURVE",
"1076 719 CURVE",
"1076 943 OFFCURVE",
"832 1084 OFFCURVE",
"571 1084 CURVE SMOOTH",
"295 1084 OFFCURVE",
"59 965 OFFCURVE",
"59 733 CURVE SMOOTH",
"59 507 OFFCURVE",
"335 415 OFFCURVE",
"517 396 CURVE SMOOTH",
"668 380 OFFCURVE",
"701 369 OFFCURVE",
"701 325 CURVE SMOOTH",
"701 280 OFFCURVE",
"622 265 OFFCURVE",
"578 265 CURVE SMOOTH",
"496 265 OFFCURVE",
"445 285 OFFCURVE",
"445 341 CURVE",
"445 344 OFFCURVE",
"445 348 OFFCURVE",
"445 351 CURVE",
"46 351 LINE",
"46 348 OFFCURVE",
"46 344 OFFCURVE",
"46 341 CURVE",
"46 93 OFFCURVE",
"316 -26 OFFCURVE",
"566 -26 CURVE SMOOTH"
);
}
);
width = 1148;
},
{
anchors = (
{
name = bottom;
position = "{452, -17}";
},
{
name = top;
position = "{675, 1084}";
}
);
layerId = "3FDD6C00-F7FD-4E85-84B0-0136AF7D7529";
paths = (
{
closed = 1;
nodes = (
"758 -26 OFFCURVE",
"1050 106 OFFCURVE",
"1050 385 CURVE SMOOTH",
"1050 595 OFFCURVE",
"790 645 OFFCURVE",
"654 665 CURVE SMOOTH",
"553 680 OFFCURVE",
"494 698 OFFCURVE",
"494 732 CURVE SMOOTH",
"494 784 OFFCURVE",
"579 796 OFFCURVE",
"622 796 CURVE SMOOTH",
"668 796 OFFCURVE",
"720 778 OFFCURVE",
"720 733 CURVE SMOOTH",
"720 724 OFFCURVE",
"718 714 OFFCURVE",
"716 709 CURVE",
"1111 709 LINE",
"1114 721 OFFCURVE",
"1119 751 OFFCURVE",
"1119 775 CURVE SMOOTH",
"1119 966 OFFCURVE",
"895 1084 OFFCURVE",
"666 1084 CURVE SMOOTH",
"375 1084 OFFCURVE",
"97 963 OFFCURVE",
"97 698 CURVE SMOOTH",
"97 495 OFFCURVE",
"327 414 OFFCURVE",
"496 396 CURVE SMOOTH",
"625 382 OFFCURVE",
"657 372 OFFCURVE",
"657 340 CURVE SMOOTH",
"657 283 OFFCURVE",
"574 265 OFFCURVE",
"519 265 CURVE SMOOTH",
"446 265 OFFCURVE",
"400 281 OFFCURVE",
"400 325 CURVE SMOOTH",
"400 333 OFFCURVE",
"402 343 OFFCURVE",
"404 351 CURVE",
"5 351 LINE",
"1 336 OFFCURVE",
"-4 309 OFFCURVE",
"-4 281 CURVE SMOOTH",
"-4 74 OFFCURVE",
"245 -26 OFFCURVE",
"465 -26 CURVE SMOOTH"
);
}
);
width = 1144;
},
{
anchors = (
{
name = bottom;
position = "{405, -12}";
},
{
name = top;
position = "{626, 1075}";
}
);
layerId = "2503C51C-5A6C-4B2C-A968-78FEA18C2585";
paths = (
{
closed = 1;
nodes = (
"658 -17 OFFCURVE",
"874 96 OFFCURVE",
"874 316 CURVE SMOOTH",
"874 450 OFFCURVE",
"752 506 OFFCURVE",
"531 546 CURVE SMOOTH",
"346 580 OFFCURVE",
"221 630 OFFCURVE",
"221 758 CURVE SMOOTH",
"221 947 OFFCURVE",
"421 1047 OFFCURVE",
"633 1047 CURVE SMOOTH",
"797 1047 OFFCURVE",
"935 997 OFFCURVE",
"935 847 CURVE SMOOTH",
"935 804 OFFCURVE",
"928 777 OFFCURVE",
"923 759 CURVE",
"954 759 LINE",
"959 780 OFFCURVE",
"966 826 OFFCURVE",
"966 850 CURVE SMOOTH",
"966 1011 OFFCURVE",
"816 1075 OFFCURVE",
"633 1075 CURVE SMOOTH",
"405 1075 OFFCURVE",
"190 960 OFFCURVE",
"190 752 CURVE SMOOTH",
"190 610 OFFCURVE",
"329 554 OFFCURVE",
"531 518 CURVE SMOOTH",
"732 482 OFFCURVE",
"842 434 OFFCURVE",
"842 311 CURVE SMOOTH",
"842 114 OFFCURVE",
"640 11 OFFCURVE",
"410 11 CURVE SMOOTH",
"201 11 OFFCURVE",
"90 89 OFFCURVE",
"90 219 CURVE SMOOTH",
"90 245 OFFCURVE",
"94 278 OFFCURVE",
"101 305 CURVE",
"70 305 LINE",
"64 281 OFFCURVE",
"59 250 OFFCURVE",
"59 216 CURVE SMOOTH",
"59 70 OFFCURVE",
"179 -17 OFFCURVE",
"410 -17 CURVE SMOOTH"
);
}
);
width = 1096;
}
);
leftKerningGroup = o;
leftMetricsKey = o;
note = s;
rightKerningGroup = o;
rightMetricsKey = o;
unicode = 0073;
},
